<mxfile host="app.diagrams.net" modified="2023-06-26T09:24:55.211Z" agent="Mozilla/5.0 (Windows NT 10.0; Win64; x64) AppleWebKit/537.36 (KHTML, like Gecko) Chrome/114.0.0.0 Safari/537.36" etag="iV9VljBa388fJHt-qRfV" version="21.4.0" type="github">
  <diagram name="第 1 页" id="IZRkvTElKmnIftRhRL36">
    <mxGraphModel dx="989" dy="1696" grid="1" gridSize="10" guides="1" tooltips="1" connect="1" arrows="1" fold="1" page="1" pageScale="1" pageWidth="827" pageHeight="1169" math="0" shadow="0">
      <root>
        <mxCell id="0" />
        <mxCell id="1" parent="0" />
        <mxCell id="odwM9VJJkQJ1zX9S7Ubx-1" value="联邦+长尾学习&lt;br&gt;" style="rounded=0;whiteSpace=wrap;html=1;" vertex="1" parent="1">
          <mxGeometry x="10" y="400" width="120" height="60" as="geometry" />
        </mxCell>
        <mxCell id="odwM9VJJkQJ1zX9S7Ubx-2" value="长尾学习" style="rounded=0;whiteSpace=wrap;html=1;" vertex="1" parent="1">
          <mxGeometry x="10" y="50" width="120" height="60" as="geometry" />
        </mxCell>
        <mxCell id="odwM9VJJkQJ1zX9S7Ubx-3" value="" style="shape=image;verticalLabelPosition=bottom;labelBackgroundColor=default;verticalAlign=top;aspect=fixed;imageAspect=0;image=data:image/png,iVBORw0KGgoAAAANSUhEUgAAA+gAAAE0CAYAAAC/wBmZAAAgAElEQVR4nOydeVyO2fvHP0/7TotSo5RIDQolW2PJhMkaSUnKMkm2wWRpGMbOKIOZMYRvxpLRkCXraDGM7IQsSWlTKrTvdf3+6Hff3+6ep41MzXzP+/Xq9eo597nvc93LWa5zznVdIiIiMBgMBoPBYDAYDAaDwWhWpJpbAAaDwWAwGAwGg8FgMBhMQWcwGAwGg8FgMBgMBqNFwBR0BoPBYDAYDAaDwWAwWgBMQWcwGAwGg8FgMBgMBqMFwBR0BoPBYDAYDAaDwWAwWgBMQWcwGAwGg8FgMBgMBqMFwBR0BoPBYDAYDAaDwWAwWgBMQWcwGAwGg8FgMBgMBqMFwBR0BoPBYDAYDAaDwWAwWgBMQWcwGAwGg8FgMBgMBqMFwBR0BoPBYDAYDAaDwWAwWgBMQWcwGAwGg8FgMBgMBqMFwBR0BoPBYDAYDAaDwWAwWgBMQWcwGAwGg8FgMBgMBqMFwBR0BoPBYDAYDAaDwWAwWgBMQWcwGAwGg8FgMBgMBqMFwBR0BoPBYDAYDAaDwWAwWgBMQWcwGAwGg8FgMBgMBqMFwBR0BoPBYDAYDAaDwWAwWgAyzS0Ao3aio6Oxf/9++Pv7N/ic4OBgAMCECRM+lljNRmpqKsLCwhAeHo7AwMDmFqdBlJWV4datWzh37hy6desGJyenv7X8mzdvYtmyZfD394eFhYXY8aysLBw8eBBv377F9evX8emnn+Kbb75BmzZt/jYZiQizZ8+GsrIyvv/++7+tXMa/FyJCdHQ0Ll68CBkZGSxcuLC5RWo2ysrKcO3aNYSEhMDFxQW9e/cGADx8+BBfffUV1q1bhz59+nyUstPS0hAREYEzZ87g0KFDfHpKSgpmzJgBb29vjB49+qOU3ZxUVlYiLCwMZ8+eRU5ODhQVFWFqaophw4ZBX18fv/32Gzw8PHDp0iVkZWWJnd+7d2/cuHGjweVNnDgRIpFIkJaamop79+5h5MiRtZ534sQJFBcXC9JEIhHk5eVhaGiI7t27N6j81NRUnDt3DjNmzKg1z59//onTp0+jsrISlpaWmDRpUq3X+vXXX/HmzRuoqqpi/vz5aN26db0y5OXl4cyZM2Lpn3zyCT777DNBWm5uLs6ePVvvNTnMzMwk9p+SSE5ORnp6Onr16oX8/HxMnToVgwYNwuzZsxtcXlOQkZGB8PBwnD59GoGBgZCVlf1by29KSktLcejQIVy5cgWJiYmYPn16rd/PP43U1FScPXsWX375Za15mqrunD9/HlZWVtDS0mry+2B8BIjRIjl79iyNGjWKioqKGn3u7t27acWKFR9BquYjJiaG1q9fTzIyMqSqqtrc4jSY/fv305AhQwgAbdq06W8vf9WqVQSANm/eLHbs/v37ZG5uTs+fPyciotu3b5OioiINHTr0b5UxPz+fFBUVSVVVlSorK//Wshn/Tk6fPk2urq4EgKZMmdLc4jQrBw8epG7duhEAOnv2LJ/u7+9PAGj58uUfpdzY2FjavHkzycnJkZSUlODYsWPHCAC5ubl9lLKbk/3795O+vj4ZGBjQtm3b6Nq1a3TlyhVasmQJaWpqkqysLNnZ2RER0bt37+jo0aOkoKBAAMja2pqeP39OJSUllJKSQhMmTCAAJCMjQ+vWrSM/Pz/+b/369WRlZUUAJI4TfH19yczMrM42NTU1laZOnUoACAD5+vrS1q1bydvbm9q3b08GBgb0zTffUFlZWa3nz5kzh+Tl5alfv361luPt7U2WlpaUlpZGZWVlNH36dLK1tRWTOzw8nLS0tOjUqVNERBQaGkrt27enK1eu1PvcKyoqKC4ujqytrQkAycnJ0ZEjRygnJ0cs7927dwkAmZmZkbe3Ny1dupRGjhxJAMjAwICWLl1KX3/9NY0aNYqkpKRo3rx59ZZPRHT06FFavHgxlZeXExHRgwcPSCQSkbW1dYPObyri4+PJz8+PFBUVCQAVFxf/reU3JZWVlTRo0CD6/fffqby8nIYPH04AKDU1tblF+yCq152+ffvWmm/27NlidWfw4MFUWFgoyBcREUFt2rQR1B1DQ0NB3cnLy6MpU6bQgwcPPs5NMZoUpqC3QG7dukVGRkaUl5f33tfw9vamBQsWNKFULYMePXr8oxR0IqIzZ840m4JeUlJCoaGh/IChOpaWlrR+/XpBWmRkJF2+fPmjyvTXX3+JpUVHR9OTJ08+armM/y1evnzJFPT/Z9OmTWIKenl5OYWGhlJJSclHLdvGxkZMQSciOn/+PGVnZ4ulS2of/il8++23BICGDx9OpaWlYseTk5OpU6dO1L9/f0F67969CQAdOHBAkH7z5k0CQJqamhLLq6yspN69e1Nubq4gvbi4mNq0aUMA6Ny5c3XKHBMTQwBIUVFRkJ6fn0+DBg0iADRnzhyx8woLCyksLIyXsTYFfd++fQSArl+/zqcVFRWRuro6LVmyhE978+YNqaurk5eXl+B8Ly8vMjIyooKCgjrvg2P//v0EgPr06VNrnr/++ousrKwE3z533qBBgwR5f/zxR/ryyy/rLffcuXM0ZswYqqioEKRfvXq12ZTJoUOH/uMV9HPnzhEAyszMJKKq7yQ8PLzJy7l27VqTX7M2atad2hT0//znPwSAoqKi+LSioiLS0NCgxYsX82mNqTs5OTk0aNAgSk5ObuK7YjQ1zAa9hVFcXAwHBwe4urpCRUXlva+zYMECbN26FefPn29C6ZofKal/3ifbnDLLyclhxIgRkJaWFqQnJibizp07aNeunSB94MCBGDBgwEeTJzw8HGvXrhVLNzc3h6mp6Ucrl/G/xz+xrfhY1Nz+DADS0tIYMWIE5OTkPmrZtb2HYcOGoVWrVoK0lJQUTJky5aPK87E4c+YMVq9eDQMDAxw+fFjiluJ27dph3759KCoqEqRz7bOMjIzE9NoQiURYunSp2DM+evQodHV1AQA//PBDndeorQxlZWUsXrwYALB//36UlZUJjisqKsLW1hY9evSo8/p79+6Fqakpb1oBAAoKCpg4cSL8/PyQlJQEADh+/DjevXsHDw8PwfkeHh5ISEio9z44uGdY17MrKiqCl5dXg779adOm1ZsnKSkJM2bMQEBAgNi76N+/P/T09Oq9xsfg39AG/vnnnwD+ey8aGhoYPHhwk5bh7++PU6dONek164KrOz179qwzH1d3qpsgcXXH39//veqOmpoaVq9eDUdHR5SWljbhXTGamn9+7f2Xcfz4caSkpMDGxkbi8YSEBBw8eBA7d+5ESEgI3r59KzFfx44doauriwULFqCysrLecisqKvhBQ1ZWFl68eFHnea9fv8aLFy9QUVEh8XhBQQGAqo7w5cuX9ZZfneTkZCQnJ6O8vLxR5+Xk5CAuLq7WZwJUyZ2cnFzr8aysLCQmJoKIGlV2YWEh4uLikJ2d3ajzysvLkZKSUuezLC0tRUJCAvLy8mq9RkJCAnJycmotJz8/X/D7wYMHAMQHhACQnp5e63Vev36Nly9foqSkpFZZk5KSJL7zuLg4TJo0qd5vRhJpaWmIi4sTG9hWJzc3l/8/Pj6+0e8iNzcXL168kGgTWp2srCzEx8fXKUt+fj5evHghkOl9ICIUFhYCqKoXNZ9RdnY24uLi8O7duzqvU997+7tISkrC69evm+x6ZWVliIuLQ2ZmZqPOIyKkp6cjLi5OzAa3ep6XL1/W2Z4kJiY2umwAyMzMREJCQq1ll5WVITk5GQkJCbW2Rdy3UFxcLLG+ZWdn4/nz5/W2o5LqXfXvNiUlpc53lpeX16B6I4nq7VJubi4mTpz4Xs+zoXzMduSnn34CALi7u0NdXb3WfDY2NujWrVsDJa6b1NRUjB07FsrKymKyBAcHQ19fHxcuXMDjx4/f6/qcL5K8vLw6n1ld8l27dk3i/Xbt2hXl5eUICwsD8F//OV27dhXk69KlCwDgwoULjS6/NqytreHi4tKgvIqKili9enWdeRYuXIihQ4fW6rtFUh2rrKzk00tLSxEXF8e39RxpaWl1jle4fiYjI6O+2xCDq7d11TeuLpSWluL58+e1tldcnri4uDrbgZKSkgb1V9Wp6/6BD+8Dw8LCsHTp0jrP5fqKmu+nOty7LCgoqFfmhvDq1Sv89ddfYvUB+PC689lnnyE7Oxt79+79YDkZHw+moLcwuArTsWNHQXppaSlcXV0xcuRItGrVCurq6pg6dSp0dHSwYcMGidcyMTHB06dPcevWrVrLu3PnDhYvXgx9fX2cPXsWXl5eaNu2LTp27IiuXbvi+vXrgvx3797F9OnTsXz5ckyaNAkmJiY4fvw4L+OpU6fg4uICS0tLPHnyBBYWFjAyMsLBgwfrvfeTJ0/C0dERgYGBWLVqFTp27IjTp0/Xe97r168xZcoUrFq1ClFRURgyZAg8PDwEA9OsrCyMGjUKQUFBuHz5MmxsbASNcl5eHhwdHbF3715cu3YNQ4YMaZBTl5ycHMyZMwcLFy5ESEgIevbsCXd39wZ1QL///juGDRuGixcvIjAwECYmJrh48aIgz4EDB+Dq6opbt25h5cqVMDc3R2JiIn/8xIkTcHBwwM2bN/H999/DwsIC9+/fB1ClDG3cuBHdunUTfCNLlizBqlWrAAB+fn5wcHCAg4MD+vTpAzk5Oejq6oop0VFRUXBycsKOHTvw008/wcDAAAEBAYI8P/30E8aMGYPLly9j48aNAlmys7Ph6+uL169fIzo6Gk5OTvDx8UF5eTnOnDkDFxcXaGtri00KXbx4EWPHjsXu3bvx66+/onPnzpg/fz7fUebk5MDf3x8DBgzAF198gQcPHqBfv34wNjaGrq4u9u3bV+97ePv2Lb788kssXboUUVFRGDlyJJycnMQGIzExMXBxccHmzZsRGBgIAwMDbNy4UZAnKysLnp6eWLJkCY4dO4YuXbpg5syZyMvLQ25uLlavXg01NTVYWlry5+zevRudOnWCqqoqLl26BAB49uwZ1qxZA2NjY5w9exYLFiyAgYEB7+woLS0Nrq6uWLt2LaKiojBw4EDMmDFD7L3dvHkTTk5O2L59O37++Wfo6+tj586dAKoGJly5jo6OuHfvHn/ewYMHoampiS1btkh8ZkSE5cuXQ1VVFaqqqli/fj1f9osXLzB8+HCYmpryikFMTAw+//xzRERE4NixY+jVq1eD3k1tlJWVYeXKlZg+fTpCQkIwcuRIDB06FPHx8fWe+9dff8HOzg7BwcE4e/YsOnXqhD179gjy/Pnnnxg+fDiioqKwe/du9OzZUzDIuXPnDuzs7HDlyhUcPnwYVlZW+O233+ot+969e/zqR0BAAPT19bFt2zZBnn379mHEiBEIDw/H9u3b0aVLF74dLi0tRWhoKFxdXdGtWzfExsaiR48eMDIy4p9nbm4u5syZg9mzZ/PtMTeQ43j16hX8/PzQo0cPLFu2DECVwrB3716MHj0a+vr6SE9Ph6OjIwwMDKCnp4evv/5acI13797x33pUVBRGjRoFJyenehW5t2/f4pdffoGNjQ0mT57Mp69YsQKPHj1CUVERnJyc4OTkhMzMTMyaNQuqqqrQ0dFBQEAAv+rz4sULODg4oFevXvVOAl+6dAkODg7YtWsXDhw4AFNTU8ydO5cfVOfm5mLr1q0YOHAghg0bhocPH8LGxoZvR2p+HzV5+fIl/300xOnd7t27681TH5WVlVi5cqVY+s2bN6Gurg4TExN4eXkBgNg31lC4e+revTvU1NQaff7p06dBRDA2NhY7xqVFREQgLy8P4eHhaNu2rdhkg4qKCnR0dHDjxo06FcTGoKqqCiUlpQbnb9u2ba3HsrOzERoaCltbW0F6YWEhDh8+DHt7e8EK6F9//YV58+ZBX18fp0+fxp49e/gdZKampoiOjkZMTAwcHBxgamoKAwMDuLm5Ca7N1fEFCxYgKioKjo6OGDt2rNhEfG3yenl5wcfHB1FRURg7dizGjx/P96kvX77Et99+i65du2L58uUIDQ3Fp59+ChMTE+jr6yMqKkpwvdLSUvj6+mLmzJkICQmBnZ0dRo4cKVBSy8rK4Ovri6+++gpr166Fvr4+3N3d65T36tWrcHJywuXLlwEAU6dOhZOTE99/vU8fuHPnTkEf+OTJE6xatQplZWU4ceIEnJyc8PPPP/PnRkZGYty4cdi5cycOHToEMzMzeHt784slhYWFCA4OhoODA+zs7HD79m2Ympqiffv2H7x7las7NXUBoGnqzhdffPFBfTDjb6D5dtczahIfH08ikYhkZGTEnLLs2LGDAFCPHj34Y5s3b+adu1y9elXsep6engSAVq5cWWuZ9+/fJ3t7e96G7NSpU5SSkkIbNmwgkUhEOjo6lJGRQUREjx49InNzc0pLSyOiKjuaHj16kIyMDD169IgyMzPp4sWLJC8vT9ra2uTj40MXL14kKysrOnPmTJ33HhgYSObm5gJbmQ4dOpCcnJzAVsbS0lLMBv2LL76gTp068b85BzD79u3j02bOnEk+Pj7874cPH5KHhwf/e9myZTR9+nT+d3x8PDk5OdUpc15eHvXo0UNQzuHDhwmAwGaNs6GqboN++/ZtEolEFBgYyKeNGzeO2rVrx9uwvXr1imRlZQVObiZPnszbaufk5JCKigolJCTwx+fNm8fbcN65c4eWLVvGO/+pDmfbtH//fj6tsrKSevXqRSKRSJA3IiKC2rdvL7Cj4xy1cN/d0aNHCYDAIUn37t3JxsaG/11aWkoABE7oMjMz6c8//yQdHR0CILDfO3/+PLVq1YqePn3Kpz19+pQUFBRoyJAhVFJSQqWlpRQfH0/y8vKko6NDixYtojdv3lBqairp6uqSkpJSvfZ3zs7OpK2tzf9+8eIFAaCtW7fyadHR0dSuXTt6/Pgxn8Y5Vzp69CgREb19+5bMzMzo999/5/Ps3LmTANDXX3/Np2lra1Pnzp0FMqxfv15gL3rnzh0aN24cAaBhw4bR+fPnydvbm8aPH09ERLa2ttSlSxf+/KioKAJAhw4d4tP+/PNPMjAwENSfESNGEACKjIwkIqJdu3ZJ/D6SkpLIysqqzudG9F8bx5s3bwrSly1bRr/99hv/u1evXhQUFMT/Pnz4MPn5+dV7/dpwcHCgRYsW8b/v379PAAS2vUlJSWI26BkZGaSqqiqw31uxYgXJyclReno6ERGVlZWRnp6ewO5vw4YNgvdqamoqaNN27dpFu3fvrlPmGzduULt27Sg+Pp5P45yAcbbhXFtR3Vb8s88+IwsLCyKqsjW8dOkSKSoqkoaGBvn4+NClS5fI2tqaTpw4QRUVFTRixAiaO3cuf35BQQH16dNHcN3o6Ghau3atwL64srKS3r59Sx07diQZGRny9PSkuLg4Kioq4s+Pjo7mr+vi4kJaWlr874SEBAIg9l4HDBggsEF/8uQJBQQEEAAaNWqUIG/Pnj1JTU1NkFZaWkr6+vqkqKgoZms9bdo0Cg0NrfO5X7x4kdTU1AR1NzY2lhQVFWnw4MFUXFxMpaWllJCQQAoKCqSjo0MLFy6krKwsevXqFenp6ZGioqKYU6bqBAUF8X3x+zh27devHwEQ1BGiqnYAAKmpqVFERAT/d/HiRRo9ejSNGTNG7Fpubm50+vRpIqr63uXl5UlRUZHevHkjseynT5+K2aCXlpZSYGAgqaqqkpqaWp1+ScrKymq1Qf/mm28kfhPV761v3770/PlzAkDdunWTWEbXrl0JAMXGxtYqB8ehQ4fE2oKGUJsNen3s3buXANDt27cF6S9fvqQzZ86QjIyMoL3Py8uj7777ji/r3LlzVFFRQbdv3yZpaWkyNzenr776it6+fUtERB4eHgSAIiIi+GtMnz6dlJSU+N/p6ekEgNauXSuQgeunq/eBbm5u1Lp1a/53cnKyYHxSXFxMp0+fJgDUuXNn2rJlC5WUlNCVK1dIVlaWevfuzZ9bUVFBw4cPp2+//ZZPu3btGgHgHSESEU2aNEnQn3J+CaZOnVrv83V2diYAfPvMUbMPvH79OgGggwcP8ml//vkn6evrC/pAzhkg9zy585YuXSq4fkREBKmpqQkcqiUkJJCysjLZ2NhQYWEhpaWlUUhICIlEIurQoQP5+vrSqVOnyMLCokE27eXl5bXaoC9fvpwA0JYtW8SONabucA5Cnz17Jkj/5ZdfCABzGNeCYSvoLYhr166BiNCqVSuxrcevXr0CULUCw81MVg+fcPPmTbHrcce5GUhJWFhY8Nvply5dilGjRuGTTz7B0qVLMXXqVLx+/ZpfGfL398fo0aPRunVrFBcXQyQSwdHREeXl5Thw4AC0tLRgZ2cHXV1dFBcX47vvvoOdnR1u3boFe3v7WmUoKyvD4sWLsWzZMsGs9ooVK9C3b996Z7qLioqgra3N/+a2mVXf1vfw4UNcv36dn13t2rUrBg0aJDh++/Zt3s7OyMioTpmBKru8vLw8TJ06lU8bNWoU7Ozs6g3JUlBQAGlpacGWuDZt2iAlJYWfnX369CkfIolj7ty5/JbXhIQE5OfnC47Pnj2bt9Xq2bNnnSF2aiISiaCoqCiWvmTJEkyfPl1gR+fj44NevXrxz72oqAgKCgoCm9I2bdrUu7VSS0sLn332Gb8Vqzrz5s3DwIED0blzZz6tc+fOmDNnDsLCwnDs2DHIysrCyMgI6urqUFNTw5YtW6ChoQE9PT24urqisLAQDx8+rFOGhnw/3377LUaOHAkzMzM+bf78+bC0tET79u0BADt37oSioiLGjx/P53FycsLAgQMFW88k2UbWTOvZsyf/fY4cORLDhg3DTz/9hN9//52XWUdHR0zmmJgYPm3p0qXw8PAQ+Bnw8fGBlZUVf667uzt0dHSwZ88ewQx7UFAQ3N3da3li/4Vbff3Pf/7DpxERIiIiMG7cOD7t4cOHgu/UyclJ8MwbQ2RkJM6cOSNYPbSwsMDkyZNhbW1d57nFxcUgIrH3XVpaihcvXgCoWuHlthdyeHp68vaq5eXlePr0qeC4u7t7vSuMvr6+cHZ2hpGREZ+2cOFCWFpa4pNPPgFQ9V5lZWWhoaEhkI/7FjU0NDBkyBDo6+ujuLgYK1euxJAhQ3Djxg2MGTMGQUFBOHPmjGB3kJKSEkaNGiWQxdzcHGPGjBGkiUQiqKuro1OnTigvL4e/vz+MjY2hoKCAefPmAYAg9Fdt32B9dd7U1LRR4SZlZWXx1VdfoaioSLAls6SkBFFRURg+fHid58+bNw+fffaZoO526tQJc+fORUREBIKDgyErKwtDQ0NoaGhARUUFfn5+0NTUhK6uLtzc3FBUVMSbBUmi+rZ4eXn5Bt9bQykpKcHhw4f5v6CgILGVTKAqtNbNmzf5vqtNmzb8roZdu3bVW4atrS26d+8OFRUV+Pv7w9fXF8+ePXtvvyRcmyLJlIpLKykpqTNfzbwtDS5cW6dOnQTp7du3h729vVhIKxUVFX7Lv4ODA4YPHw4pKSlYWlqiR48eiImJgZ+fH28mwYXfqv6+i4qK0LZtW34sIKn9r4366q28vDwfXs/S0hKLFi2CnJwcbGxs0K9fP9y6dYvf6Xb+/HlcuXIFvr6+/PX69OmDCRMmwMrKCgDw/PlznDx5Ep6eniguLkZxcTEcHR0hJyeHI0eO1Llt/EPuA5DcB3799dewsrKqc1cEAHz11VewtrYWmGcYGhpi4cKFuHr1Kg4fPoy2bdti7NixUFJSQnl5Ob777juMGjUK9+/fR9++fd/rvjg+dt3hvtcTJ058kJyMjwdT0FsQnK2bJOcyvr6+WL58OYKDg2FkZISsrCzBllRJ9uLcdRpq71NzYMHFWoyMjERJSQmOHj2KiIgIeHp68n9Pnz6Fm5uboKHkBnqSlD1JnDx5EhkZGWKxSj08PBAZGSkYrEoiLCyMdySSlJTEbx+s7gDD3t4eV65cQd++ffkt/9UVEHt7e0RHR8PS0pKf0KhPQQkICBDzFaCiooKLFy/Wuz1+wIABKCwshL29PSoqKnDq1CncuXNHILeFhQU++eQTjB07FitWrEBRURGsra35gWanTp1gYmICd3d3LFq0CHl5eTAxMRFsp5PkHKoxPHjwADdv3hS7T1tbW9y8eZNv5KdMmYLc3Fx069YNxcXFOHToEOLj4xvshKSmnLdv30ZsbKxAOecYNmwYAAjiKgPiSq6CggIA1LstMiQkhN+K/+rVK96WlJM9LS0NoaGhYs/AwsICt2/f5pVCSd+DhoYGIiMjG6Ts1oR7JpIcDF25cgV//PEHgKqJGm4LLifzo0ePcO3aNTF5Bg4ciFu3bvEO+eTl5TF//nxkZGRg//79fL7jx483KM7soEGD0K1bNxw6dIgfaIWFhcHW1lYwYLC3t8eOHTswbtw4JCYmQlpaWrC9uTEEBATAwsICqqqqgvQDBw7A39+/znP19fXx9u1bLFq0CEDVc+S2InLPTktLC9bW1vDx8cGXX36JrKwsaGho8EqujIwM7OzssH79ekyaNAmpqamQl5fHxIkTay33xYsXCA8PF2vj+vTpg9u3b8Pc3BxA1YC9oKAAvXv3RmlpKY4ePYonT56IOegSiURo1aqV2JbGoKAgfkt6dST1KfW1DdXrk6S6dPz4cURHRwOoqjc//vgjADSozje2XfL09IS6ujp++OEH3nTpzJkzGDVqVJ3OwO7du4enT582STtSl3JYve98X4WjLlRUVLB7927+b9++fYiKiuJl4wgICMC0adMEzsHmzJkDoMoEqeZ3VB15eXlcuHAB48ePR2lpKe9IrT5Fpi64yXVJfke4NCUlpTrz1czb0njz5g2A2mWr61uveYwbM1V/f9w7rj6OO3jwIJ49ewaRSITXr19j+/btABpW944ePcor8mlpadixY0et50qqC5WVlfx3tHv3blhZWQm+f5FIhKNHj2L9+vUAqtplGRkZeHl58ePG2bNnY+LEiXB0dGyUPXp16usDY2JicO3aNbE2t2YfKInHj4yRYCwAACAASURBVB8jOjq6we2GSCSCtrZ2rUry+8B9Cx9ad7j2sub3yS2m1OVjhdG8MAW9BcEp2ZIadBUVFXz33XfIz8/H4MGD4e7uXq/zGu56kgZnDYGbOSwuLkZmZiby8/Ph4uKCX3/9VexvwYIFdV4rPj6et1fl/rhVLG7Gsz6PtbUhJSWFmJgYeHl5ITw8nB/4UzXnSr6+vrwtd+/eveHp6Sl4frNmzcKcOXPw8OFDDBo0CJMmTarXWdHjx4/fW2ZOvp9//hmLFi1C+/btebtkTm4NDQ2EhIRARUUFa9euhZmZGUJDQ/nzlZSUcPLkSbRp0wb+/v4wMTFpkB1sY2jMuykuLsa6deuwZs0a9OnTBx06dGi0sz0OzjuppEExp8zU5cyuMYhEIsTFxcHb2xuhoaG8F2lO9tjYWFRUVNTrFfjly5cf9D00BmlpaTx48AAzZ87E1atX4erqKpD5yZMnfL764Gx8/f39UVlZicePH8PAwKDeiTGO2bNnIzc3F0eOHAEABAYG8qs+HIGBgejVqxdCQkJgZmaGdevWNdoJJMeH1jsZGRkEBwdj5syZqKio4FdguWcnJSWFkJAQGBsbY8+ePTAxMcGuXbsE3/KRI0fQrVs3BAUFwdTUFH5+frUOkICq3TBE1CC5y8rKsGXLFqxYsQIWFhb8hFxD6tKNGzf+NiVGJBLhxYsXmD17NkJDQ/lJqPet83WhoqKCWbNmITExkXeIFBQUJOa1uCZ1tSPcLqemaEeq75jiJi0+NsbGxnB2duZ/l5eXY8+ePdi1axdMTEz4v8mTJ0NBQQGpqan8s6sNWVlZLF++HPb29nj+/DmcnZ3r/K4bIiMAiWMVLk1PTw96enpQVFSsdUyTnZ0NGRkZtGnTBuvXrxcbS8yfP/+9ZfxQuHbsY3tMr74IIxKJkJiYiLlz5+LYsWONqnsikQjx8fGYPXs2Tp48+UH1tiFtcXx8PNTU1CSOG3/99Vd+91Bjaco+sCZ/V7tRF5zteV11R1dXt8F1p+aONe65ME/uLRemoLcguAokaZY7OTkZ1tbWmDp1KoyNjSWu6NWE6zjq8ihbF1yHU70BfV9vsNra2ti5c6fgj5v15RpUbgW5sfj7+8Pe3h6+vr7w8PCQOEAViUQ4ePAgjh8/DiMjIwQEBGDYsGECJWHHjh24cOECzMzMEBQUhIEDB9br8Oh9ZU5LS4OlpSWSk5Pxww8/1LolvlevXnj27Bk8PT2RnJyMUaNG8U75gKrtok+fPsVXX32FN2/ewNnZuV6HRo2hoe/m8ePHMDMzg7a2NtatWyfRKVBj4EIMStqyx201bqgCWR8BAQEYMGAAFixYAE9PT7GVWY67d+/We62G5GkKNm7cCAcHB3z77bdwc3OrdbdKQ+Rp3bo1PD09ERsbi1OnTjVI8anO5MmToaamht27dyM7Oxv5+fkwNDQU5FFVVUVUVBS2bdsGBQUFLF++nHdg1ViICDExMe+13bWoqAjDhw/HkSNH8OOPPwrMXKqjp6eHhw8fYuXKlSguLoaXl5cgPKCGhgbu3LmDTZs2QSQS4euvvxZzolZTZqD+evTixQt07doVUlJS2LRpk8QVnLooLy9Henp6gyJ3fCh79uyBjY0N5s+fX2e9aSrmz58PBQUFbNmyBbm5ucjKyhJsW5cEt8PgY7cj3bt3598VN1H1dzB27Fj+/xMnTqB///548eIFYmNjBX+bNm0CUH/INaCqrzxw4AAMDQ1x4cIFLFmy5L3lGzZsGD+RU5O4uDgAVU71FBQUMHDgQKSkpIgpDCUlJUhNTcWgQYOgqqqKkSNHio0lOOWsMVR3tvohcN99UzmwawgHDx6EtbU1vLy84O3tLRausC7+85//oF+/fpg7dy68vLzey/lfdR48eFDvJE56enqTr9TW1wd+yLjy72o36mLo0KG11h0urbF1pzpc3g8J58z4uDAFvQUxePBgiEQiZGdni60uzZw5k29o1q5d26AtgmlpaQAAOzu795KHU8bHjRsHXV1daGlp4fDhwxIb2nXr1tU5YFZRUcHkyZMFf9zsf69evQBI9mybnJyMyMjIWq+blJQEHx8fjB8/HgYGBrXm42x3HRwc8PjxY7i6uuLmzZu8l3ju+NChQ/HgwQN4e3vjyZMnOHz4cK3XtLKywv379yXa///666+1ngcAq1evxqNHj/ittpK4e/cuEhISoKmpiV27duHGjRtQUVHBihUrAFQNcKKjo6GmpoatW7fi/v370NLS4o83Bdy7CQwMFGv88/PzERISAqDKXis/P19s5fR9sbGxgZqaGm7cuCFWFzgfDNVtnN+XN2/eYO7cubC3txezIeSwsLDg7eVqhk0rLy9HUFAQFBUV0aVLF1y9elXiJNaBAwf4/yXV3casXrx48QK+vr5wcnKqdfWh+nurWS8LCwsFkzxA1fuTk5PDli1bcPnyZX4bX0NQVlaGu7s7bty4gaVLl4p5HAaq6pe0tDTmzZuH2NhYWFtbY+/eve81SO7Vqxfy8vIQFBQkduz48eN1huvbu3cvLl68iPnz59e6s+jdu3cIDw+HgoICVq1ahadPn6JDhw5YvXo1ysvLUVFRgRMnTkBWVhaLFy9GbGwsunbtim3btvHbXWtiaWkJKSkpHDx4UGwLdHFxMY4ePQoAWLx4MVJSUt57RbBLly7Izs5+74nDhvLmzRvMmTMH9vb2MDEx+ahlcWhra8PDwwN3797F3Llz6zQp4Ojfvz9atWqFmzdvik18N2U7Avw3XvbRo0frndhNSUlp8p0GW7duxYwZMyQe8/DwgKqqKm7duiXwBVEbGhoa+P333yEvLw8/Pz9B+9UY2rZtCwsLC341szpPnjyBnJwcbzoyfPhwVFZW4tmzZ4J8z549Q2VlJRwdHQFU7aCqOZaoz/dETcrLy+sNrdVQuFjWTaXw10deXh68vLwwZMgQib5b6iI7OxuzZ8/GsGHD6tzi3VB69eqFrKwsHDt2TOzY0aNHUVpaCnNzc5SVlUn0gRAfH4/AwMBGl9uYPnD//v0S+0BJMnP07t0bmpqauHv3rtjES1O3G7XRtm1bdO/evc66w0WMaGjdqU5qaioAoEePHh9BekZTwBT0FoS2tjZ69uyJ8vJysXBBV69e5f+Pi4tDeXm5RCcx1YmLi4OsrGyD7V9rNmJHjhxBz549MWTIEEhLS2P8+PHIzs6Gg4MD3xkVFRVh/vz50NHREdghNWbwYWdnBz09PZw6dQoLFizg43lHRUXB29tbsFOg5nVjY2PFGibOnri6YhccHMz/lpeXx7p16wD8d/bwxIkT/MBZRkaGD59V1+wit8ro6OiIiIgIAFXPcMmSJYIVLEnP4unTpwDAy11aWsordpyc2dnZOHPmDH+OlZUVnJ2deZny8/Nx8uRJ/vinn36KadOmCWTm5KgpA/dbkmzV0zp27Ij+/fvjwYMHmDx5Mu+sMDY2Fk5OTrzzoKdPn6KgoIDfGsbFWK2oqOCvJysrCxkZGT6mckVFBd/51ZRHSUkJXl5eyM/PF1uRCg0NhYGBgWB7p6T7aMgqYnx8PEpKSvD8+XM+f83vp3Xr1hg9ejSSk5Mxfvx4fvY6NTUV48eP5weHHh4eqKiowJgxY/hBcEFBAebNmyewFVZXV0dqair/LIuKivj6LWlgX/Penj17BiLivyFJMhsaGmLgwIGIiYnh7aSBqjZhwoQJYnZ57dq1w8yZM/HXX3+hX79+jd4W6O3tDaDKn4SkMFPVJ7q0tLSwdOlSSEtL86seaWlpmDx5Mq5cuVJvWe7u7hCJRJgzZw5+++03VFZWgoiwY8cO3Lt3j3/Wkr4JbrDDPTsi4rckc8+utLRUsBXYwMAAc+fOhbKyMkQiESorKwWTA23btoWPjw/k5OT41ZWa6OrqYujQoXj+/DkmTpzI15OXL1/C0dER/fv35+UqKyvjv7HCwkLExsYK5OOQdH9cbGcuhCFHQkICAPBtK1B/21CdmnWJiyfMtb+A5Ha3tuvV1v4oKiqisLCQd5RZMwzTN998AwUFBRw9elRQ/2tDUVER3t7efMir6oSGhkJfX1/ga+F92xEAWLRoEb744gu8fv0ajo6OtU4UnT59GosXLxasOnL/11yJ5J5lfSuUkZGR/EqZJNTU1HjHfDVDJ9ZWhqWlJb/LzdPTs9ZwrfXJ5unpibt37wpWI8vLy3HkyBE4ODjwK7hOTk5o3bq12GTAgQMHoKam1mCFqD55Kisr4e3tjQ4dOgjSG/qsa8KNA54/fy7xOBE1ajxUX96UlBQUFBTw40Cg4XUvMTERRUVFeP78OX+fks6tTYaadYG79y+//BIhISEgIlRWVsLPzw9xcXGQk5PDuHHjICMjg7Vr1wqcPEZERGDu3Ln11mNJ7dSH9oGOjo58H8j1Qdy4pKCgALKyspg7dy5KSkrEFltCQ0Ohp6fHm8LV98zqoiF15969e3j06BGfVlfdqSnrgQMHoKqqKrHuPHnyBMrKyg0KC8loJprKHTyjaeDCHp06dUqQzoXjAUCtWrUiU1NTPowaADI1NaXDhw8LzmnTpg2NGzeu3jK5EE/m5uZ0+vRpSk9Pp61bt1LHjh0F4SlycnL4cCcKCgrUsWNHUldXpyVLlvB57t69S8rKyiQvL8+H+2oIt27dIhUVFQJA8vLypKWlRYaGhoKwKk+fPiV1dXWSlpamO3fuEBFRVlYWGRoaEgAaPnw4jR49mn744QeSlZWlNm3a0LRp0ygnJ4f69u1Ls2fP5kPlfP/99/T5559TZWUlEVWFn3Jzc6O8vDwiqgqdYm1tTSUlJXXKPXnyZP4daGhokJKSkiCEExHR/PnzCQCNHTuWysvLiYho27ZtBIB0dHRo0qRJNGHCBPryyy/5MGT79u2jsLAw0tDQ4ENYpaWlkYWFBZ0/f56IiO7du0fKysp8yKw3b96QtbW1ILwVF+amf//+VFpayqdPnz6dAAhCzWVkZFDbtm0JAIWFhfHpSUlJ9MknnxAAkpGRIS0tLdLS0qI///yTzzN37lwCQMbGxuTi4kIeHh40ZswYAkDjx4/nw/58/vnnBIBmzpxJXl5elJWVRUlJSaStrS0IM0ZUFcLF1dWV2rRpQ2fPnqWKigo6c+YMmZqaCkKvPX78mOTk5EhTU5NSUlKIqCr0T9++fWsN8cORl5dHpqamBIBsbW1pzJgxtGXLFlJVVaVWrVrRtGnTKD09nd68eUNmZmYEgKSkpEhLS4tatWpFJ06cEMjL3TMA0tTUJCUlJVqzZo2gzB9++IEAkJGREU2aNIm++OIL2rRpEwGgLl26UFRUFBUXF9P48eMJALm5ufHfDVFVSB19fX0CQPb29jRq1Cj64YcfSFpamnR0dGj69OmUn59PKSkpfD7uvWlqavLfS024cDtcGL/GMmTIEFq2bJnEYwoKCvTzzz9TRUUFlZeXk5ubmyD03Jo1a/h30BC4Ngv/H4JKTU2NHBwcBPWVCyNjYWHBh+c6e/YsycjIkJKSEk2aNIlGjRrF1xFra2tau3Ytpaenk4yMDIWEhBBRVZgyOzs72rFjBxFVhaASiUS0f/9+qqyspJKSEho3bhx99913dcqcnp5OHTp0IAAkLS1NWlpapK6uThcuXODz+Pr6EgBq3749ubi4kKurKx9maPTo0RQcHEzR0dGkqqpKsrKyYuGvKioqyMHBgQCQmZkZrVixgtzc3GjQoEEEgExMTPiwZNw31717d75dfPfuHRkYGBAAQZigmTNnEgCaPHkyEVXVG64+2Nra0tixY+n7778nNTU1vt6kpaVRfHw8X7erX+/IkSMEgPT19SkzM5NP50ILjRgxgubNmycWvo+oKryhs7Nznc+65jNxc3MjLS0tCg0NpYqKCjp79ix17txZEHrt6dOnJC8vT+rq6ny/V15eTv379ycAtHnz5nrLKikpoUWLFlGrVq2oXbt2tGTJErpw4QKFhYVRQEAA9e/fn5YtW8bX55KSErpw4QIpKysTALKxsaHU1FSqqKig7OxsmjRpEgEgkUhEAQEBEkO4paamUrt27cjQ0JCSkpIkylVUVMS/Qy68Z3l5OeXm5grGETt27BCEOiX6b5ivtm3b0h9//CFoi4iITp06RQCoXbt2lJiYKFZ2ZWUlOTs706BBg+jt27dUUVFBCxcuJHNzc3r37p0g74kTJ0hLS4tvoyIjI0lHR0fQL9RFeno6ffbZZwSAVFRU6JtvvqHt27fT9u3byc/Pj2bNmsX3cVwZlZWV9OrVK+rVqxcBIGVlZTp37ly94Tmr89lnn0ls+65fv06ysrKkpKQkaFcXLlxIAMjT05NPy8jIID09PQJAf/zxB5/OhdgdNmwYVVZWUlFREVlYWBAAGjBgADk4ONC6detIR0eHlJWVadq0aZSYmEjJycl8v33p0iUiqmrLunTpQkBViLexY8fSpk2bSENDg1RVVWnatGmUkpLChw20trbm24bXr1/zdbl638+1n9zYVFVVlVxcXAShgn/66ScSiUQEgPT09MjIyIhMTU3FQn/VJC0tjdq3b89/mxw1+0Bu3Pc+fWBhYSG1a9eO5OTkaOnSpbRo0SIqLy+nyspKmjZtGmloaPAhLC9evEimpqaC0GSXL18mKSkpat26daNDlnHh7Jqi7pw8eVKs7mhrawtCdlZnwoQJ5OLi0ih5GX8vIqKP4NGF8d5UVFSgd+/e6NevHz97DVTZpa9evRpxcXHo1q0bPD09oampiU2bNuH+/fsYM2YMnJ2d+e2zDx484D2S9+vXr84yN2zYAF9fXwQHByMpKQkJCQno3r07pkyZIrYNtLS0FL/99htu3bqFVq1awcHBgd/ilZSUxHvVBKq28nbp0gW9e/du0L2/efMGe/fuRXJyMszNzeHi4sKvBickJCAiIkLgyMna2hpdunTBy5cv8dNPP0FZWRkzZ86Erq4uQkJCcOXKFXh5ecHExASXLl3iV3yKi4uhq6uLSZMm8StekZGRKC4uxtOnT1FSUgJ1dXVMnjy5QQ6XIiIicOrUKcjJyQnCiwBVK/PVt70qKChg0qRJEIlE2L9/P+7evYsBAwZg3LhxKCgowKpVq9CxY0fMmDEDqampiIuLQ0JCAnJzc1FYWIixY8fyIbsyMjJw//59vHr1Cm/fvkVBQQHs7e15Z3OnT59GRkYGX7acnBxcXFxw+fJlJCYm8s9ST08P/fr1w4kTJ/jZZ5FIBFtbW96WuLCwEIGBgXjy5AmMjIzg5uYmCBFHRNi2bRsSEhIwZswY2NraIjU1FZs2bULfvn35lb2UlBRs374dampqmD9/Pt6+fYuIiAh+JlkkEsHS0lJgk3/nzh0EBwejuLgYPXv2hLOzM//ecnJyEBISwp8vLS3Nr2BXd+LSu3dvQaiz6qSnp2Pr1q2QlZWFp6cnDAwMcP78eZw/fx7Tp0/nnSWWlpbi8OHDuHPnDvT09ODm5iYI38LBnaukpISJEydK9C9w7NgxREZGwtTUFO7u7oiLi0NaWhqGDh0KaWlpBAcHi4VucnJy4u/7xYsX+OWXX6CiogIvLy/o6OggODgY169fh7e3N+8DoKioCPv370dMTAwMDQ3h5uZWa3iz1NRUODo61rszpzbCw8NhYmIi8ZmcPHkSZWVlSEpKQkFBAXr06CEIAfjmzRusWbMG7u7uDd5yFx0djcOHD6OkpAT29vaws7Pj27/IyEiB7Z6srCzGjBmDVq1a8e+nS5cucHd351d3uFUTKSkphIeHIycnB69fv+Ydc3IrLpWVlTh16hRv35efn4++ffs2yJSouLgYBw4cwIMHD6Cvrw83Nzfo6uoK8vz888949uwZvvjiCwwfPhyZmZlYt24devToAVtbW/zxxx983RWJRDA1NRW08UTE36OCggJmzJiBtLQ0FBYW4vPPP4eMjAzOnz/Pryhxz8fJyQnBwcG8KYtIJMKgQYOQkZEhWP3s2LEjBg4cyNcbGRkZeHp6on379rhw4QLOnTuHadOmoXXr1ggLCxM4P7WyskJubi5iY2P5e5CWlsaoUaOgqamJoqIi+Pv7Izs7G3PmzOFDGFZnxowZcHJywtChQ+t93tW5e/cuv/28Z8+ecHFx4etTbm4ujh8/LmhHRo8ejevXr/OmYgDEwi7VRmFhIR8KLT8/H2pqajA3N8eUKVMENr8122iOAQMG8JFJqqOpqSmwOweq7JGr734bN26cmN+ZI0eOiK3o29jY4M6dO2K7djQ0NODg4MD/LioqQlBQEP++bGxseHv74OBg5OXl8cdkZGTQoUMHsR06AHDp0iXepKxbt26YNGmSxP41OTkZu3btQlFREZSUlODh4dEgnyY5OTm8qVpD4MY3iYmJuHTpkthxPT09fPHFFw26VmhoKObPn4+4uDjBGOz27duCMcvgwYMRHx+Ply9fCvpfGxsbHD9+XOBwrm/fvigoKOBXhoEqcyJnZ2e8efOG3wkxY8YMGBsbIzw8nHf61rZtW1y4cEFQ97p3746ePXsiIyMD/v7+kJKSgqenJwwNDfHHH38gNDQUU6dOhZqaGiIjI3n55OXl4erqigMHDvBmIiKRCPb29ryH/zt37uDIkSOoqKjAyJEjYWtrK/aMHj9+jIMHDyIvLw/W1tYYN26cWBSK6iQmJoqNDbg+lbPNrq0PnDVrFu9krSF94L179xAYGAhTU1N4enoKdpBFR0fz4eAsLCzg6urK7xaNjY0V7PoSiUTo2bMnH6auLt637nTt2hWurq511p3i4mIoKCjAw8ODfw7VefPmDTp06ICIiAh+/M5oeTAFvQXy7NkzjB49GpcvX37vECeTJ09Gnz59+BArdcEp6BcuXGj0oIfBYPw72LBhA3R1dRvlII7B+DvhJktu3rz5wSEkGYymZMmSJejUqVOtfgAYjJbC3LlzYWxsjK+++qq5RWHUAbNBb4F07twZ58+fx+zZsyXOrtcFEWHFihXo3Llzg5RzBoPxv8vjx4+Rl5eHjIwM/Prrrw1yvMVg/J28e/eOt+/dtGkTv4LGYLQkNmzYgMuXL9dqq89gtAT27dsHkUjElPN/AExBb6EYGRlh7969CAgIaNR5x44dw8CBAxvlyZtz1FXTuzCDwfj3EhYWhi5dukBbWxudO3fG5s2baw3XxmA0FyNHjoSJiQnatm2L8PDwZo15zWDUhpSUFPbu3Yvz58/j+vXrzS0OgyFGSEgIFBUVBeazjJYL2+L+P87evXvx/fffIz8/H7q6uvjyyy/rjKvMYDD+HWRkZMDV1RUJCQlYvHgxPD09m1skBkOMgIAArF27Fubm5vjll19qDavEYLQUiIjt8mC0ONh3+c+CKegMBoPBYDAYDAaDwWC0ANgWdwaDwWAwGAwGg8FgMFoAMs0tQE1Wr16NNWvWoFWrVs0tCoPBYDAYDAaDwWAwWgCFhYVQV1cXhAr9N9LiFHQFBQVIS0tj0aJFzS0Kg8FgMBgMBoPBYDBaAMHBwcjMzGxuMT46LU5B19DQgKysLJYtW9bcojAYDAaDwWAwGAwGowXw+PFj3L59u7nF+OgwG3QGg8FgMBgMBoPBYDBaAExBZzAYDAaDwWAwGAwGowXQ4ra4MxgMBoPBYDAYDAaD8T7ExMTg7t27Eo8NHToUOjo6YukPHjzAoUOHUFxcDGtrazg7O0NaWlriNR49eoQDBw6gqKgI1tbWcHFxqTXv+8AUdAaDwWAwGAwGg8Fg/Cs4d+4cfHx8JB6LjIwUU9B9fHzg5+eHTz75BNra2ti+fTs2bdqEsLAwtGnTRpB36dKl2Lx5M/T09KCjo4MdO3Zg48aNCAsLk6j4vw9sizuDwWAwGAwGg8FgMP5VPHz4EFlZWYK/fv36CfKcOXMGW7Zsgbu7O+Li4nDnzh1cuHABjx8/hre3tyDv+fPnsWnTJkyePJnP+8cff+DZs2eYNWtWk8nNVtAZDAaDwWAwWhjl5eXNLQKDwWB8dEQiUZNuD6+Ouro6NDU168wTEBAARUVFbN26FfLy8gCqtsG7uLjg4MGDePv2LTQ0NPi88vLy+OGHH6CgoAAA+PzzzzF58mQEBgYiMzNTbMX9fWAKOoPBYDAYDEYLoKKiAq9fv0Zubi6ICCKRqLlFYjAYjI+OtLQ0NDU1eUW4qaisrMSbN2+gpKQERUVFseNEhGvXrsHCwgKtW7cWHBswYAAOHjyIqKgojBgxgs9rbm4uJueAAQMQGBiIa9euYcyYMR8sN1PQm4CioiL4+PjA19cXenp6zS0Og8FgMBiMfyCvXr2CSCSCsbExZGVlm1scBoPB+FsoLCzEq1evICUlJaYofwhmZmYoKCiAlJQUhgwZAh8fH9jZ2fHHX716hczMTIwcOVLs3E8//RQAcPv2bYwYMQKvX79Geno6hg4dWmveO3fuMAW9uSgrK8P169f5376+vrh69SrCw8Px448/8p2qhYUF1NTUmktMBoPBYDAY/xDKyspQWFiITp06QUqKuQhiMBj/OygpKUFHRweZmZn1KujJyckwNzcHAOjo6OCPP/4Qy6OmpoYpU6agT58+UFFRwf379xEYGIhhw4bh2LFjcHBwAADk5eUBAFq1aiV2DU4OLk9debk0Ls+HwhT096CwsBCbN29Gh85VsyXtDI0hc/06njx5gjlz58HuixFISYjD2rVrmYLOYDAYDAajXkpKSiAnJ8eUcwaD8T+JgoICSktL682no6ODgwcPAgDk5OQk5vH09ISnpyf/283NDd7e3jA3N8fy5csxduxYiESiOs2IiAgA+Da5ISZHTdV+MwX9A8jv5ggAUOoG2Kh0ROQvK/DkcQzULOzQpYltKBgMBoPBYPy7YTbnDAbjfxWRSMQrxXUhJyfHr6A3BmNjY4wfPx4HDhxAfHw8jI2N+YXUt2/fiuV/9+4dAPB56srLpTXVwixT0N+DvLw83L17FwqZ3wjSW+saIjvtJW4c2Yaktm0x3sEBZmZmzSQlxuB47AAAIABJREFUg8FgMBgMBoPBYDAAQEtLC0DVjiUAaNu2LfT09PDkyROxvDExMQCAXr16AQC0tbWhr6/foLwfClPQ3wMiQkVFBTYNVa6RboENR4pwL+41MjIy8OrVq2aSkMFgMBgMBoPBYDAYQJVH9/Pnz0NZWRkGBgYAqlbt+/Xrh1OnTiEjIwPa2tp8/kuXLkFKSgp9+vTh0/r164fjx48jLS0Nurq6fHpYWBhEIhH69u3bJLIyBf0D6KRSKJa2w60LXHfkITGrEGvWrIGzszNUVFSaQToGg8FgMBj/BgoLC/ntli0BTU1NPgZwc/D69WvIyso2eUimxnDp0iXs27cPfn5+goF6Q/nxxx/x6NEj/PLLL00u2+XLl7Fr1y5s3LiRV0Sago0bNyIzMxN+fn5Nds0PYcWKFZCSksJ3333XrHJER0dj69at2LZtG+8sLDc3F7m5uRLza2tri9lOZ2Zm4smTJ8jIyIC8vDz69OnTqHja5eXliI2NRXx8PIqLi6Gvrw8rKyuJ8cVTU1MlbiWXl5cXK7OsrAzh4eEoLy/HkCFDJNb7uLg4PHz4kLfrrs6KFStgZmaGSZMmNfhemoKVK1fC2dkZnTt3hpSUFOLj4/Hdd9/hyZMnmDVrlkA3mzNnDn7//XfMnDkTgYGBUFNTw6FDh3Ds2DFMmzZN4BRuzpw5+O233zBz5kwcOHAAampqOHLkCI4ePQo3Nzeoq6s3ifxMQW9iVBRksM2jB8b5RyEpKQlubm44fvw4sytjMBgMBoPxXly7dg0//fRTrQ6R/k5KSkrw9ddfw8bGplnKLy4uhrGxMVauXAkfH59mkQGoUkqCgoKwatWq91LQr127hrCwsAYp6D///DOio6Oxa9euBl07Pj4eQUFBWLp0aZMq6JGRkXj58mWLUdAvXLgAGRmZZlXQKysrMWvWLBgZGQkUua1bt2LVqlUSz7l16xasrKz437Nnz8bPP/8syCMSieDo6Ig9e/bUa9eclJSELl26ID8/X5Cura2NnTt3Yty4cYL0zp07o6CgQOw6AwcORGRkJP87PT0dAwYMQHl5OeTl5ZGTk4PIyEiYmJjwecrLyzFhwgQMHTqU94xeHUNDQ8yaNQtDhgyBjo5OnffRlKxduxarV6+GvLw8ZGVl+Wfj6OiILVu2CPIOHDgQmzdvxooVK6Cvr49WrVohJSUFgwcPxtatWwV5bWxssGXLFnzzzTeCvAMHDsT27dubTH6moH8EDNsoo52eLpJTX+HEiRNYtWpVs8/uMRgMBoPB+Odi1LkLcsw+PL7uh9L2QXCzlh8WFoaCggKMHTu2WeWws7NDcHDweynnjSUqKgrnzp1rsIL+v8KGDRuaPerB8ePHERUVhb1790o8HhgYCGVloUlshw4dBL+7du2K3bt3w9LSEm3atEF2dja2b9+OPXv2QENDo95JHBkZGcyePRsDBgxA586dIRKJ8ODBA8yfPx9OTk54/vw5jIyMBOfY2tpi1qxZgrSaq+cbN26ElJQUYmJiICcnh0GDBuGbb75BcPB/24CdO3ciKysLK1askCibu7s7Vq5cibVr12LHjh113kdTkpiYiBs3biAxMRElJSXQ0tLC8OHDoa+vLzG/j48PJk2ahGPHjqG4uBhWVlYYPHiwxAXWRYsWwcXFBb///juKi4thaWkJW1vbJl2MZQr6R0JFRRlTpkzB/v37sWbNGlhYWIjNYDEYDAaDwWAwGs6JEydgZmaGTp06fdRyioqKkJCQABkZGXTs2FFMETQ2NoaxsbHEc/Py8pCUlAQNDY0GKfAVFRV48eIFRCIROnbs2KQDfSLCy5cvUVRUhI4dO9a6C6OwsBCJiYkgIhgbG0NeXr7BZVRWViIlJQU5OTnQ1tZu0EppamoqsrOz0aFDBygqKtaa7927d0hNTYWCggKMjIwEW7aHDBlSZxk5OTlISUmBtrZ2ndvFk5KSkJ+fD0NDQygpKdUre3X27t0LCwuLWp1Cjxkzpt643jUVZX19fezevRtXrlxBUFBQvQq6np4eNm7cKEjr0KEDv7odHByMxYsXix13dHSs87rh4eEYM2YM/34mTpwoUMRfv36N5cuXY9++fbWa88rIyGDixInYt28fvv/++7/NNKZdu3Zo165do8755JNPMG/evAbl1dPTa3De94EF2/yITJgwAU5OTiAiuP8fe/cdFdXxNnD8u+zSpSpVjULs2A120aiJBnuLGmsSo4nGGI3GiBhr7D3WWCJqbLEREltiwYJiwV7AgoJIB+lld9n3D172l5W7gA0wzucczgl3Zu997kpgnzszzwwZwvXr10s6JEEQBEEQhBLx008/UaZMGZ319H/88QdmZma0bdtWp++oUaNwdHREpVJpj+Xk5ODn50e3bvpnEmRmZmJra5tv+nvTpk0xMzPj77//1h6LjIzEzMyMxYsXa4+lpaXx7bff4uTkhJubG9WrV6datWrs2LFD53zr16/HzMyMu3fvao9pNBqmTZtG+fLlqV27Ns7OzvTs2ZPVq1djZmZGUFBQvnj9/f2pXr269jp16tTh2rVr2vbWrVuzbds24uPjMTMz0349evRI73uQJyQkhCZNmuDq6oqbmxtVqlTRGf0ECA0NpVmzZlhaWlKrVi3c3NxwdHRkwoQJOu+9PhMnTsTOzo5KlSpRt25dHB0d8fDw0Fa1zrN7927MzMz4448/6NSpExUqVKB27dpUqFCB9evX5zvvvXv36N27Nw4ODtSpU4eqVatStmxZ7f7XAK1ateL999/Xfp+dnY2ZmRmTJ09mypQpODo6Urt2bZycnBgyZEi+PbYfPnzIhx9+SKVKlXBzc8PZ2ZlffvmF9u3b06JFi0LvPS4ujiNHjhT48/iiZDIZ1tbWL7WsJW899IueQ6lUolD8byzX0NBQ5z2cMGECTZs2LXQAsnv37jx9+pSDBw++UBxvI5Ggv2a//vor9evXJzU1lW7duhEbG1vSIQmCIAiCIBS7li1bkpaWprPO9e+//yY7O5tTp07prKE9dOgQ7u7uOglCYGAg0dHRBSZEJiYm1K9fn8OHD2uPxcXFERgYSHZ2Nv/884/2+LFjx8jIyKBVq1ZA7kh2r169WLt2LT/88AM3btzg3Llz1KtXj/79+3PkyBHta1UqFRkZGTrFthYtWsT06dPp3r07V69e5erVq5iamjJlypR8fSF3pH3o0KGMGzeOK1eu4OPjQ1hYGAMHDtT2Wbx4MW3btsXCwoK//vpL+/XvatP6jBgxglatWnHnzh1OnjxJhQoV6NevH6dOndL2SUxMpH79+vzxxx/cuXOHy5cv88UXX7Bw4ULmzZtX6DXS0tKYM2cOV65c4datW+zZs4ewsDA6duyok8yp1WoyMjIYMWIE7777LoGBgfzzzz+4uLgwYsQInQcdjx8/plWrVpw4cYJFixZx+/ZtgoKCmDlzps5Dg6ysLO12WXkyMjLYuHEj/v7+7Nu3j4sXL/L555+zefNmVqxYofPazp07ExgYyPr163nw4AE+Pj7Mnz+foKCgfOeVcvToUXJycmjTpo3ePn379qVu3bq0atWK+fPnFykPUKvVrF69msDAQMaMGVNofykPHz5kypQp2NnZ0a9fv3ztx48fp2nTptSrV49PPvmEAwcO5Pv5dHd358yZM9rjZ86c0VY0P3nyJLt27WLFihWFzvho3LgxxsbGHDp06IXu5W0kpri/ZmZmZuzfv5/GjRsTGhpK9+7dOXbs2HNNHRIEQRAEQXjTNW3aFFNTU44ePaotKHX06FGGDBnCxo0bOXnyJJ6enjx8+JAHDx4wevRondf7+vri6OhI48aNC7xOu3bt8Pb2Jjo6GgcHB44fP45cLmfgwIEcPXpU2+/o0aNYW1vTsGFDIHc0+/Dhw6xdu5bhw4dr++3cuRM3NzeWLVvGhx9+KHlNjUbDkiVLaNKkCT4+PtqkZcuWLbz33nvEx8fne01GRgZLly7VPnCoV68e4eHheHt7c//+fd59910aNWqEo6MjRkZGOqPFRdGuXTttQbfq1avj5+eHq6srS5Ys0T6UaNiwIatXr9Z5Xf369Xnw4AGbNm3Cy8urwATs30kvQM2aNSlXrhytW7fm2LFjdOzYUae9Y8eOOsW0fHx8qF27Nn/88Qffffed9pxRUVGcPn1aZyS7QYMGRbpvmUzGoUOHtNPVV61ahb+/P3v37mXcuHFA7oOhmzdvsmHDBj777DMAXFxccHJyokmTJkW6zsWLFwFwc3OTbHdxccHGxoby5ctz6dIlJk6cyPLlyzl+/LjkEo1GjRpx//59UlJSMDQ0ZP78+YwfP75IsUDuevjPP/+c7Oxs0tPTadSoEadOncLR0VGnn7GxMeXLl+fdd98lOTmZP//8k+3btzNy5EidhHvs2LG0bNmS7t27Y2Fhwc6dOzl48CBKpZJRo0YxYcIEqlatikajITIyEgsLCywsLPLFZWxsTNWqVblw4UKR7+VtJ0bQX5PMrCyCg4MJDAwkKiqK2bNnY2RkREBAAF27diUwMJDIyMiSDlMQBEEQBKFYGBsb06pVK22SHBERwe3bt+nfvz9169bVjm7ntT+7xtjX15euXbsWWhgs73XHjh3Tnq9x48b06NGDoKAgEhIS0Gg0/PPPP7Rp00a7rnn37t3IZDK6dOnC06dPtV+pqam0a9eOI0eOoFarJa9548YNnjx5km+rKQMDA70F7czMzOjUqZPOsdq1awO5ldhf1scff6zzfdmyZWnfvj1HjhxBqVRqj6tUKs6dO8eKFSuYP38+8+fPJyUlhXv37pGSklLodR4/fszWrVtZuHAh8+fP5/jx4wBcunSp0Jhq1KiBTCYjNDRUe2z37t3UrFmzSNPMpXTp0kVnLblcLqdmzZo618ibYfHsbAx3d3fKly9fpOskJSUBSCalY8aM4f79++zYsYONGzdy9epVtm7dSkRERL714HmGDx/OxIkTGTVqFHZ2dsyePRs/P78ixQK5D0cmTpzIxIkT6dSpE0FBQXz77bf5Krbfu3cPf39/Nm7cyO7du3n8+DEeHh6sWrWKgIAAbb8GDRpw48YNmjRpQtWqVbl69Srt27dnxYoVpKSkMGnSJIKDg2nQoAEVK1bE3t6eyZMnS27hZmFhwdOnT4t8L287MYL+miQmPsX/6GEiw+5rj33YrjV/HvybI0eOEBn5hB9/nFpogQZBEARBEIT/inbt2jFx4kQiIiK0MwpbtGhB+/btdRJ0e3t7bbIKEBwczJ07d4q0xdd7772HpaUlR48epX///hw9epR+/frRunVrZDIZJ06coE6dOoSHh+skS6GhoWg0GpydnfWeOyMjQ7IgVkxMDIDktmaVKlWSPJe5ubnOFH5AW0RL34OA5yFVxK5KlSrs3buXpKQkypUrx4MHD/D09CQ4OJhatWphZWWFkZGRdo17QVO9NRoN48ePZ/Hixdjb21OpUiVMTU21sUu99tmCaXK5HCMjI537DQ8Pp3Pnzi90z4DOdmd5TExMdK4RExNDmTJlKFu2rE4/mUzGO++8k2+9upScnBzta54lVRhuwIABrF27Fj8/P5KSkvLFOWLECO1///TTTzRp0oRBgwYRFRVVYCG9PDVr1tQpVrd582aGDBnCokWL+PHHH7XHn92r29LSkgULFtCkSRO2bt2q82DExcUFLy8v7fdPnjxh6tSpbN26FTMzMz777DOcnJw4f/48ly5domXLljRv3jzfgycDAwPt+yUUToygvyYyYJS7EQsax2m//AbaMKN37h+b69dvcPr06ZINUhAEQRAEoRj9e3T76NGjtGjRAlNTU9q1a8e1a9eIiYnh2LFj+bYt8vX1xdzcPF8xOSkKhYLWrVtz9OhRwsLCuHfvHu3bt8fa2hp3d3eOHj0qOUovl8sxNzfnzp07BAcHS37pq/Kdl1hLjTgnJydLvuZVVmuXIpUgZ2ZmArkFvwC8vLyIiori5s2b3Lx5k4CAAE6cOMGQIUMKPX9AQACLFy/G29ubiIgIzp8/j7+/P76+vnpfU5R7NjQ0JCMjo9B+L3MNExMTMjMzJRNxff9ez8rbn1xqT3F9atWqhVqtJiEhocB+FhYWDB48mOTkZM6fP1/k8//bwIEDsbS01KmdUFBcQKFr5L/77jtat25N165diY2NJSAggG+//RYjIyOaNWtG69at2b9/f77XpaamSj44EaSJBL2YTelRi0Etc5+krlq1ijNnzpRwRIIgCIIgCMWjfv36WFtba5PkvATZw8MDhULBihUriI6OzpeI+/r60rFjxyJv09S2bVsePnzI+vXrMTU11Ra3ateunfbaTk5O1KhRQ/uapk2bkpaWRmpqKtWqVZP80je9vkGDBpiYmOgUwMuTN+X7RclkshcaUT937ly+Y2fPnqVq1araZMnf358PPvhAm6Dl+fdUZ338/f2B3Ir7/54JcPbs2eeO9d+aN2/OmTNnijSK/aJatGiBSqXKd58xMTHcunWrSOfIW3v+7wJ3hbly5QqGhob5Ru6l5O128KJV2NPT08nKyirS669cuQJQ4LaAx44dY//+/Sxbtgz43xT/vAcVef/97MMHtVpNaGiozowYoWAiQS8B679wx/Wd8iiVSrp37/5K1hkJgiAIgiCUdnK5nPfff1+79rV9+/YAlClThqZNm2q3PPv3yHZ0dDRnz57Vu5ZbSt7rFy9ejIeHh7Y4b/v27QkODubgwYP5RukHDhyIQqHgu+++yzcSrlartUmMFDMzM3r06MHvv/+Or68vGo0GjUbD3r17n2sdsRRnZ2dSUlK00+iLavny5Trrfg8fPsyFCxe0BfoAypUrx+3bt3VG2//++2+dYnr6lCtXDoCrV69qj6WlpTFjxoznivNZQ4YMITk5GW9vb531zBqN5pXthpS3Tn38+PFERUUBuaO8X3/9dZHP8cEHHwC5Fc3/TalUcurUKZ3Yc3JyWLlyJYGBgfTs2VOb1GZnZ+Pv759v3fbly5dZt24dLi4uOkUR9+/fz+DBg7l8+bL22KVLl/IlxUqlkokTJ5KVlaVTxf3q1av5ChZGR0czduxYAIYOHSp5r9nZ2YwaNYpJkybh6uoK5O4bbmZmRkhICJD773P37l2dh14A165dIzk5mQ4dOkieW8hPrEF/TZQqFZGRUUSYS1dr92hUg+T0LOLi4ujcuTNnz54VUz8EQRAEQZCk0WiQU/JrOKUKQD2vdu3asW/fPqysrGjUqJH2ePv27Tl9+jSVK1fWJgEAfn5+GBgY4OnpWeRr1K5dG3t7e2JiYnSS/WbNmmFiYkJaWlq+InSVK1dm69atDBo0iEqVKvHRRx9hY2NDVFQUp06donnz5uzbt0/vNZctW8b169fp3r27trp1QkICo0aNYtmyZYUWt9OnT58+LF68mJo1a+Li4oJcLmffvn0FrpUHqFatGtWrV6d3797Exsayd+9eatasqbOmeNSoUXz11Vc0adIEDw8PHj16xJEjR/joo4/466+/Cjx/7969mTJlCj169KB///4YGxuzb98+mjVr9lIVuz/55BNOnjzJggUL8PX1pV27dmRnZ3P69Gn69OnDzJkzX/jceZycnNi4cSNDhgyhcuXK1KpVi9DQUJo2bUrjxo2LtF76nXfeoVmzZvz11186tQxUKhUeHh44OztTp04dDA0NuXLlCo8fP6ZatWrMnz9fp2+bNm1wcHCgbt26mJiYEBoayo0bN7CwsGDNmjXaIoaQm+xu2bKFjz/+WFvVfu/evcybN4969erh7OxMVlYW58+fJykpCU9PTwYPHqx9/R9//MH06dNp0KABTk5OJCcnExAQgFKpZMqUKTr/P/7b0qVLUSqVOvdpamrKp59+yqRJk9BoNFy6dImHDx/mS/L9/PwwMTGha9euhb6nQi6RoL8mKpWSpLR0ktKk/5DFxqbQpUsX9u3bx+3bt+nduzcHDx7MVyxEEARBEATh3q1rcOtaSYfx//TvQ14UXbt2JSoqisqVK+skH/369UOlUuWbbu3r64uHhwe2trZFvoZMJmPBggXcvXuXXr16aY+bmJiwZMkSIiIi+Oijj/K9rm/fvjRr1ozffvuNM2fOEBsbi4ODAz/88INOYd+GDRvi7e2tE5OdnR1Xrlxh//793Lhxg3LlyvHxxx/j4+MDoDOtuUePHtStWzff9V1dXfH29tYp8NaoUSNu3rzJoUOHiI2NRaPRFFg0rF69enh7ezNy5EiOHTvG7t27yczMZPbs2Xz11Vc6Vce//PJLHBwc2LFjByEhIbi4uHDp0iViY2Np0KCBzpr7/v3764zI29raEhgYyMqVK7l27RplypRh3rx59OnTh9mzZ9O6dWtt31q1auHt7S1ZIX3SpEk6W6jJZDLWrFnDoEGD8PHx4d69e5iamtKnTx8+/fRTbb/PPvtM56GHgYEB3t7etGzZMt81evToQf369XWO9e3bl9atW7N9+3ZSU1OpV68enTt3pnr16pIF9qR89tlnDB8+nCdPnmgfmBgZGbFp0yYCAwMJCwsjKyuLNm3a4OnpSZcuXXSKDJqYmLB//35Onz5NcHAwGRkZ1KpVi5EjR9KtW7d8D2FatWqFt7e3zjZtX375JXZ2dly+fJnIyEjkcjmfffYZHTp04MMPP9SZJdKvXz9kMhk3b94kPj4eMzMzJkyYQK9evbTbDT4rPT2dM2fOsHr16nxLTJYsWUKVKlXYsWMH9vb2nDp1Sic2jUbDjh076NWrl2ThPEGaTPMqHoW+QuvXr2fs2LFF2tahpISHh+Pu7s7hcfX09mk29QTzBjfG413pYiIzj6VTuXYTPD096dixI0qlkuHDh7N27dpXFmdSUlKBTwDT09NRKBQFrk0xMjLC3Nz8lcUkCIIgCEJ+qampxMXFUbly5XxtKpXqta7HfV7GxsY6ifXrlJaWRrly5Zg7dy5jxowplmu+Sjk5OTRr1oynT58SHBxc0uEIhQgKCqJRo0YsXLhQuy97QbKzs6lbty6enp7a5RnC//j5+dGrVy9u3LhBtWrVCuyrUqm4e/euTiX6Zw0aNIiLFy9y+/btVx1qqSKGa0tY27ZtWbVqFV988QW//PILlSpV0pl69DJGjRpVYCXKu3fvYmVlhb29vd4+rVu3LtIvKEEQBEEQXg+FQvHWzrAzMjLi3r17RSqqVdLCw8Px9vame/fuvPPOOzx58oQ1a9Zw/vx5li9fXtLhCc9YtWoViYmJtGrVCjMzM86ePcvcuXOxtbWlf//+RTqHkZERK1euZMaMGZJbp73t/Pz8mD59eqHJuaDr7fxtX8oMGzaM+/fvM3fuXCZPnkyFChV01ou8DJduo0lVSE8pSdj0A+XrtaZMg/xTvABsY68BTyXbBEEQBEEQXjdDQ0PJadGlkampKbdu3eK3337TVl13c3Nj1apVfPnllyUcnfAsCwsLfvrpJ7y9vYHcn7VOnToxffr0Qtf3/1u7du3y1TMQcv3yyy8lHcIbSSTopcTs2bN5/PgxW7duZdiwYTg6OvLhhx+WdFiCIAiCIAhCEZQrV44LFy6gVCpJTEzEyMgIKyur177fufBiBg0axKBBg0hJSSE9PR1LS8sC1/YLQnER26yVEjKZjI0bN9K+fXuUSiW9evUiKCiopMMSBEEQBEEQnoOhoSH29vZYW1uL5PwNYGFhgYODg0jOhVJDjKCXIoaGhuzduxcPDw+uXLmCp6cnZ8+excXFpaRDe2GXL18udKsKV1dXbGxsiimi4peens7evXsL7ffhhx8WWA+gICEhIZw/f77APiYmJjoVaJ/XgwcPSExM1NuekJBAZmZmgdPCjI2NqV279gvHIAiCIAiCIAj/ZSJBL2UsLCw4cOAAzZo149GjR3Ts2JGAgIA3ojiKlBkzZmDv6IyBnmqvcdFRjB79NR4eHsUcWfGJjIxk/PjxlHe009snKjYBW1vb59rj9d/27NnDmjWrKWcjXZxEpVaTlJL+Ugn6tm3bCLl3H/MyFpLtt29cJzklmSbNWki2Z2dlYoCGdevWvXAMgiAIgiAIgvBfJhL0UsjJyYlDhw7RokULQkJC6NKlC0ePHn1jp94o3D8mUy693Zzz9d3FHE3J2fiJ/pHl/r++/PY5NVycme8pnaA/SDFi7JbrL3V+jUaDQ/22JNjUkGy3Tv0VeXws2e6DJNutsmJJvrDvpWIQBEEQBEEQhP8ykaCXUjVq1MDPz4927dpx9uxZ+vfvz549e4pt31FBEATh5U2bNo2w8HC97TKgW7dudO3atfiCEgRBEASh1BIJeinWvHlztm3bRu/evfH19eXrr79m9erVJR2WIAiCUERx8fGUrd0KtYWjZHvO/XOkpaUVc1SCIAiCIJRWIkEv5Xr06MHy5cv5+uuvWbNmDTY2NsyePbukwwIgMTGRo0ePFtjnyZMnOKjVIAb+33hhYWHEqGJJNY+QbE95dB+NSl3MUQlC6ZdjZkOSoXQdERtT82KORhAEQRCE0kwk6G+AUaNGERkZyU8//cScOXNQKBTMmDGjpMMiLi6OHTt24lK7kd4+YWFh1FEqwagYAxNei9AHD1BqNFjax0u2x8Y9JjPHsJijEgRBEN52mZmZXLx4EVdX1wJ3EnndQkNDSU9Px83NrcRiKI3i4+O5d+8e7u7uGBiIHZ4FoTD5EnSNRsPu3buZNWsWISEh2NjY8PXXXzNmzBjMzYv2pP/PP/9kxYoVBAQEkJ2dTfXq1enbty/jx4/HyEhkai9i1qxZZGVlsXDhQmbOnIlCoeDHH38s0ZhycnIwMTUlxrl5Ab2WgUZTbDEJr1cbF2N6Vo+TbFuRbIT/I/FvLQiC8KoFBQUVabvO4tKvX79StWXmkydPaNWqFT///DNff/11icSQnJxM8+bNmTBhgjZBT09PZ/r06Vy4cIH79++TkZFB+fLl+eijj/juu+/y7dCTmZnJ0qVL2bdvH6GhoZiZmdGmTRu++eYgqhRpAAAgAElEQVQbGjZsWGgMx44dY8OGDdy4cYOoqCgUCgWNGzdm6NChdOvWLV//S5cusWzZMvz9/cnMzMTFxYWePXsyZswYjI2Ntf0ePXrEuHHjOH36NFWqVOGnn36iTZs2OueKj4/H3d2dxYsX0717d502jUZD+/btWblyJYMHDy7yeyoIb6t8CfrSpUsZN24crVq1Yvny5QQFBeHt7c2pU6c4cOAAMpmswBPu37+fHj16ULVqVWbMmIGJiQmHDh1i8uTJ3L59my1btry2m/mvW7BgASqViqVLlzJ16lQMDQ2ZNGlSicUTFhaGv/8JZDdC9fZJTEwkMy0F4zJv5jZxgiAIglDSEhISSEmIoVdt6R1RitOOKyk8ffq0pMPQYWJiwvvvv0/58uVLLIZZs2ZhYGDAyJEjtcdSUlJYs2YNzZs3p1evXsjlcm7evMmcOXPYtWsXV69e1Rn86t27N3/99Rfdu3enV69ePH36lDVr1rBjxw7Onj1LgwYNCozBz8+Py5cv07hxY5ycnEhJSWHfvn3s37+fpUuXMmbMGG3fCxcu0LJlSywsLBgxYgRWVlacPn2aiRMnEhAQwP79+4Hc5Lpnz55YW1tz8OBBduzYgaenJyEhIVSoUEF7Pi8vLypWrCj5IKBcuXKMHTuWiRMn0rNnT8qUKfPC77MgvA10EvS4uDi8vb1p3rw5J06c0E5DqVixIpMnT8bX1zffU7FnLVq0CHNzc06fPo29vT0AI0aMoHPnzvz222/MmzevRKcfvemWLFmCSqVixYoVeHl5oVAomDBhQonFY25qwpZ+0vtiA3hMK/iBjiAIgiAIhStrZY6H9ZOSDoNDlg4lHUI+zs7OHDt2rMSun56ezpo1axg5ciQmJiba4+XKlSM2Njbf7NGffvoJb29vNm/ezFdffQXA1atX+euvvxg8eDA+Pj7avv369aNevXosXry40EGu2bNns2TJknzXqlWrFjNmzGDUqFEoFLkf/ZcsWUJ2djYnT56kVq1aAEyYMIEBAwawfft2bt68iZubG3fu3CEoKIhLly7RsGFD6tati4+PD3v27NEm/OfPn+fXX38lKChI70De559/zsyZM9m1axefffZZUd5WQXhr6SToJ0+eJD09nVGjRumsEfnqq6+YPHmy9qleQWJjY3F0dNQm5wAymYx69epx4MAB4uPjRYL+kn7++WdUKhVr1qzh+++/R6FQMHbs2BKLx0gmCoOVdmqVkuTkZObNm6e3j0wmY9iwYdja2hZjZIIglLQ///yTmzdvFtinRo0akiNjgvC8fv75ZwAGDx7MggULCAgIwMTEhAEDBvDJJ5/oJHghISH8/vvvXLx4kbi4OKytrenatSsDBgzAzOx/swni4+OZO3cu3bt3p0WLFly7do0tW7YwePBg6tSpo3P9nJwcpkyZQrVq1RgyZIj2+K1bt/jll1+4cuUKCoUCT09PPv30U2xsbAq9p/3795OSkkLv3r11jsvlcsntcbt164a3tzePHz/WHnvyJPfhi7u7u07funXrYmpqSkSEdIHWfzM1Nc13zMrKivfff5/ffvuNjIwMLCxyB1UiIiIwNzfXJueQ+zmgadOmbN++nYiICNzc3LQx5s1OUCgUODo6ao+r1WpGjhzJ6NGjC1z2UKlSJZo2bcrGjRtFgi4IhdCp1BAQEABA/fr1dTrZ2NhQuXJlzpw5U+gJGzduTEREBA8fPtQeU6vVBAQEYGdnh4uLy6uI+623atUqhg0bBsC4ceO0f/AEQUpOTg5ZWVnEKez0fp2/cEFs9yQIb6E7d+7wOCFN7++Gx4nphSbwglBU27ZtY82aNTRt2pSjR49StWpVwsLCGDhwIPPnz9fpO336dH799Vesra1p2LAhcrmcESNG0KFDB7Kzs7X9kpKSWLhwIZcvXwagQoUKLF++nOXLl+e7/smTJ5k9ezZKpVJ7bOPGjdSuXRs/Pz/c3Nxwdnbmxx9/pEmTJsTFSddd+bc///wTGxubIq0TBzh8+DCQ+5k5T61atTA0NNTeQ55bt26RkZFR5HM/KzU1ldOnT1OjRg2dqeX169cnLS2NkJAQnf4XL17E2NhYm7g7OTkBEB0dDeR+noiNjdUeX7duHZGRkUybNq3QWNq3b09AQADx8dLFZgVByKUzgn7//n0AXF1d83V0dXXl5MmThZ5wyZIlPHjwgKZNmzJkyBCMjY05evQoISEh7N69W3LdSUREhPbJ4MOHD9GIomKFkslk/PLLL6jVan799Ve++eYbFAqFdqrU2yI1NZXQUP1r4PO4ubm9cOXQyMjIQv9Am5ubS/5/U5rIZDISytXR226o+KcYoxEEoTQxtntH7+8HW5kBZJb81Grhv+PWrVvMnz9fu0RPqVTStGlTfv75Z77//nvtKPrcuXOpUKGCzqj677//zscff8zhw4fp0qWL5PltbW3p1q0bO3fuZNmyZTqj7Zs2bcLU1JQ+ffoAuZXXR4wYQe/evdm2bZt2CvikSZNo1KgRs2fPZvHixQXez7Fjx2jSpInezxnBwcFs3ryZ7OxsgoODOXLkCF5eXnTt2lXbp1KlSqxdu5Yvv/yStLQ0mjRpQlJSEqtWraJ169ZMnTq1sLdVa926dYSGhpKamsr+/fsxMjJi9+7dOu/jjBkzCAoKwsPDg6+++gpLS0sCAgL4448/2LBhg3Z9uZubG25ubkyaNIkFCxawZ88eEhIS6NmzJ7GxsXh5ebFq1SrtyHxBmjZtikaj4cSJE/Tq1avI9yMIbxudBD0rKwtAstK6sbExKpUKjUZTYKE4CwsLOnXqxLx581i9ejVmZmZER0fTp08fKlWqJPmav/76i/Xr1wO5U+RzcnJe+IbeJjKZjPXr16NSqdiyZYt2bdEXX3xR0qEVm3v37jFz5kxsy9np7RP1JILff/9dZ13Y8/Dz8+P4iROUsbCUbM/KzKS8sxNz5sx5ofMLgiAIwtvE2tqab7/9Vvu9oaEhffr0YdKkSYSHh/POO+8AuTWQILdQWWZmJmq1mo4dO2Jtbc2BAwf0JugAQ4cO5ffff2f//v188sknQO5D/d27d9OzZ0+srKwA2LlzJyqVivnz52uTc4CaNWvSpUsXfv/99wIT9JycHKKjoylXrpzePhEREWzZsgWlUklUVBRVq1alXr16+T5Pt23bFk9PT3bu3Imfnx+ZmZk4ODgwaNCg5yqsdvjwYQIDA0lMTCQjI4OBAwfmm6pvaWnJ8OHDGT9+PDNnzsTY2Jj09HR69uxJs2bNtP1kMhn79u3jm2++oVmzZri4uLBnzx4qV67M559/ToMGDejbty8PHz5k6dKlPHz4EA8Pj3zr8QHtexQZGVnkexGEt5FOgp6XmKtUqnxJulKpRKFQFFrF/auvvmLTpk1s3LiRAQMGoFAouHbtGj169MDDw4Pr169rfynmGT58OMOHDwdg/fr1Jbqe+k1jYGDAr7/+ikqlYvv27YwYMQKFQsGnn35a0qEVGzsHJ5RNhki2KVDD7p9e+hrOtZvytHwzyTb7lAcQceWlryEIgiAIb4OqVatiaGiocyzvs2FGRob2WHh4OJMnT+bw4cPExMTo9E9ISCjwGh9++CGOjo5s2rRJm6Dv2bOHtLQ0hg4dqu136tQp5HI5Xl5e+c5x7do1Hj9+THZ2tt5tgjMzMwEKHARo27YtYWFhADx+/JixY8fSt29fDAwMtOvWIyMjcXd3x87OjkuXLtGgQQOSk5NZuHAhw4YNIyEhochFgXfv3g3kfp4/ePAggwcP5vz581y7dk37vs+ZM4fJkyfz448/Mm7cOCwtLQkKCmLgwIG0bNmSK1eu4OCQWxCwatWqHDx4UOcaAQEBbN26lStXrpCYmEjz5s1xd3enQ4cOLFy4kEuXLvHbb7/pvCZvjXxqamqR7kMQXpWoqCiCgoIwMjKiffv2kn0ePnzIrl27yMzMpHHjxnTo0EFv3hsWFsbOnTvJyMjA3d2djh07FpojPw+dBD1vOktYWBhVqlTR6fjo0SOd7RSkJCYm4uPjQ6dOnXQKb9StW5dp06YxePBg9u7d+1Ylj8VBLpezZcsW1Go1u3btYtiwYZJFSYS3V1JaNtlZWQT46B/lV4VfJzY2VjtiIQiCIPy35I1EF8bY2PiFl4UVhdS5n/1wq1KpaNOmDUqlktmzZ1OnTh3MzMwwMDCgdevWhS6HVCgUDBo0iIULF/L48WMqVKiAj48PFStW5P3339f2y8rKwsjISKe4cZ4OHTrQoUOHAq+Tl5gX5X2F3M/aGzZs4MCBA6xZs0aboPv4+BAbG8uWLVu0682trKyYMWMGvr6+zJ8/n3Hjxj3X5zuFQkGXLl0YP3483t7e+Pv70759e9RqNYsWLaJ+/fpMnz5d279Ro0YsWrSITp06sXnzZr0PBFQqFSNHjmTs2LHUrFmT9evXk5mZyfbt2zEzM+Pdd9/lo48+YvHixdokH/738EVssyYUp5ycHD755BOOHz+u3VnhWXPmzGHq1KmYmZlhbW3N1KlTadWqFX5+fvkGlufPn8+UKVMwNTXV9m3ZsiV+fn5YW1u/kph1EvRmzZqxcuVKrl+/rpOgp6Wlcf/+fe0TSH1iY2NRq9WSU9krV64M/K9KpfBqyeVyfvvtN1QqlfYhSLNmzRC7jwsAqv9fNvKNu6HePvPuZ+sUzREEQRD+ezQaDQYK6dFggBxVtt624nT8+HEePHjArl27tOvFIXf0NSkpqUjnGDJkCAsWLGDr1q3079+f48ePM3nyZJ0kt0KFCiiVSqZNm/ZCH64NDAxwcHAoUjG5PJaWltja2moLrwHaEfaqVavq9JXJZFSrVo3r16+TkZHxQsltXoHmvOulpaWRkJBAu3bt8vWtVq0akDswp8/q1atJSEhgypQpANy8eRMXFxftWn83Nzc0Gg23bt3SSdDz3qO8AnOCUBzWrVtHUFAQrq6uJCcn52s/ceIEXl5e9OzZk19//RULCwt27NjBgAEDGDt2LBs3btT2PXXqFBMnTqRbt25s3rwZS0tLdu7cSf/+/fnmm2/YvHnzK4lZ5xFm69atkcvlOoEAbNmyhZycnHxTAg4dOsTZs2e135cvX54yZcpw/Phx1Gp1vr6Qu1WL8HooFAp27NhBt27dyMnJISAggNO71xEW5C/5lRAXR1ry05IOWyguMmhe9qner1c5NUcQBEEovTTI9H6VFnnToJ8tPrZz584iP0x2c3PD3d2dTZs2aT84/3uGJ+TuM65SqVi7dq3kOYpSuLht27YEBgbmq6H07GfhPOfOnePx48c6ldnfffddIDcB+LesrCzOnDmDk5OTTrG7S5cu5av4LnU9jUbDrl27AGjQoAGQO4Jtb2/PuXPn8r2Xx48fB8g3kzZPVFQU3t7eLFmyBHNzcyD3gcO/p63n7Qhjaalbu+fcuXPIZDLatGkjeW5BeNXCwsKYMGECCxculJwlA7By5UqMjIxYs2YNlpaWyGQy+vfvT69evfDx8dF5ILhy5UoMDQ1Zu3at9ue7b9++9O3bly1btpCYmPhK4tZJ0CtUqMD48eP5888/GTRoEP/88492Sk2jRo0YMGCAzos9PT0ZM2aM9ntzc3OGDRvGzZs36dy5M3v37uWff/5h/PjxzJ07F1dXV52KlcKrZ2hoyK5du+jUqRMajYbLh3cTe+EPDJ5czveVFB9DckL+aR6CIAiCIAglqVWrVhgZGTFhwgROnTpFcHAwixcvxsvLSydRLczQoUMJDg5m4cKFtGjRIt8I9QcffMCHH36Il5cXY8eO5ezZs9y+fZtjx44xZcoURo8eXeg1OnfuTGJiIkFBQTrHlyxZQr9+/Vi3bh2HDh3C19cXLy8vOnbsiImJCePHj9f2HThwIBYWFowZM4bly5dz6dIlDhw4gKenJ1FRUYwaNUpnaYCnpyc9evTQuV7jxo2ZPHkye/fu5fDhw2zYsAFPT098fX3p2bOndus0AwMDvvzyS8LDw+natSuHDh3i0qVLLF68mLFjx2JlZcXAgQMl7/X777+nWbNm9OzZUyeWkJAQjhw5gkajYcWKFZQvX177QCDPP//8Q/PmzSlbVszvFF4/jUbDiBEjaNSoEZ9//rnePgEBAdSrVw87O92C0+3atSMnJ4dz585pjwUEBFCnTh2dmSGQ+5AO0Bm4fhmKZw/MmjULOzs75s6dy9atW1EoFAwbNoxp06bpVLeE3Ckzzs7OOscWLFiAjY0Nmzdv1m6hYGVlRf/+/Zk3b16+oiDCq2dkZMSePXuwsbEhIyODm+dPM3RAPd53031yNOS6/ilubwqNRkNOjpoclfTT9BzUqFQqsrOzC1xPZ2hoKEaQ/wPUarXeEYs8BgYG+X6XCYIglHahT+JYblpwLaDC5OTkkJKSgsyogAQ3OwPzMuZ61zpHxERLHi8qS0tLyVFpY2NjbG1ttX+ry5Urx9atWxkzZgweHh5A7vTvbdu28c033+hM9TYwMMDGxgZjY+N85+3Xrx8zZsxAqVRKfkiXy+X4+voya9YsfHx8WLp0qbatSpUqTJw4sdB76tGjB1ZWVuzevZv33ntPe7xGjRps2LCBnTt3ao+ZmprSpk0bZs6cSZ06/9va0MHBgRMnTjBu3DjGjRun/VtWsWJFZs2axaRJk3SuaW1tna8wXZUqVVi5cqXOiF+VKlWYPHky3t7eOn1//PFHZDIZGzZs4KOPPgJyZ2J6eHiwePFiyar0J0+eZNeuXVy/fl3nM1OTJk2YOXMmPXr0QC6XY2VlxbZt23Q+dz169Ihz586xYcOGQt9PQXgVNm/ezPHjx/P9vP5bVFQUT5484YMPPsjX5ubmBsCFCxfo0KEDMTExhIeH07p16wL7enp6vnTs+T6lKhQKvvvuO8aMGUNSUhLm5uZ6K1Pm7Zv+7Ot//PFHpkyZwtOnT1GpVNjY2IgPxMXM2NgYBwd7LGXpXAuNZcJvV1k0qD6ta+rfjuxNFBISwpFDh8gJvCHZLsvJITr4En379i3wZ3DatGk0atTodYUpFJNt27Zpp/Lp4+rqyrJly4opIkEQhJdXpUoVOnXp9tLnUavVGMbFYWCmf621JjMZG2trvQMqzrX+V1foRRw+fFjy+KeffpqviHCfPn3o2bMnDx8+xNjYmPLlyyOTybh586ZOv8qVK+ut6m5ra0tUVFSBMZmYmDBr1ixmzJihrdpub2+fb4q2PqampowcORIfHx+mTp2qrVbeuXNnOnfuTFpaGpGRkRgYGODs7Kz3c3XDhg05ceIEycnJxMTEYGxsnG8f+DzBwcH5ju3cuRONRkNUVBSpqamUKVNG73pvuVzOtGnTmDp1KuHh4UW65+rVqxMSEqLdBu/fvL29+eabb4iJiaFy5cr5PnNt2LABZ2dn+vbtq/f8glAUERER2hFrOzs7nQdgeSIjI/n222+ZNm1avlkz/5a3Jv3ZbQj/fSyvT0F9bW1tdfq8LL0Zi0KheKkpKDKZTPIGhOIjk8mY+PF7LNsdyPn7CYzfcpUlg+vTsob+vTrfRDaW5iz/2EqyLVuZQ6fZULHbWOSm0n90NOe3vs7whGJWtVErMlw8JNvMUx+THXJKsk0QBKG0qly58kslxXlUKhVhYWHIrRz09slJicXZyUlyNLokyOVy7frs183AwEAy+SwKLy8vfHx8WLlypc7UdchdAqpvTbcUS0vLIj8ceJZMJnuuImwymazI9/zstN5n6Ys7NjaWJUuWsHr1au26dUF4Uba2ttoZIVIPuzQaDV999RWVKlXiu+++K/BcBdWYyHswlldboij1KJ6tQ/GixLD2f5yRQs7yTxswamMQlx4kMnbzFeYPqJtvuruU6IhHhDy4qndqeHBw8Ct7UvSyLOXSU9wz/7/gjUpmiBrp6XpGYmr7f4qBXE62nn9rcwOx/aBQuoSF3iP67rUCR/gqVaqks95TEITSp0yZMpw9e1ZnH3chl1wux9/fP9+adEF4EaamptoRdCm+vr74+vry999/awsWQu4DypycHJ4+fYpCoaBMmTLaIpRSO0M8fZpbSDuvz/P0fVkiQX8LmBjKWfFpQ0b/epmLDxIYv/Uqs/vVKfR1KU8TiUlIIlIt/cMWl1H0fT8FQRCE/BLjYpHJDPT+ns1KeEJCwmWRoAvCG+BFR9//62xtbbVTgAXhdbt16xaA5LpyyJ2i3qFDBw4dOoSzszN2dnbcvn1b73ny6ko4ODjg6OhYYN9XtVxWJOilVFJSEpGRkXrblUolT548kdxzPk+2UomG3OkYpkZyVn7WkG83X+ZsSDyTdlzHsZw1itRkkiIfSr4+JSkRuYkZ8Xb1JNs1ZWOe447+u7KzMkiOj+fOnTuS7eHh4YUWLvsvyFKqyc5S6v15UmcnkpGSUsxRCaVVQkICMTEF/w4xMjLC1dW1mCIqOSZ2FfT+nrU1NoeYW8UckSAIgiC8mbp27SqZH02dOpXo6GjWrFmjXQYik8lo3rw5R44cITExUWd5tr+/PwDNmjXT6fvXX38RHx+vsxT85MmTADRv3vyV3INI0Eup8+fP5+6xZy1dyCUlOYWAM6fp8P+VN6UkJiSSo1Jpvzc2NGDZkAZ8/9tVTtyK5UlMIqlBZ8hQSa+pSA2/g5GxMdVf7lb+82IfP+LyyZOo9Kw7SXqaRMpbkJhGJqSSEJvA7UNbJNsNstNQJkQUc1RCaXX8+HF27NiBhZV0/QilUompsTG//PJLMUcmCIIgCMKbqnbt2tSuXTvf8RUrVpCUlJRv2/Dhw4fj6+vLt99+y9q1azExMeHgwYPs2LGDPn366Mz+GD58OHv37mXMmDGsW7cOU1NTDh8+zNatW+nZs2e+rdpelEjQS7GKVWqQXFO6aqtF7APkgeeQtRqh9/UGO3fkO2akMGDhwPpM2nGNv69Fk5wYTyfLuwxomX9a1qqTFhx7kP3iN/AWsbApp/ffwizqLvzpV8wRlQyXssZs9sySbLsab8Zs32IOSCjVKtVqQKKr9BS0clkxpF4UPzCCIAiCILw+np6e/PDDD8ybN49//vkHOzs7rl69Sv369Vm1apVO3w4dOuDl5cXcuXM5duwY9vb2XL16lbp167J69epXFpNI0N9CCrmMef3rcjrYn4ysbBb43SFTqebz911KOrRXTqXWoFKpCNyxHBTSW8YYRAfTrk1rsc2a8J+xZcsWAs+fL7BP/Xr1GDZsWDFFJAglb/To0RRUg1cGfPHFF9StW7e4QtK9vkz2yioAC4IgvGk0Go3ewtSvwqxZs0hNTZVsmzNnDoMHD2b79u1kZWUxefJkevXqJRnPTz/9xKBBg9i2bRuZmZl4eXnRu3fvVxq7SNDfUgYGMqwtzKhkZ86dx4n8fOgumUo1oz4s+jYgbwINGjQaDUPrGmBkJF2tfcNBpSh2J/ynxMbGYli2IgaO1fR0eEB0dHTxBiUIJUij0fDw4UOqdxyERm4k2Sfp8mHS09OLObL/MTIyIjs7G7VajVwudpwQBOHtkp6e/lq3d2zXrl2B7TVr1mTGjBlFOleNGjWK3PdFiAS9hGRkpPPgwQMOHDgg2X758mViYmIwqfl642hVy5mGlSzYdiaMdUcfkKXMYVwnPR/q32DN7VIpI/2ZjM0K8UFI+O9RlLElwbS8ZJutRTKkhb/U+f/++2+USuntDfPUrVuXChUqvNR1BOFVSjcvT5ZM+o+BqalZMUejy9DQEEtLS8LDw7G3t8fISM8frZeQnZ1NcnIyCiPp+jYAOSkpKMuVEw8JBEEoFhqNhvT0dKKjo3F0dCzpcEoFkaCXkJSkJMKTQjl6Rnoa6p3rV0hMSaNm69cfy/dda2BsKOfXE6FsPvmQpHQlU3vVev0XFgThjbVhwwYcKrqi0JNERIc9wNDQUCTogvAcHB0diYuL48mTJ6hUKjSagiblPz+VSkVERATyVJXePjkpseSo1a91JEsQBCGPTCbD2NgYJyenV7aP+JtOJOglyNTuHZ5W6yTZZpaQQeKdoGKLZcxHVTE3VrDi8F18L0bwNC2bdyv9/+ibvg8IRf3coNHoP4cgCG8sTY12PFVYSrbZ5/xRzNEIwpvPwMAAe3t77O3tX8v5Y2JimD59OlZdJurtk31sB9OnTn0rtjgUBEEojUSCLmgNa+uCbRkjZu27hf/tWK6Gp5CtUfD3su8k+6uSYsnMyCjwnEqlkhM+8zEwNpVsVyRHUqVSBTw8PF46fkEQBEEQBEEQhDeZSNAFHT0bl8fG3JAftl3jaWomxoYKFrQ3pZylSb6+x++oWbwntNBzzvUsi5OV9FS5H/8suYI8giAIgiAIgiAIpYlI0N9Q2ZnppKakcPvo73r7KJUq1GoV8HyFXt53s2fVsEaMWHeJLKWKb9efYs2wRlS2M9fpZ17Enx4rIzXljKX3xjaQSVdWf5OkJiUQEx2p999ClRyLWq0u5qiEF6FSqVi7dm2h/bp27UrFihWLISJBEARBEAThbSIS9DeUKiuTrKwsahs+1tvnglpNjlrN8yboAI1cbHCvUZ4LdyKIeprJ0NXnWfFpQ2pXtHqJqP+bMtJSyU5P1ftvkWyQyCWxt+0bQaVScejQIao174DMQPr/m6gbZ2nevLlI0AVBEARBEIRXTiTobzCZDEZVj9fbvuklB6ctTI1wdbImMzOTsLh0vvjlIosG1ad5tbIvd+JSRqVSERsby4MHDyTb4+LiyMo0LPAcZsZyvf8WIbFK9M9zEEqjVKf3UMmkE/QyYTeLORpBEARBEAThbSESdKFARgo5a0c2ZtSGIG5FJPPNpiBmflybj+o7lXRor0x8XCy//76boCtXJNtv3biBk1tTHN4t5sAEQRAEQRAEQXiriARdKJSNuRHrv3Rn7OYrBN6Nx2vHdRJSldjY2JR0aK+Mbb33MWraTbKt7NP5xRyNIAiCIAiCIAhvI5GgC0ViZiRnxacN8N55g8NXo1jgd4fWtcuXdFiCIAglJisrCy8vL649SMIAACAASURBVECjt8+Z06dpYF8L2TvOxReYIAiCIAhvLJGgC0VmKDdgTv862JgbsSMgDP8bEcjlBuTkaDAwePOrsQuCIDwPtVpNSEgIkzu5IDeQ7nP4UCaq7GwKrmIhCIIgCIKQSyToJSQ9M5u0hFie3Dwv3f74EWmpKcUcVeEMZDJ+6FaDsmWMWHnkHmp1DuO2XGHeJ/UwNtTzCVV4abdu3eLJkyd62+/fv09GRiYgquy/bjHR0QQGBhIfr79Ao6urK66ursUYlVCSGlnGY4hKss1I8fy7aAiCIAiC8PYSCXoJSUzNIDs9grTgM5Lt8Y9uk5KSWsxRFd0X7VyJSM5h/7kHnLgVy5frL7J8aEMsTMWP1Otw5MgRrt+8g2XZcpLt167fICspCXAo3sDeQnfv3kVuZELwQ+lt9eKjIujwQXuRoAuCIAiCIAjPTWRTJahFJSMmtZAehduiMGZXUOlN0AEaV3PgwKUw0ORw+eFTPltznlWfN8LO0rikQ/tPsq3WiAT7+pJtJjfukpUUXcwRva00mLu1IblCXclWB3P/Yo5HEARBEARB+K8QCbrwUuQGBqwY2oAxPpe5G5XK4FXnWf15QyrbmZd0aMJb6OzZs/x94hRKUz/JdkN1JhZyZTFHJQiCIAiv3ujRo3n8WHo2V56BAwfSq1evYopIEIRXQSTowktr5GrDxi/dGbkhiMjEDAavPM/iwfV4z9W2pEMT3jI5OTk0qGzLkKbWku1Xo9TsCggv5qgEQRAE4dVTqlRUad+fDDPp5W1G9/xRq9XFHJUgCC9LJOilVEJKJqkpyQSf2CfZnhXzCLVKuihRSajmZIHPyMZ8vTGI0Ng0vlx/iam93Eo6LOEtZKKACiYZkm2PjI2KORpBn0ePHnEt6ALpYdJLeUxUKWgiHxR4jvXr15OTk1Ngnw8++AAXF5cXjlMQBKE0U8tNyTAwk2wzNRJLDgXhTSQS9FIqJSMbmTqLKpqHku1x6iiulrKnouVtTdk8qgnfbbnC+fsJTNl1A5lMVsAOwYIgvK0iIyNJjg6nRllTyfa09FRuREQUeI4//viDqu5tQC69iVlsyCVq164tEnRBEARBEEo1jUZDTEwMNjY2IkEvzSyM5YytJV1ELtBMxZGjxRxQEViYKlj1eSNm7r2F78UINBoNC31vsHBAHYwVYhs2QSgNlNlZJCUlER6uf7q/XC7H2dn5tcZR3tZE7++4oGhDrlxTFhhjRkYGGeXfI0suneRbx4W9kjj10Wg0uTFkGKLSs82aUqksdJRfEARBEIS3Q3p6Ot9++y1DhgyhRYsWAISEhNC1a1eCg4NxcHAQCbrw6inkMqb3caNiWTNWHL7LqVvRDP8li6VD6mNjLqYYC0JJe/wghFsn/yI8XLq4UE6OGkNDQ7Zu3VrMkf1PdlY60VHRfP/9RL19rl+/TuU+StCToL9uGRkZ3Lhxgxs3rDCRS88VioqKxiU5Gbtijk0QBEEQhNLn7NmzrFu3junTp2uPffnll4SHhzN+/HgCAwNFgi68PsPaurDq7/soDODqo6cMWhHIz581xEVUeBeEEleufGXMOo6VbCujekr8cZ9ijig/ucJQb4wAHD9WfMEUQGH/LnK59JIjhUJ6hoAgCIIgCG+f4OBgypcvj5OTEwDx8fGcOHGCGTNm4O3tTVJSkkjQhddLJpMx65MGzNlzjccJGQxeGcjCAfVoUrVsSYcmCKVScnIyc+bMKbTfqFGjqFChQjFEJAgvb/r06WRmZhbYp3fv3jRq1KiYIhIEQRCE4peeno6JiYn2+5MnT6LRaOjUqRMAVlZWIkEXXr8a5a3Y+nUTvv41iNCYNL7aEMTwdq4Mb+9a0qEJQqmjVCq5ffs2VT/4RG+fiABf0tPTizEqQXg5t27dolKTjmiMpWdQJd88xdOnT4s5KkEQBEEoXg4ODkRGRpKSkoKFhQVHjhzBysqKunXravuIBF0oFuVtTdk8sgmTd17n5O1Y1vxzn6DQRLKMy3Hv3j38/f31vtbZ2ZmqVasWY7S6MtJSSclUobkTJNmeGBOJWll6trwTXlxOTg7x8fHIgi+jRrqoYVpaGtkZ6bzoqufY2Fhu3bqltz05OZmEhAQSyuivPG4kts55YyhVKuIjHqIuo+f3R3wcmNkUc1QlI9O6EmlyC8k2ZdZRrl27hkIh/bEkJiaGrKwsKlasqPf8ZmZmuLu7v5JYBUEQBOF1aNeuHUqlkj59+uDu7s6GDRvo06cPcrkcgLi4OJGgC8XHwlTBsiEN2HzqIcsP3uX8/QTk8qeoDI6DoXS68zQ+hmZNGpdogh4fF0NmehoYSidFiRH3ycyU3ndbeLNkZ2fz4MEDsD2ORk+CnhAXR+rTuBdO0O/cucPq1WtwqFBJsj0tLYV79+5Rcj/xwquUmZlNQuh1crKlf0fERDxCY2zOO8UcV2lzN/gOcTGRPIyIlmy/FnSB1NRUmnu8L9melZkOqmyRoAuCIAilmrOzMxs3bmTcuHEcPnwYd3d3Fi1apG3fuXOndIJ+/vx5Zs2aRUhICDY2NowePZp+/fphYFD0bbJCQ0NZtGgR/v7+KJVKXFxc6Nu3L0OHDn35OxPeWDIZDPGoTINK1ny/7RpRTzO5dfMGRlWaUr/b58hkuj9j5Z4EllCkutzfMcXLI1GybZnSiANxxRyQ8Fotbp6GqUJ6VsRHF17+uaZDhXdIrdNLsk2WHA2++176GkLp8Wl9QzrUlP79MSHaBFFGLpdVjRak1m4r2WYRlYA8NVnv/zfWWdGkBv35OsMTBEEQhFdi4MCB9OvXj4yMDCwsdGeW9erVK3+Cvm3bNgYMGEC1atX4+OOPCQoKYsCAARw+fBgfn6JV9f3999/p378/ZmZmdO3alTJlynDnzh02bdokEnQBgLqVrNk5phme8wNIy8ji8v51RAVfps2XMzG1Kt4Ccsmp6QT9vReTS+ck2+MfheJqZAXYv7YYoqNjmDNnDps2bZJsvxsSgkuDltjY139tMcTHx+Pl5UXZstLv/42bN6lnVxUwe20xCIJQ/M6cOcPtB+FkG1tLthtlJ/NuebFRnPDm2LdvH9u3b9fbnpycTGhoKPXq1SvwPBs3bqRMmTKvOjxBEAQUCgUWFhZoNBpycnK0U9wdHR11E/Tk5GRGjx5N7dq1OX/+PKampmg0GsaNG8fSpUsZMmQIbdtKP93OExISwpAhQ2jevDl+fn5YWVlp21JTU1/D7QlvKiszQ5zsbJGVc+X+1UAib19k/5QBtPlqFk413yu+QDQa+jawolUtS8nmSdFGoJHe4/jVhaBhZMtytKlpJdn+7U5rsnKkt3F6ZTGgwal5N2xdaku2GwWef91vgyAIJUClUvF+DVs+qCGdiJy4Kyc4TlnMUQnCi1MqlVSoWhvVuy0l283vXeJRuA+OHb+UbJdp4MH+JWjEHz1BEF6DnJwcNmzYwKZNmwgMDKRChQo8fPgQ+D/27js8qjJ74Ph3ZjLpPZCQQiCEJoQoUgMiRZciRV1WFNEVUdeGFfvaUVFRQZSfoICLgouyIoiIBaRIS+iQhBAIaZBeJ8n08vsjS9aYOyG0SQjn8zx5HjLnzJ2TkEzmzH3veeHLL7+s36D//vvvlJWVMXv2bLy8aq+wVKlUPPPMM8ydO5dVq1adsUFfuHAhBoOBJUuW1GvOAXkXUiiKvuIquo29h83/9wLVpQX8NHs6fW95mF5j7nRZDW287MT61CjG3DUuqsHTRribTjHm6abC5IIarG7eToc4qc7iEhfhXEFBAanJhzFVOBn0ZtBhMMhMA+Fafu44fQ7c56ECpFERlxaNuyeVTv6e2bVeqNVqp3/v1Cr5eRfiUma320lNTSUlJYWioiLc3d1JSEigV69eqFQqxfuUlJSwZs0ajEYj/fv3b3SmSWlpKWvWrMFgMNCvXz/69+9/VvU9/PDDLFiwgAEDBnD99deTlpZWF+vWrVv9Bn3Hjh0ADfYhDQ8PJyIigu3bt5/xAX/44Qfi4uKIjY1l586dZGVlERERwZAhQ87qGnZxeQmNjePG15exZeErnDy0nd1ff0RpdjrjxoxENhsQrUlRURGFp3KIb6u8WsJkrGH3GfaLFkIIIYQQyu6//34WLVrU4Pb+/fuzatUqIiMj692+cOFCnn76aQwGA56enlRXV3PzzTezbNkyvL3rX9r52Wef8dRTT9XtZ15dXc2NN97I8uXL8fFR3kr0j06cOMGCBQv44IMPeOKJJ/j666959tln6+J9+/atP6b4yJEjAIoTs7t27dro1kAAZWVlpKen06VLF4YNG8agQYO4/fbbGTZsGLGxsSQmKg/8qqmpobCwkMLCQnQ65TOIovXz8PHnL0+8z5Xj7waVihO7fubfC+ZQWiojlETrEuDjydO9yhQ/7u7hirUSQgghhBCt08iRI/n+++85deoUVquV0tJSZs6cSVJSEo8//ni93KSkJB588EEGDBjAqVOnqKys5KOPPuK7776r1zgD7NmzhwceeIC+ffty8uRJdDod8+fPZ82aNTz99NNNqu3HH38kKCiI6dOnK8bVanX9Bt1kqn1h6Onp2SDZy8sLs9nc6PU4p68xX716NTU1NRw8eBCr1cq6devQ6XSMHTuWqqqqBvebP38+8fHxxMfH8+qrr2KzXdxrbUXLpVKp6TPxQUY8PAutpzfF+SeZNWsWv/32W3OXJoQQQgghhGjhbrnlFsaPH09ERAQajYbg4GBefPFF+vfvz+rVq+v1s3PnzkWj0fCvf/2L0NBQ1Go106dPZ9y4cSxYsKDeDLUPP/wQlUrF559/TlhYGCqVioceeoibbrqJhQsXNulEs8ViwcfHB61Wqxh3OP600a+bW+1SYqUG2WazodFonK7b/+P9HQ4HX3zxBfHx8Wg0Gm644QZmzpxJaWkpq1evbnC/Z555pu4M+gcffFA3xU5cvjr2HcG4l5YQGNyGmpoaRo4cyZw5c5q7LCGEEEIIIcQlSK1W4+vrW6+f3b59O/Hx8Q2WvY8ePRqr1UpSUlK93Li4OKKjo+vljho1Crvdzq5dyjtC/VF8fDwnT57k0KFDivHt27fXv7g3LCwMgLy8PDp06FAv+eTJk3VxZ4KDg9FqtQQGBtKjR496sWHDhgGwd+9e7rzTdcO/xKUrKLITtz/8NJu/XUpqaipPPvkk+/bt49NPP60bYthamM1mjmccJ9rurhjPytJBh3a4dgM612vKCprbbruNnj17uqgiIURrcfToUQpWfYZVpXwSQFuQwjUD+zFw4EAXVyaEEOJiMBqN2O12dDodixYtYteuXfVO+BUWFpKTk8O1117b4L6nX2vu2rWLESNGUFJSQmZmJpMnT3aam5iYyMiRIxutafjw4XTp0oVbb72VxYsX153Nt9ls/PLLL/zjH/+o36AnJCTw2WefkZycXK9BN5vNpKenc/PNNzf6gJ6envTp04f09HQcDke9dyesViuAnB0XZ8XTy5vp06eTnZ3NO++8w7Jly0hNTeXf//43Xbt2be7yLhibzYZd44XdXfmNB4utHLu59V+bvH//froOvRnclCeclyVvoby83MVVCSEudQ6HA51Ox8QoI+5uyisB12TWyHawQgjRwhUUFHDLLbcAEBISwoIFC5zm9uvXj+TkZAC0Wi3vv/9+vWvQKyoqAGjTpk2D+56+7XTO2eQ2Rq1W85///IcxY8YwePBg3N3dsdlsBAcHo9PpCAsLq9+gDxkyBIAVK1YwduzYuttXrVqF1WqtOwt+2pEjR/D09CQmJqbutuuuu45du3aRlJTEgAED6m5fv349UPuugRBnQ6VS8fbbb3P11Vczbdo09u3bR+/evZk9ezYhIa3onLKHD2atcoOudtNid3E5zUUfGINR460Y8/Hdd17Htlmt6PU1dTtW/Fl1dTUWiwWHbCl1RmVlZdgyUjBqlCeW1pw62aQ/VEK40siIaoLdlfd0/8VDdgwRQoiWztfXl0mTJgE0mLD+Z2+++Sbl5eUUFBTUTUv38vLiwQcfBGq3Y3Pm9Inm0zmN5Z7eqayxnD+Kj48nJSWFVatWsXbtWsrKyvD19WXcuHHceuut9Rv0zp07c/fdd/P555/ToUMH/v73v7Nv3z4eeeQRYmNjufvuu+sdvGfPnvTt27fe2vwnnniCxYsXM2XKFObMmcMVV1zBhg0beO211+jRowejRo1qUuFC/NmkSZOIi4tjypQpHDhwgIcffpgrr7yybnWGEGdiNuopLi7h3yu/VYybTCZqapT3ghb1HT16lDC7Bw4nbypV56TSu2d3F1clhBBCiNbM19e37gz6mUyYMKHu3zNmzGDo0KE89thjTJo0iZCQkLpt0ZSGmJ8e+HY652xymyIwMJBp06Yxbdq0BrEGbxd/9NFH+Pr6Mnv2bN58800AxowZw9y5cxtc96vRaBosWQ8JCeHnn3/mySefrPumqNVqbrjhBhYsWOB0Yp0QTdGjRw8SExN55ZVXePfddzl48CBuGg0bkz25Lq7xGQlCALhp3dFfdZtizF5TATTcN1Moe2Gggxj/SsXYU+t8XVyNEEIIIYQyNzc3Jk+ezI4dO0hKSmLMmDFERUURHBxMWlpag/zT24/37t0bgIiICNq0adOk3POu9c83+Pj4MG/ePF566SVyc3MJDAykU6dOine2WJSXicXHx7NhwwZOnDhBRUUFUVFRhIaGXpCChXB3d2fWrFmMHTuWiRMnUlRUxIwvDzK+TwTPTeiOj6csUxRCiAslK7+Uw8mnuOOOO5zmBAQEMH/+fBdWJYQQQpyd3NxcAPz8/IDak8gJCQls3ryZ6upqfH3/d3Jh+/btAAwePBioXfI+aNAgNmzYgE6nw9/fvy5327Zt9XIbk5KSwjPPPNNojtNOpm3btrRt2/aMD9IYZ429EBfCNddcwzvvvMOMJ5+krLyctXvz2HOinDdujaNPTFBzlyeEEK2C1WYn1FfLW39RXrqXZ/Bg/nYZ3iiEEKL52e12vvrqK26++ea6JecOh4MNGzawYMECYmNjSUhIqMufOnUq69at4/nnn6/bE33nzp0sW7aMsWPH1uuHp06dyvfff89zzz3HvHnzcHNzIzExkS+++IJRo0bRrl27M9ZnMBhIT0/nxIkT2O12QkJCCAgIoLCwkJqaGnx8fJw36EJcCry8vIiOiuCl8R14/dtU8ssN3LdwD3de24HpozoDytN6hRDicrF69epGZyucOnWKTt5+gKfTHA+timit8tA/uz3gfEsUQgghLpg777wTrVZL165d8fT0JCcnh+LiYkJDQ1m6dGm9S7QnTpzIfffdx8cff8zGjRuJiIhg06ZNdOjQgYULF9Y77k033cQDDzzAJ598wqZNm4iMjGTz5s20b9+ezz77rEm19e3bl5EjR3Lw4EE+/vhjrrzySlQqFRaLhd9++40HH3xQGnTROgzvGUp8h0Be+08KW48Us3RLFjvTS/nnxLjmLk0IIZrV999/j19YNO7eynMBiktKMUe701iDLoQQQlwKVCoVe/fuZevWrRw9ehS9Xs/gwYMZOnQo119/fb2l6afzP/30U6ZOncry5csxGo3Mnz+fu+++Gw8Pjwa5n3zyCX//+99ZtmwZRqORjz76iGnTpjXIdWbXrl0sWrSIzMxMIiIi6m7XarWMGjWq9sz8+X8bhGgZQnzdmTe1N98mnuS9H46Snl/FvQsScTgc2B0O5Gx64xwOB2ZDDW41OsW43W6DJm4fIYRoOUxmM+5hPSh1V96W0k3r/t/nSCGEEOeirKzsjDl+fn4yLNsFVCoVV199NVdfffVZ3W/QoEEMGjSoSbkJCQn1lsmfjcTERKKjo+s15380YMAAadBF6zNxQBT9OwfzzxWHOZRTO2H60SV7mHVbHOFByltCCTCZzCSt/hdu3v6K8bKSEgw1/oBM5xbiUrI7KQlbcgY2tbtivLgwH0MHDRDo2sKEEKIVsFqt3HXXXQ12tvoju93OSy+9RL9+/VxYmWiJPDw8yMnJIT8/n/Dw8AbxxMREadBF69Q+xJt/Pdif+RtOsHhjBgeyyvnb3J08N6E74/sov2N1uVOp4N0bAunZTvlF/Oh35V1fIS5Vr41uQ69gs2JswpymLcsTQgjhXLubnsaiUn4N5bF3mYurES3VxIkTefLJJ5k0aRLz58+nV69eqFQqrFYrmzZt4qGHHpIGXbRsJzOPk74jg6KiIsV4cnIyFRUVQGSDmFqtYuqwTny+KZP2IV5kF9fw0jfJbDlSzEt/7UGAtzSc4sLLPHaUzIO7yMjIUIwnJSVRUVEOKC83FkKI5pR25AgfffQRQUHOd0MZM2aMnAkUQohz0LZtWz799FPuuecerrzyStq0aVM3xb26upq2bdtKgy5atqrKCvRmB9UBylv26VXHMZlMZzzOkgcT+GxDOl/vzGHD4UIOZFXw2i09GdytzYUuWVzmdBXlqNQapz+zNfa9mIxn/pkVQojmUFZWRrVnW7QB0YrxyvQkCgoKXFyVEEK0HnfccQcJCQmsXLmSrVu3otfriY+PZ+TIkfztb3+TBl20bCaDHpMdjpYrDyerNDuw2WxnPI6HVs1zN3Zn6BVteXllMsU6Ew8v2cekge2R0UjiQvMICqM0sJtiTOPb8s+c2yxmSktL2bNnj9Mcs9mM4yIOFjNZbNhsNkoyjzjNsVgstcMLRYtXUVGBKusoBrXyXuo11VWYDHq8XVyXUOYI7UppYAfFWGDQiUbvW1RURE5OTqM57u7uxMfHn3N9QghxqYuNjeW5557jueeeaxCTBl20aKVFBZQU5GJSf68Yr8xNx2QyNvl4CV1D+M8Tg3jzuyP8cqiAb3blolapOFlSgwxIEqKWvqqC5ORklnzxpdMcna4S+0Wc6l9ebcJoNJC7U/l3H6Cmpgar0YCbl/OluKJlOHLkCG2tWhxuylu55Z86SZviPOR/8tKXlJTE8uXLCWobqhi3mMyYjXqWLl3q4sqEEOLSIA26aPHiInx457oqxdiyRHc+yz274wV4a3l3SjzDerRl1pojVBmsfPpTKliM3HddJzRq2Y5NCDetFlOfO5wnLFl00WvQatR87uR3H2DAlotegriAXh2sJtpX+f/z9uMyqK41iYy9gvIuYxRjfuYyTNu+cnFFQgjRsmzZsoVvv/2WzMzMBquBpUEXl60beodzdUwQY9/dhs1mZ8GGDLYdLeHN23rRoY0stLzQLEYDBQUFTL37bqc5+/fvJ3SMBWQ3PCGEEEII0Qo9++yzvPvuuwQFBWE0GvH29kar1VJQUIBarUbd3AUK0ZzaBXri7eHOmD7RuLupSc6t5Na5O/l6Zy4X8fLay5LDXvsNDRp8q9MPi8WCQ6YCCCGEEEKIVig3N5fZs2fzxBNPUFBQQEJCAk8++SR5eXns27eP+Ph4OYMuBMDgHu24d2gUL6w4zNG8KmatPsJPB/J55W89m7u0VkWlUqHTtvwhaUKIS4uhWseJjAy++eYbxbjdbsdoNCLvvAohhGhO69evx8vLi1mzZuHu7g6AzWZDpVLRu3dvvvvuO2nQhTgtNsyXZdMHsHDDCf61JZP9WRVMmruTID9vooPl+kghhGip9LoKTmRmsvtIpnKCo7ZBv5g7DwghhBBnotPpaNu2LR4etb2FRqNBr9fXxTt27CgNuhB/pNWomT6qMyPjw3jtP6mknKyksLyabalmUk6G0zMqoLlLvKxZrRb0ej1VVcqDpiwWC3Z5AS7EheUAu92B1WpVDFssFqxWi4uLasjdw5OyjiMUYyqbDXjNtQUJIYQQfxIaGkplZSUOhwOVSkVsbCwHDhyoi5tMJmnQhVDSNdyPLx/uz/LtOcxZl47OYObOj5O4/Zpopo/qjKdW09wlXpaSdu3i4N7dBAcHK8YPHTpEXHt/ZMqcEBeOvkZHaUkJ+/fvV4wfLlGTlHTxttwTQgghWot+/fpRUVHB4cOHiY+PZ/To0dx00028/PLL9O/fny+//FIadCGcUatV3DmkA2sPllJWWU2Jzsiy37PZlFLEizf3IKGrXEvtciqIGTYJ726DFMM5hU8Ala6tSYjLgJuHJx7hXRRjft5a2JHq4oqEEEKIS0/37t156qmnyMnJIT4+ngkTJjBt2jRmzpxZlyMNuhBn4O6mYUDXMAZ28uO9H45yqszAg4v3cl1cGE+N6+qSGsp1eqoN6dh++JdivDTjCFqDXjHWGtmcrmKX5e1CXCzy2yWEuND27t3Lr7/+2uh8iICAAB566CEXViXExaNSqZg9e3a9zxcvXszzzz9PRkYG3bt3lwZdiKYa3yeCwd3aMHttGusPFLAxuZBtR4vpEd3mog8GNpgshHobuLZNuWJ8s5uRcov54hYhhBBCCHEB5eXlkZmbR0DnPopxm76Co7t3I+25aO06d+5M586dATmDLsRZCfZ1Z9bkeCYOiOKdNWkcK6hmf0YRGrWajcmFXBcXdtEeu3OIG3+PKVWMZSWrKVcOCSGEEEI0i+zsbCoqKpzGMzMzQetJaXAPxbi/bxkcP6AYE+JSl5OTQ0lJSYMVJNKgC3EO+nYK5uvHEvh6Zy5z1h/DbLEx48uDDOgSwnMTuhMT6tPcJQohhBBCNKsVK1ZwOCUFH18/xXh62hHw9KdTbxcXJkQzWrNmDTNmzCAjI0MxLg26EOdIrVYxeXA0OVUqVu84jslsJfFYKX+bs4PJg6N58PpYfDzlV0wIIYQQlyeHw0H4VSMoC+mpGA8yLaM8P9vFVQnRfLKyspg4cSIdOnTgnXfeISwsDI2m/u5Q0j0IcZ48tRr8vT2Y848+vL3mCIdyKln2ezbr9+fz6JgudO8Q2twlCuFyJUWFfLtqFcedvDucmJhIiIcFkNUm4tLw3Xff8eP69Y3mxHbqxHPPPeeiis5eeXk5+/btw73kTac5JcXF1FSU4h3cwYWVCSHE5WHNmjWoVCq2bt1KZGSkYo406EJcID2iSDBUJQAAIABJREFU/Fn60AB+2JfHh+uPUVJl4pWVKXQJz23u0oRwOavVhn9oB/z63qgYd085is1Q6OKqhDh3Op0OrzaRuHXsqxjX6PIoyk9zcVVnx2azYTabeW6gu9Ocp/fZsdusLqxKCCEuH1qtluDgYKfNOUiDLsQFpVLVTnsf0TOUhRtP8NX2bI7l6wB47T8pPDqmC0E+zl8YCWG22rHZbGTv3ew0x56TjU6ncxo/efIkJ8pMVPsrT/3XZx7DUOl8aM+FovL0pdJDeQWJWusBhoteghAXzKlTp8jOyqKm2lsx7mMqwaPipIurOjcDgiudxlQqlQsrEUKIy8uYMWN4/PHHOXDgAFdddZVijjToQlwEPp5uPDm2Kzf3j+SVlUc4lF3Gd7tPsSG5kAeu78xtg9qjUcuLINGQyWLDZrOhLXA+tTbtxAnKysqcxjMyMigpr8C/nXITri/KpLLKeN61CnE5yczMJC8jhTZW5S0tqyrLOFVa7OKqhBBCXEpiYmJYuHAht912GzNnzmTIkCG4u9c/eScNumhWDocDu82Gzcke3g67HYfaxUVdQDFtfXjxliu59f3NRAR5cqrMwOy1aaxKOsmMcd0Y1DWkuUtsURwOBzaLGYeb8s+D3W5vsBXF2R3/f4+hePwWspe8SqXi7b4lTuO3HjjzU/egjh7cEad8jM+tHqw5JA16a+BwODCZTGfIsbuomtavV7gXjzn53dx6UsvSHS4uSFzW7HY7VosZm5O/mVarFZvNds7Hb8rzC4CHh4esvBDiLHTp0gWASZMmKcalQRfNqqyymsrff+J4WrJivDL7CH7hXoDz6zQuBSqVilUzBvOvzZks2ZxJRmE1Dy3eS7/YYB4b06W5y2sxKioq+O2zmTg0WsW4LusYba/IJKrb4HM6fl5pNVU6Hb/NdzLEyWbBYrFIQyMuGaWlpdx9992N5hTkF2CxxLqoIiGEq2zftg3jzv1YNB6KcXd9KdwwismTJ5/T8QsLC7nvvvvOmDdv3jxiYmLO6TGEuNzk5uYyevRo3NzceOCBB2SKu2h5VCqY0jeISQMCFONPfukNnPsZ05bEw03N/dfHcmPfSD5cf4yfDuazO6OMOz5ORKNWU1hhALyau8xm9+GNbQhVvsSTO/9P+UXI2fD2ULNikvLPW6XBxriU834IIVxKq9XSdsLTTuPqrVtdWI0QwpWeuj6MK9sqv06as/X8z2p7eHgSMu5Jp/Gajf933o8hxOXk+++/R6/Xk5ycTI8ePRRzpEEXzU6rBh+NRTHWGhdMtQv0ZNbkXkwd2pF5Px1j+9ESbHY7b67cS0pmJA/+JZa2/uffiF6qPNU2fDROzmBfoCV0zn7eLJrW8WaQuHSU6fQUlWeR/NNXinFvUwkh6jNP07Oq5M+5EJcjd1Ujr6Eu0Iuoxp5fZGm7EGfHZrMRGhrqtDkHuISv7hXi0tYtwo/5065m0f19UatV2O0OViWdZNy7v/Ph+mNUGWSbGyFaO73JTKBGT3//QsWPEFsxRUWyHZ0QQgjRGowYMYKSkhIyMjKc5shb7kI0s76dgnHXarljaCwb9+eQWVzD55sz+TbxJPcMj+G2wdHNXaJoZUwWGxazmYq8LMW4oywPi0X5jExL4nA4qCw8icagPCDJVFaKXq93cVVnLzbYjXtjSxVj61UaflTeLU8IIUQT5ObmUl1d3WhOUFAQ7dq1c1FF4nIWFxfHG2+8we233878+fPp06dPg5Uo0qAL0UJcFdOGh4ZHsXpPHgs2HKeo0sScH9P5ansONpUb5zG8XIh6CsqqqSwvJe3nLxXjdn0FlRUXf5/082W1Wjm6eRVqDx/FuCkvjSEJA7j++utdXJkQQoiW4tNPP+VEVhaenp6K8Zrqaq4dMoSHHnrIxZWJi0mn05GUlERRURH+/v4MHToUPz8/p/k1NTVs2LABo9HI1VdfXTdpXYler2fDhg0YDAZ69+5N165dm1zXzp07mTVrFlVVVfTr1w9PT8+mbbOWnZ3N7NmzSU9PJygoiOnTpzNkyJAmP/AfJSYmsnbtWnx9fXnuOSeTk4UQAKjVKv7aP5KxvcP5944clmzKpLCydjus9XuzGNDRmxFxoc1cpWgNwvy1fHWD8vY5R4o9uO+Iiws6R3P/oqadr/LX8eC3vi6uRgghREsU0f8Gyvw7K8aiCna7uBpxsU2YMIEff/yx3jaDHh4ezJgxg5kzZ6JW17/K++uvv+axxx6jsLD2kjK1Ws20adOYP39+g+Z55cqVPProoxQUFNTlTp06lU8++aRBrpKQkBAmTpzYaE6DBv2XX35h3LhxBAQEMGbMGA4ePMi1117L888/z1tvvXXGB/2j6upqJk+eTGZmJu3atZMGXYgm8tCqmTq0IxP7R7Fkcyb/2pKFTm/myS8PEB8dwGNjutKnU1Bzl3lZqtYbSN76I15pqYrxqoz9hHc209bFdQkhhBBCCNi/fz/PP/8848ePp3379uTn5/P444/z1ltvER0dzf3331+Xe/jwYe644w769u3L9u3biYyM5J133uHVV1+lbdu29frflJQUpkyZQu/evdm6dSvR0dG8++67vPzyy4SEhPDuu++esbauXbuyZMmSRnPqNegGg4Fp06YRGRlJYmIioaGhWK1Wpk6dyqxZs7j55pvp169fk785//znP/Hw8KBXr14UFxc3+X5CiFp+Xm48NqYLG49UolXbyCrUcSinknsW7mZQ1xDuvz6WKzsENneZlxWH3c7wGC29uynP2FxWpMZiVj6jK4QQQgghLq60tDR8fP53+Vt4eDhr1qwhKiqKhQsX1mvQ33//fex2O8uXL6dTp04AvPLKK/z+++988MEHvPTSS3h51W6D/MEHH2C1Wlm2bFndEviXXnqJ7du3M3fuXF555ZV6j3uu6jXo27Zt49SpU3z00UeEhtYuo3Vzc2PmzJksX76cFStWNLlB37ZtGx9//DFbtmzhiSeeOO9ChbicaTRq+nVuw/tT4vj45+NsOFzIjvRSdqSX0rdTMJ7e5/9kIJquS5CDIW2Ur9Fe56WmyMX1CCGan9VqobKygnXr1jWad8MNN8jWVM3MZNBTXVVF7sHtinG1ykF5UVGzDsu0WCz88ssvjeZUV1dhs9sazRHicqTUJAcFBREZGUnFn2bsbNu2jV69etU156eNHz+ejRs3snv3bq699tq63J49eza4Pn38+PH8/PPPJCUlMXz48AaPnZKSgs1mo2fPnhiNxkYnuMOfGvSdO3cCMHDgwHpJMTExtG3blu3blZ/I/sxgMHDPPfdw//33c8011zTpPkKIM+vY1of37riS1JM6Pt2YwZYjxew5UQaU4aHVsOVIMdd2b3vB9j4VQgjRNCajgbKycjbt3KsYt9msHE/ez6hRo3Bzkxm9zclQVUllRTn2bOVrj+04yM7OxmRqvtVQRqORBQsW0O1K5yfGKisqsVqlQReiKTIyMsjIyKh3/ffp7c4mT57cID8uLg6o7Y+vvfZaysvLSU9PZ9KkSQ1ye/bsWZer1KAPHTqU0tJSdDodBw8ePONst3p/IQ4fPgxAt27dGiR2796d3bubNkTh1VdfpaamhlmzZjUpXwhxdnpE+TP3rt4cK6hm8W8n+PlgASaLjcf+tZ+u4X7cMzyGv8SHoW6BnbrDYT/P+zucHkMG3QshmpOb1p3yLmMUY+4OCyTvd3FFwhkPrYb3B5QoxmyouKFp56QuusouY3D2V1OtmevSWkTzstvP/Prpz8PPWqPi4mIefPBBoPaseFNmpFmtVh588EHUajXPP/983e1lZWUAdSvH/+j0badzGssNCwurl/NnH374ISaTCU9PT7p06cLixYsbrbdeg356v1ilZQE+Pj4YjUYcDkejS7N2797Ne++9x3fffUdAQECjD37a66+/zptvvgnU/vBptdom3U+Iy12Xdr68fXs8djcvdh45hcFkIT2/ime/OsQnv/owbVgMY68Ob+4yASgo19duYfHhU05zLBYLdpsVUP4DU1ZZRdXmH0hz8iK3IusIQVE+QMQFqFgIIYQQovnt3LmzSY3o2rVrXVBN83J3dyc+Ph4AX98z79bicDh44IEH+PXXX/nkk0/o3bt3Xez0lHelNzZO33Y652xy/2zKlCl1/w4LC2PatGmN1lyvQddoNEBtk/znB1e67c/MZjPTpk1j4sSJTJgwodHcP/rnP//Js88+C8Dnn3/O008/3eT7CiHA18udNgHefDI1niWbM1mz+xRZxTW8vDKZBRsyuLZXZHOXCIBWo2LpROdD7a4/dOZjTO4TzE19lY/x1Jde51qaEEIIIUSLFd2pM/arlLfncrebObF6josrah4BAQF1Z9DPxOFw8Mgjj7B48WLeeecdHnjggXpxb29voHbnsT+rqakBqBsQ11ju6dtO556veg16SEgIAIWFhURG1n9BX1hYSHBwcKNnzxctWkRKSgqPP/54vSEpFRUVGI1G1q1bR2hoaINBcxqNpu7NAbkuS4hz1y7QkxduuoJ/XNeJL7dms3JXLnnlBlZsPQ7AF1uzuGVge7zcNc1WY7C7+bzu7+XmcHoMN3XLW9IvhBAXyqZNm0hOTm40Jzo6mhtvvNFFFQkhXEWlUmNWeziJykV+f+ZwOHjiiSeYP38+M2fO5JlnnmmQ0759e/z9/Tl69GiDWFpaGgBXXnklABEREQQFBTWae/rM/pm8//77eHt7O32jod4p8QEDBgCQmlp/f1+r1UpaWhoJCQmNPlhpaSkOh4N7772XcePG1X0cP36ciooKxo0bx2uvvdakwoUQ566NnwdPjO3K+uev5R/XdcLLo/aNrw/WpTN61lY+23iCaqO1masUQghxNlJTU0k9kUu2Qav4kX6qlL17lYfUCSHE5cLhcPD000/z4Ycf8uKLL/Liiy8q5qnVahISEjhw4AAGg6Fe7PTw9MGDB9fLPXToUN1l4aft2rWrXu6ZbN++vd5st8WLF/Pyyy//r64/Jp+euL5mzZp6B/n1118xmUx1I+ZP0+v1GI3Gus+nT5/OiRMnGnz06tWLNm3acOLECRYtWtSkwoUQ5y/AW8tDIzvz5h390WjUBPm4U6m3MP+X44yatZWPfjpGRU3zbSPTGpmtNkwGPbrCXMUPg2yLI4Q4Dz5hHSkP66P44RHRtbnLE0KIZuVwOHjhhRd4//33eeaZZ3j99dcbzZ88eTI6nY5Zs2bhcNSuREhNTeWLL75g2LBhhIeH18utqqrijTfeqMtNS0vj888/Z8iQIbRv317xMZKTkxk5ciRvvvkm27Ztw2w2N4j/cbe0euvJ4+LimDBhAgsXLiQ+Pp677rqLffv28dBDDxEaGsq9995b72C+vr707duXpKQkoHaSXlBQUIOiPDw8cHNzIyYmptFvkBDi4vB016BWq1n//BC+TTzF0q2ZFFWaWLwpk+Xbcpg4IAqHrI66IArLqsmvOYZ1rfKEzsqcI6j0NS6uSgghhBCi9dPpdLz99tsAzJ8/n//7v/+rF/f29qawsLDu8zvvvJM1a9Ywc+ZMNm7cSFRUFGvWrMHf35/PPvus3n1vv/121qxZw6xZs9i0aRPR0dF8//33+Pr6NnoSOiQkhPDwcBYuXFh3Nj8mJoY33niDoUOHNtjSscEF34sXL+bee+/l/vvv5/777wdqG/cVK1YQGOh8uJMQouXz1GqYck00kxKiWLs3jyWbMjlZZmD5tmwAFm9IZ8YNsUQGy7C18zE4xpuZ45UvIZi7wYef9ylv7SOEEEIIIc6dh4dHo2fN/7xbmFqt5ttvv+WHH35g2bJlmEwmXnzxRR599FH8/f0b5H7zzTesW7eOL7/8EqPRyAsvvMCjjz7a6O5l4eHhLF26FIfDQWZmJlOmTCEnJ4eFCxfy0ksvAbXbt82cOZPhw4c3bNDbtGnD6tWrSU5O5vjx4wQFBTFkyBDFCe65ublN2hJt3bp1TsfOCyFcT6tR89f+UdzUN5L1BwtY9NsJMotq+O1wHltS8hlzVTj3jIghpm3DLReFEOJCK6+qoerATooqGk7HBTDkJOPt60cHF9clhBDi0uLp6VnX9DaVSqVi/PjxjB8/vkm5p+esNZXNZkOtVqNSqejUqRPh4eFcccUVLF68mMzMTB5//HG2bdvGZ599xssvv9ywQT8tLi6OuLi4Rh/sz5PenVHa0F0I0fzUahVje4dzw1Xh9P3nRtqHeJFVVM0P+/L4cX8+Q3u0ZfLgaPrHBjd3qUKIVsxmtXF1qIrhccrX2vysg+wao2JMCCGEaMkOHjzI+PHjGTZsGMOHD6e0tJTAwMC6hj02Npaamho2bNhAVlaW8wZdCHH5UKlqm/U3p/SlvELHZ7+d4GB2BZtSitiUUkTndr7ojTasNntzlyqEaKU6Bam5PqxcMXbYT022jG4QQlwElWUlHDlZzC+//OI0x9fXl0GDBrmwKtGaxMTEMH36dLZs2cITTzxBdXU1hw4dwmAwMHz4cPLz84Has/MxMTHSoAsh6rumexuu6d6GfZnl/Ht7DhtTijheULvs9MtNRzEb9dw2qD0RQXKduhBCCCEubfm52ZRkpeHu23DQNYBRX43KZpYGXZyzoKAgnn/+eZ5//nmsVitjx47l1KlTlJeX8+STT1JTU4Ovry9Tpkxh6NCh0qALIZRdHRPE1TFBFFQY+WZnLv/akoXJYuOLrVks+z2ba69ow+3XdJDl70IIIYS4pAVEdKKiu/L1x4HGfIyHnZ9dF+JsuLm54ePjQ//+/VmyZAkWi4X77ruP3377jfLycmbMmCENuhCice0CPXl0TBfWHSrjikhf8kt1HM2rYnNqMZtTi4kN8+W2Qe2x2WWfNlcpLi7mlVdeYf78+YrxpKQk2vWPBppv543ich35OzaSmZGhGNflpBETCMjYLyEuKXt2bWfbr+ucbilUWFiIh28AnbuMcXFlLcvSpUtZtWpVozlXXHFF3XZQQojLk1arJSgoiC5duvDjjz9isVikQRdCNI1KBd2jgph7R8/a5e87cvgtuYiMwmre/O4Ibho1Qb6enCozyDZtF5kDB+0HTyC052DFePKRf7i4IgUOGNszgMlDlN8keGOlNzU1ehcXJYQ4bw4HE/uGc2+C8uqpRTtVrEuTgQE2m41OvQdj6TBQMe5VlYs194CLqxJCtARvv/02bm7KbbhWq5UGXQhx9k4vfy+srF3+/m3SSSpqLBRX6hn/7jauvaINkwdFM6BLSHOX2mrZ3bwwqJXfCFGpVS6uRpmvFsI9lCdvu2tAXsKLlkSnq2TLli1YrVbFeFpaGhFeRsDTtYW1QF5uEKxW/g32PvPuu5cNtZu70+dpTzcPF1cjhGgpunbtWu/zp556CqPxf6+XpEEXQpyzsABPHhndhX9cH8vdnx4gM78Cg9lat/w9JtSHm/pGMvbq8OYuVQghGlVTU0NeRQ3Hy5Ub9JKyCkJCWsabX0IIIVqPP29dLg26EOK8ebipiQjxw02t5onRHflqeza/JReRWVTDnB/T+fCnY3RuF4DNZsdstePupm7ukoUQogGP0E6URwxQjGm9lyPrPoQQQlxs0qALIS6o3h0D6d0xkMJKI9/vyeP7vXnklupJz6sA4C9vbmHUle24sW8EPaMCmrlaIYQQQgghWg5p0IUQF0VYgCf3XdeJ+67rxIGsCj76NYt9x4uo1Fv4Zmcu3+zMJTbMlwl9Ihh7dTht/OR6PCGEEEIIcXmTBl0IcdFd1TGQmwZ04sjJCl68qRtr9uax+3gZGYXVdUvgB3UNweFwYLHZAVkCL4QQQoiWz2azceTIEU5+Mx8bGsUct8JUhg+5hn79+rm4OnEpkgZdCOFSN/QO54be4RRUGPlhX+0S+JwSPdvSSgC488PfGXOVLIEXQgghRMvncDiorq7mzs5W3DUOxZx/5xrR62VrUdE00qALIZpFu0BP7h3RiXtH1C6B/35vHquSTlJl+N8S+E5hvtwoS+CFEGdgNhnQ19SQf2SvYlzlsGG323Gg/OJZCCHO14jQavzdbYqxVVrlM+tCKJEGXQjR7K7qGMhVHQNZvSePGRN68HtKPknHyzjxxyXwXUKwWKzY7PICWwhRn15XQUV5GZUpW5QTHA5sNhsOu921hQkhhBBnSRp0IUSLMqxnO6YkRFBYaWTt3nzW7j1FdomebUdrl8B/vO4QOfkRTOgbQVx7WQIvhKjlodXwf0PKFGN2G/Rd7+KChBBCiHMgDboQokUKC/Dk3hEx3DsihoPZFazZk8d3u09hNNv4Zlcu3+ySJfCicUUF+Xz66ads2LDBac64ceO46667XFjVhVVWVkZSUhLuuc85zTEYDFhMRsDTdYVdgip0Nez/bS1ph/YrxssyjhHawRsId21hQlwkW7Zs4eOPP3YaNxqNHDp8mOvHu7AoIYQ06EKIlu/KDoFc2SGQjWnlXNu9LcXlVYpL4Muq7bQL9GruckULYbdD2+79Cb/uVsW4JicJi8Xi4qouPIfdzpyxzleT3HoI5NLrpnAw8Up//nKV8vfypWXuIJfYiFbEarXSLqojql5jFeOmkhz2Hzjg4qqEENKgCyEuGSqgR/tgJk/s6nQJfFaBmje/UzOhTwS9omUJ/GXP3ZMajY9iKNC9lZxRVqno6F3T3FVcVOXVRirLjaT//r1ivPrEASzm83+zJdgTp99LD43qvI8vhCvVVFWRkpLCkiVLFONHjhwhr6CAwKuUnyNVWuXbxdmr0lWxdetWbDblIXKZmZmoVCo6duyoGM/IyCA7O5vQ3hezStFSSIMuhLgkKS2BX7MnD6vNzspduazclUtMqA/j+0Twl15htA/xbu6ShRDnqLLGhMZSQ0dzhmI821iA1Xrpr4YQ4kLS11RRpteSml+lGE/POklJcTGBLq7rclRdU01OUQVBTv4vkrbtQKP1RO8RohjPys4nL+8UoRezSNFiSIMuhLjknV4Cn1Npp1pvJMhLReKxMjKLapi3/hjz1h+jcztf2gT6YWsFU5wdDgfGah3aihLFuM1qxd4Kvs6LzWwyUVlpIT8/32mOVqulTZs2LqxKOBPu58ZTcaWKsW8tavbLStwWwWyxYTab0Dt5flJbKjAajS6u6vLlHhhGedQgxZhXXiEUF7u4osuXe3hX5/8XgTtx8w1yGvcor4ZjRy5meaIFkQZdCNFqqFUqQgO8mXdnD4oqTfywP4+fDxZwNK+K4wXVHC+oBmD8u9sYERfKdXFh9GofgOoSW7lqMBg5uGEV7ru3KsaLCwsxRKuBYNcWdok5nnqIbceTSUxMUozb7DY6REfzwQcfuLgyIS5d6SeLOX70BEVfva8Y11hN2CudvykmhBCXO2nQhRCtUmiAB9OGxTBtWAynygxsTC7k3ztPkV9WQ26pnqVbsli6JYvQAA9G9AzjurhQYttdIgv9VPDP6/xJ6KBRDN+U6+7igi5d7bpfjd/oBxRjQfqT2I797uKKhLj0dWzjzaKJys9PR8oDeHFlnosrEkKIS4c06EKIVi8y2Iu/X9sRh9aXxRtSmX59DBuTC9lzopyiShMrduSwYkcOAd5aHA4HO9OLGdo9GK1G3dylNwud3ozZbGbft584zbGYLdisFkD5RbgQQgghhDh70qALIS4rapWKSQntmZTQnkq9hc2pRWxMLmLXsVIq9bVDpp76Yh8+nm5c270N18WFkdA1BB+Py+fp0my143DYuSnG+XWiyQ47DrsNadCFEEIIIS6cy+cVpxBC/EmAt5Yb+0ZyY99IakxWfj5UzMxvk/HUqqkxWll/oID1BwrQqFXEtQ8goUsINrsdu6P174WsAm6KVB7IBfCG60oRQoh6UlNTKS8vdxrfvXs36blF2CzKczgqC05is1kvVnniArKYjBQVFbF9+/ZG8/r27YuHh4eLqhLi4pIGXQghAB8PN0bEteONVSn8+MIIDmaWsDG5kK1HiqnUWziYXcHB7AoAXv/3Hn7uHMzALiEM7BxMpzDfZq5eCCEuH9988w05p/Lw9QtQjG/4+UeqavREVCmvAqrITcdkMl/MEsUFoteVk5KczNffrnaak3X8KIsWLSI0VDYhE62DNOhCCPEn7m5qhvVoy7AebbE7HKSdqmLX8VJ2pZeSlFGGyWJj65Fith6p3Z4mPMiLET1Dub5XWDNXLoQQl4eQXsMoC+iiGPPavY9wnzw+GFqhGP9mn5Z5GRezOnEhaT08qLlykvN49tsurEaIi08adCGEaIRapaJHlD89ovyZNiyGa17byqTBMdjMBnYdKyU9v4r8cgPLt2WzfFs2bho11XofdqYH079zMBr1JbaHm6hTdDKTpB9/pLCgQDFuNpuprKx0cVVCXFwGo4ldqz9H6/e9Yrwq8zDFYZ2AKNcWJoQQlwlp0IUQ4ix1iQhgTI/2AJRVm+sGzSUeL8Vqs5NdVMWDi/fi76Xl2ivaMqJnKP07B+PrKU+5lxKHzY67lzdtr5umGDfpSnH88IOLqxLiYnMwrX8A3aOUL915aZk7drvdxTUJIcS5MRgMmM1mvL290Wq1TvMsFguJiYkYjUbi4uJo166d01yr1UpiYiIGg+GMuedCXi0KIcR5CPZ156/9o/hr/yiqjVZu/WgvNpuFimoTOoOFH/bl8cO+PNRqFXFR/qjc3DFbbFhtDtw0cna9pVOrNVS7KV/natfKkCnROrX3tdLdt1oxZreaKS0t5eRJ5W0oS0vLMJnl+m7hOrm5uaxcuRJ/f3/F+KHDhwnv3x6Uw6IVSkpKYt68eezZs4f09HQcDgerV6/mxhtvVMz/6aefeOSRRzh+/DgAnp6ePPbYY7z55ptoNPV3q/nll1+YPn06x44dq8t95JFHmDVrVoPccyUNuhBCXCC+nm4E+nrSKTSYf07oxLa0En5LKWJHegkVNRYO5fxvOfSQV3+jT6cgErqEMLBLCLEyaE4IcQkwm01UG7ToDMpNeHWNHrPJ4uKqxOXs1KlTHM5ySfQbAAAgAElEQVQqwNdfeShgZmYWvldU4eniukTz2b17Nz/99BN9+vQhKiqKjRs3Os09duwYf/3rX4mNjWXXrl1ERUXx9ttv88477+Dv788LL7xQl5uRkcHNN99Mx44d2bFjB9HR0bz77rvMnj0bPz8/XnrppQtSvzToQghxEXhqNVzfK4zre4XhcMDR/Cp2HSvlm8Q88suqMZhtbEsrYVtaCQBt/DwY0DmYDu0Cm7ly0ZLYHXYsFgslJSWK8fLyclluLFzOzdMHi5fyFmZq9wrA5NqCRLMxm0yUl5fj5+enGNfr9dg0F3+1kS1mMOU+IYoxT59VF/3xRcty77338tBDD6FSqVi8eHGjDfrs2bMxGAx8/fXX9OjRA4B58+axb98+3nrrLWbMmFG3hd97772HXq9nxYoV9OrVC4C5c+eyf/9+Zs2axVNPPYWXl9d51y8NuhBCXGQqFXSP8KN7hB8VFnd+2pvNaxO7setYKYnHSknLq6KkysS6/flAPgB//WAHA/+7lVvf2GC83S/MsilxadHrKklPP8Y//vEPxXh1dTWVlcqTqoUQ4mLbs2cPzz33HL6+yqvA0tLSiLt+En6hV7q4MnE5O91QN8XWrVvp2bNnXXMOoFKpmDhxIjt27GDfvn0kJCTU5Xbv3r2uOT+d+7e//Y3ff/+dPXv2MGTIkPOuX7FB1+l0LFy4kKNHjxIcHMz9999PbGxskw6o1+vZuHEjO3bsoLCwkMDAQEaNGsV1112Hm5u8HyCEECoVDOgczIDOwTCmC5V6C0nHy9h5rJTf00oo1hk5UVjNicJqvtqeg0atomu4H73aBxDXPgCHw4Gjub8I4TJevn4E3fi8Ysw7/yhs+93FFQkhxH+pVETfcD+OoGjFcJvKFxRvF6IlKC8v5+jRo0ya1HAbv7i4OAC2b99OQkIClZWVpKamMnHixAa5PXv2BGDHjh0Xp0Hfs2cPo0ePprq6moEDB5Kens6cOXOYO3cuDz/88BkPGBkZSUVFBQEBAURGRlJYWMicOXMYMmQIa9euJSBAediOEEJcrgK8tfwlPoy/xIeRVmRhytytPDehK4nHy0g6XobOYOHIKR1HTun4ZlcuADMW7SS+QwC92vsT1z6Q3h0DCfB2Pp1UCCGEEOJSV1payosvvghAQEAATz/99Dkfq7i4GEBxCnt4eHi9nNOXmjUl93zVa9AtFgt33nknarWagwcP0q1bN6qqqrjlllt47LHHuO666+jevXujBxwxYgSPPvoo11xzDRqNBqvVyjPPPMOcOXN47733mDlz5gUpXAghWrNbBrbnloHtsTscHM2r4nBuJYdzKknOrSSzqAaD2Urif5fIQ+1+7d0j/BjQJQSjyYLdLufYhRBCCNG6qNVqPD1rR/6dzVJ2JTabDUBx+rpaXbtThdVqPWPu6dtO556veg36zp07SUtL45133qFbt24A+Pn58d5779GrVy+++OIL3nrrrUYP+O2339Z/ADc33n77bZYuXcp//vMfadCFEOIsqFUqroj054pIfyYNrN17fcDLm3hgVHdsJgPJuZUcyqmkrNpM6ikdqad0AHzzexWZeWV1U+K7hvuhkl3dhLhojGYrFouF4hMpinGtw0pFRQUOh7x5JoQQ5yooKKjuDPr5Ot3o6/X6BjGDwVAvp7Hc07edzjlfDRp0oMHa+Z49exIYGMj27dvP6UG0Wi0eHh4XbG84IYS43HWPCiShQ3jd58cLqtl1rJRdx0rZnl6Kze6o+xzA30tLXHt/ekUHUlBuxCZn2IW4oEp0Bgz6GvIS1yknOGycPHYMm82GViuXowghRHNr3749Pj4+dXua/9HRo0eB/12LHhkZiZ+fX5Nyz1e9Bn3//v0ADZaxq1QqevTowd69e8/pQTZs2EB+fj533HHHOZYphBCiMZ3b+dK5nS93DOnAjXP20jXcmw5BWhKPl5JyUofOYGFHeik70kvr7jPund+Jax9Ar+gAerUPoFukPx5u6mb8KoS4tHm7q1k8QqcY01ncuOWgiwsSQgjhlJubGwMGDODAgQOYzWbc3d3rYklJSQBcc801QO0y9oEDB7J7925MJlO95fW7d+8GYPDgwRemrj9+Ul1dDYC/v3+DRH9/f2pqanA4HKjOYp1kQUEB9913HxEREU4v4p83bx4ff/wxUDtB/vQafyGEEGdPpYLQQC+mj+rI9FGdqTJY/3sNewWHcytJyijHbLFxsszAyTIDPx0sAMBNUzstvk2AD3a7g6ziGjq08ZGl8UJcIvIy00n5bQ1Z2dmK8crKSioqZFs+IYQ47W9/+xu//fYbH3/8MU8++SQA2dnZLF26lP79+9O+fft6ub/++isffvghzzzzDAC5ubksWbKEPn360LFjxwtSU70GvbHG+2wbc6gdXT969GjKysrYuHEjbdu2VcybMmUKo0ePBmDlypXMmjXrrB5HCCGEc35ebgzqGsKgriEAvLomi30ZRTw4Iprk3EoO51Zy9JQOk9VO6kkdnKw9A3jTe9vx99LSs70/verOtAcS6CPLc4VoiWxWK+7efoQMuV0xrsk5iv2XX1xclRBCuFZaWlpdb1lVVQXAfffdx2OPPQbUnh0PDQ2tu33lypXMmDGDzZs3ExUVxVdffYXNZmPRokX1jjtt2jRWrlzJs88+y9atW+nQoQNfffUVFouFxYsXn3Wv7Ey9Bv30FmilpaV1RZ9WWlpKQEBAkx+4oqKCkSNHcuzYMX7++Wf69evnNDckJISQkNoXjmFhYRfsixNCCKFMq1Ez5qp2jLmqdrsQq81Ben7ttPiNKaXsPl4MONAZLOxML2XnH5bGRwZ7YbPZ+XHfScw9gmVpvBAtiEbrjk4brBgzu8tWt0KcLX1VJRnHjrFixQrFuNlsxmg04kBmu7QU/v7+3HTTTU7jf1ye7ubmxi+//MKyZctYtmwZhw4d4u677+bZZ59tsKWam5sb69evZ/ny5Xz55ZccPHiQu+66i2effbZuq7ULoV6D3q9fP5YvX05qamq9Bt1ut5Oamlq3Bv9MdDodo0ePJjk5mR9//LHJ9xNCCNE83DQqekT50yPKn4jQEA5klbHhn0NIydXVbfF2OLeCihoLp8pqJ5t+sfk4X2z+79L4dn7E/fda9l7R0gQIIYRoHWp05WRlZrHnaI5i3Ga1YjQakf685YiIiGDu3LlNzndzc2Pq1KlMnTq1Sbl33XUXd9111/mU2Phj/PGTQYMGAfDzzz8zbNiwutt37NiBXq9vUqNdVVXFmDFj2L9/P2vXrmX48OEXuGQhhBCu4O+lJaFrCAn/XRoPcLKsdmu3F1YcpnOYH9nF1bVL4/+7xds3O3OB2kum1iZlYjHV1DXtQT7uzh5KCNEEFosFk9GG2VCtHDebsMscHyEuOHdPL8o7Kvc0dovJxdWI1q5eg963b18GDx7MvHnzGDZsGKNGjSIzM5NHHnkEX19f7rnnnnp3btu2LVdddRW//vorUPuHY9y4cezYsYOXX36ZwMDAugl4UDv9rk+fPi74soQQQlwMUcFeRAV78eI3Kbw++Wo6t9GSXlBFck5l3Zn27JLagaK5JdV8tvF/jURYgCcxoT50CvXhVEkNdrud8hqzNO5CNNHOnTvZcygVi+dqxbitohCV3UIvF9clhBDiwmkwJG7ZsmX89a9/ZfTo0YSGhlJeXk5QUBArVqwgIiKi3p1LS0uprKys+1yn07F161YAXn/9dV5//fV6+f7+/vXyhRBCXNrcNCp6RPrTI9KfSQm1k06rDFYmvJ9Il3BfPDV2DudUUl5jprDSSGGlsW5vdoDhr28mwFtLp1AfOrfzo2eUP72iA3DIUkEhFN0QH8q9fdwUY1/vC+aLnYUurkgIIcSF1OAZvmPHjuzdu/f/2Tvv8Ciqr49/tyabSggkmCC9SEeKEHpRepOS0BUEKaIgvIggoBQBf6JIF1EwdKlKkyYCoYYeCKSS3jbJpm3fmbnvH0uGTHZmUZEAcj/Pk+fJzHfK2Zk7M/fce+49+P333xEbGwsfHx8MGjQI7u7uDjufP38eHh4e/LKXlxcuXLggeTKFQvEvmU2hUCiU5xVPjRJqlRItavnh/Y72SVPSdCbEZemRoDXggVaPM/dyYTBbwXIEBUYbbibm42ZiPvY8PIaLSgGGJVh9LJbP1V7B00X6pP8AXXYW8vN0yGF+FtXZ7ATocnP+1XNSKJQXA4PBgNWrVwvquSW5desWXn31VX6S49Jcv34dKr8acH9VVKZQKBRJRJtgZTIZevXq9didi8esF6NSqRzWUSgUCoUSWF6DwPIadKxnT7f58c4Y5BUa8b+h9ZCg1eOB1oDojCLcSS5AgtYAi80+jvanPxP4Y/h7u6JWJQ8+TB4ACk02VPL4Z467yWiABwzoVCFPVE/Q65FmNv2jY1MolBcbm82GPHVF2DTiM+JH3tsJpe+rkFcOFNV1hWHQuBbCsXuLQqFQnCMeI0WhUCgUShng5+0CP28XtKr9qBfKYGHww9kM7Dgbi3Z1y+NOcgFyiix8iPyF6Ee92sHLz8LHXY0afu6o7ueO6n4eqOHnjhr+7rAxLIp02dAlx4ie22w0INALGFk9V1Q/ZGDxJ8NI7s8Z8kEIAY3Hp1D+XSIiIsBxnKSemZkJtXuVp26H0bcurF4VRTWViwuUfjWhK19fVFd70mwWlOeL+/fvw2JxPqFdQECAQ6ptStlDHXQKhUKhPFe4uyhR3d8LKqUCK0Y3BQBk5ptxP60QD7QGPkz+XmohACDPYMX1BCuuJwh7wmUyGbQn9sP9ahhc3Dzh6u4JF3dPqDXukMlkyM1MQ6BCI2lHdoEJBoMeD87uE9WJ1QyGYWjuWwrlX2bRokUoV94XCoV4NTUs7DyaeNeAhvoRFMpfZuXKlbDaGKhdXEX1/LxcDB40CIMHDy5jyyiloQ46hUKhUJ57KpVzRaVyrujc4NG6ZrNPIfTDNtDrTQ8dd3uo/AOtHvkGGwghsJpNsGYIc9eqlXJUqeAGYmWRmGXFsduZqOHnjqoV3eGilAu2dVcrsKWbQdQmrYFDD+lpVygUyhOgaRUCg0J8/LdXREQZW0OhvPgQAD6t3ka+i3jL1qsJf5StQRRJqINOoVAolBeWil6uaBTgJsjVDgD5Bhv6fHMJ7ev5o7wreOc9M98MK8MhLtOe/i2vyIRPd9gr+3KZDAE+rnyYfFohB4bloDcz8HCln0sKhUKhUChPH1rjoFAoFMp/jnLuKigVCrxeowKCmz9y3o1WFokPe9nXnkqCzcbAw0WOlFwjWI4gVWdCqs6EsKhsfp92n59GBU8X1PBzRzU/d1Qq5wo/Lxe4uNgnpzNZWbiW6nmnUCgUCoVC+SdQB51CoVAoLw1uagXqV/ZC/cpe+PVWHjxc5PhuRD3YWA4pOcYSY9wNuJaQj5wCEwiAnCILcoosCI/XORyz84JT8HBVwt/bFf7eLqhSwZ2ftI68BBPIsQwLg8GA/fv3S25jMpnAEelJvygvDxz7+PKSlpaGigwL0Oy8FArlJYQ66BQKhUJ56VEp5Kjh74Ea/o/GvG66kI1tZ6KxdVJzfmK65BwjsgoezShfYLQBAPRmBnqzHvFZelyMEc4K/8WOa9jxigfvtFcu7wY/bxf4e4tP1POiwbI26PUGXIqIltzGYDA4nZWb8vLA2GzQ6/VOy0tSUhIa2KzAP8ugSKFQKC801EGnUCgUCsUJxTnc271WQbBea+DQY/Fp7Pm4HQoMJt5xTygxYZ3ezMBkZXA7KR+3k/JFj5+QocOD9Fz4ebnCz9sFAT4aPtc7IQSEELBW8dQ4rM32XGR5k8ll0FV/U1qXLS5Da15eHldeOJsVeA6yDshkcqflBbK1YGxWEKnfwXEgL3hEBuE4sAwDk8kkqptMJrAsW8ZWUV5YCAHLspLlCQBYhnkporr+C1AHnUKhUCiUJyCwvAY1/cR7w9t8fhYjO9aEr4bgQZYeCVoDMvLN0BaaYbHZHQyzlcGd5AIABQ77KxVycATYM2sgVK5uULm6QemigULlArlCAWIxwGazPc2fR3mBSM4ugi4nG6fXzRbVOZMeVuvzX17ydDqc/mkpiFItquuT78OjSgNUayAqvxBkJsfj8qFDiI+LE9UZhsHNmzcRGFLGhlFeSKxmI27cuIHg4GDJbSLu3EHX2p0gq+RfhpZR/gnUQadQKBQK5Skhk8lQ8xUvdK/n5aAVGG0Y88Nt+Hmr0a1BeWgLLNAWmpGcY0KCVo9cvRUMa3fijXnZDvtr1Ap4u7uA4zjM230X/t4uD3vh7T3xfl4uKO8h7uBQ/rv4uquwO8SxvAFAZLoKE8T9weeO5X0r4FXxn4ExP2jK1pinhHf5CggY/Jm4aMzHzZvvlq1BlBceyfIEIDZuTBlaQnkSqINOoVAoFMozwNtNBRe1Ev7l3DDwjcoOeqHJhiWHEnA5Ogv9mvnjgfZhD3yeGRwhMFlZmKxGAMCh6+mi51AqZGA54Kv9t1CzoqaE826f0M7P2/W5CJGn/IvIAI2cEZXU8hfnZqvlBBq5eIi3TFbGxjxFGImZ8GSgmSEofx+p8gTYG4wpLwbUQadQKBQK5TnES6NCRW83uLmqML13HX49wxLkFFmgLTDjerIBq4/ex8h2VaB9OHGdttCC7EILrAwHhrU7ZA8yC/Egs1DyXLt1BQiPThc47n5e9onsikxWcNyL49hRKBQKhfIiQx10CoVCoVBeIJQKGSqVc0Wlcq5Qubpjze9RAgceAAgB8o1WaAssGLn2KoLbVoe7koW20D6RnfbhhHZ6s72n1WJjEZ1ehOj0Isnztpn3xyPH/WEueD9vV5iJChzLwZifA413echktOdPHAKGYXDv3j2o1dJDD6pXrw53d/cytItCeXpYzGYU5GrBpMaL6oV5ubCYpSc2+6/AsCyK8rLhInEd9IUFcFP+NzJ7UJ4c6qBTKBQKhfIfQyYDfNzV8HFXQy6XoUODV9CqqmPlz2RlMXDlNTSs7IWOdb2RVWB52BNvHw+vLbAgt8gCAsBoZZGYbUBitkH0nLum9YJcoYDGuwLcy/vBzccP7j4V4eZTESzL4l6yDupANfy8XKBWvnxOPGE56PV6rFqzFkqFeBhqbk42FixYgMaNG5exdRTK0yE7KxNaXT7c09NEdX1KFJQqFeqVsV1ljcFoRlLEFehyHOcTAYC8uEhUqGJBlTK2i/J8Qh10CoVCoVBeUjRqBVRKBSr5uKFPswDRbebuj0dkUi4WDKyDrEK7A1/cA68ttCBVZ4a2wN4DxrEsDLosGHRZjsfZdoX/39tNBW83FTxclHB3VaJAb8SJmynIysmDh4sSbi5KlPdQ8annbOyLnVKrJLK2YyVnJ694aVMZW0OhPH361vfCe63MotqGMA+ciBNPp/dfQgbgvRZu6N9E/DrM+80dSWVrEuU5hjroFAqFQqFQJJHJZFAq5GhctZyoflfLYuIPV9BvyX4Y87NhzNPCoNPCkJcNo04LQ74WGZHh0KgVMJjtKb4KjDYUGIXpvqJT8xCdmidph1wmQ9//nedD6yt4quH+0MGPzrLPeH8+Ood3+j1dlajg6QKlgk6MRKH8E8yGIhTk5+PSlmWS2+RkZ8NYoIPGh/b9Uij/FtRBp1AoFAqF8sS4epaDq2c5lH+1toO2a3InbJ3WEa9orNA+7IUvMjEwWBjozQzWnEzAa4FeqFnBFXoLA4OZgc5gH0OfU2QByxFwhCAl14iUXKOkDVM23RAsF4f6+3m5ghCClUfuo5qvC98z76VRwd1VCXcXBZ3NnkIpBeFYsCyLKS2k3YVPr3JgGfGsARQK5Z9BHXQKhUKhUChlgkatQNUKbqhawU2wfnNYOtrUewXvtavksA9HCD4IvY88vRETOlexT3SXb4bOYIXBbHfyk3UWpOsM8PNygcHCwGBhwXEEhAA6vRU6vRUAcPhailP7Fu++ju8OKuDuooSHqxLl3NT8rPbafAOsGiXuphTA39sVvp5qyGnaopcWg16P1Jg7UBSKhyznZqbDw/fFb/WRyYC2vvmSOn0GKJR/H+qgUygUCoVCeW6Ry2RQqxRwd1GhcwM/0W323czHit9u49jsDvw6g5mBtsgCbb4ZmfkWfLEvEn2aV0aR0T4JXnahBUUmGyzMo/HthBAUmRgUmcR7BJMBjFyTCwBQyGXwcVfDzUUBDxclCiwc9EYLPtt152GvfPGfAh6uSsjkSnAch5yEe3DxKAeVxh0qV3eoXDT/rcTeLwmFBfnQp9xDOZt4+sJCbSoY8vJNhkihUJ4c6qBTKBQKhUL5z+HuqkR1VyWqV3QHxwIL9t/DR73roaKw8x4MS2CwMOiz/DKGtauBoBru9l54M4NcvZVPS3c+OhcMy4HjOFgYDixnz0ePUpnpjtzMcGrX4S/fFyzLZHIoXTVQa9yhIjZcvngBlSpVgpeXF7y8vODp6cn/Hx8fj3yVGefcHo2/93gYou/mQqt0Zc3A15ToWSdHVPs8Q40H/525DZ8qhBBwLCuucRwIHX9Cecmgb3MKhUKhUCgvLUqFDN5uKsjlMviX0+D1auKT4Y376S68XeX4ZkR9FBht0BZaoNM/CrM/eS8fV2OzMDSoMr/OPsaehdHCoNDMIE1ngkLlAsb6KCyaEA42kwE2kz19XX5eHu7cuePU5hOXxdfL5fae+F7LwnjHvWRvvpGRgRCCbWFJcHNRwsNV8ain31UJDxd7+jeOow4RpWxIzCpAZpoWf6yeKb6BuQj5Wm3ZGkWhPGOog06hUCgUCoXyNyhOE1eSTJMSd5N1mNrTcZI8ACgwy9BtyRkMW3sKMrkSNrMB1oeOuc1shM1kABNxCB3atYOXlxcKCwtRWFiIoqIi/v/w8HCAMcNFzkJvZmC0sIIUdMWOdXqeyan9yw9HO9XHrw2Di0rOj8UvGa6fW2DA5ehMfMeYec3DVcmH+ucbzLAyLLQFFri7KuCmVtIIfopTXvVxwYbB4g1j9zI1+HRLQhlbRKE8W6iDTqFQKBQKhVKGyORyqN08oXbzFKxX6O9hwIABaNy4seh+ISEh8EMOxjV/VH2zMhw/G/66P9NwNVaL+QPqwGBh+VB9vYWB0cIgRWdF2P0stKpVHkYLA72F5Xv7jRYWXIlQYouNg8X2aIK9kkSlWhGVKj1xGAB0W3IWgH0OAY2Lwt6b76KEXK6A0WjE6dWzHo7Dd4PazcM+Hv/hMsuyiEzWwVxezo/hd3NRwkX54ozpzi00IUefhsgTu0R1JjMGebrcp2pDXpEJOn2CpA3W5AgY87Kfqg1/BblMhnIqx3IGAG6KJx8nkKfTIfpaGJTJ6aJ6UXQk3Dy8UPmJz/TP0RUakWNIlS4vGdHI1+nK2CrKs4I66BQKhUKhUCgvKGqlHGqlGj7uavh4uMJFpUSHehVFt41It+JCdDa+H9fcQSMEMNlYdFx4Fl+EvI5qPnI+PF/Ph+yzCA1LQYCPBrX8NA978Rk+NZ7BwiLPYAPLlejVJ8SumRkAFn594vU/nf6uz7ZecVinVMjsofpWDim5exF544rdqde4Q6F4FNGgi7sHNWvC3F8eTeCmkMv4kP/4HBtsDIvfb2Xw0QF8FICrEq4uKodz/10MZis8YUMzjficBEnQIdVoeOLzOMNotqKcm0HShhiShxxDkaj2X8Jo0KMGm4uaGjdR/RpbAH3hsx3WoTdZ4QlW8l4lIhepBn0ZW0V5VlAHnUKhUCgUCuU5QF9UhKSkJLi6uorqRUVF8HVj8TSqbzIZ4KZWQCaToZKPBg0qi9vw680ctK7rj2ndqojqc/Y9QHx6Pn4c15gfh1/svOstDKKyrNh27gEa9H4XNlPJMP9H/+elxsFTo4LJwghC+BmWoMBoAwDYCnTQFzjvUTycW+BUn73T+Vj/X2YPhdrNEypXN6g0HpDJH/Xg5+Xl4YcjN7D3T3v8vgwyqJUyfjx/Wk6R3dnPvA6Ph+tcVY/2L4IFFrMZyTfO8utkcgU/YaCaMOA4DozVDLla/F78FepWUGBCHfGe+h0FSsSk/eNDv1C0DJRjiMR1KExU4cbTDWb4S1T3UUreq4NWBW5EPdnxbTYbCnMyAWhEdVluDvR6x1SXLzKEEERFRcFisaBWrVrw8PB41ib9JaiDTqFQKBQKhfIccPv2LRQUFKBiRfEe8Dt37sC3gR8Al7I17B/gqVHCU+NYzfSrwGL35VQ07fee5L47J3XElo87oZoXCyvDwfjQuS8Ox5+27S7krl5w9fEDxzDgWAakRK+9UZeJcq5Aj8aP0vKxHOEjAeK0JiRmFaGmv3uJ6AAGDCvsRbUYimBx0sOckGmFs9HRWgArjjhvJDi1SmJytIf8/H4HyBUKeyOBq7sgJZ+xoADzt4Th4dx+kMnsERXFjQQZuUWwWi346qCNjxJQlxgmcD3ZhKJCPe6d/IVfJ5M/PJfGHaQgExzHITHbwB/TTa1wai/l+UWXm4uI079C4S4+3p/kJqHc8/9q+ctcuHABU6dOxfXr1wEA5cuXx2effYaPP/4Ysud8YgzqoFMoFAqFQqE8J1RsMxCKwIaimvvV62VszbPHHsIvRzn3R2HnLiolhrWphLFt/UX3+Wi7DSaLVXLCvt038rDq0B3snhYkWG9hOBjMDIosLIZ8dwWdJy4EJ1fDarb37JdsBLj763p0aRSABn5yh/31Fga/39ZCKZehlr8bPxTAwnAoHuZvtHHINzJw932F359w7MMJA41gmUdjsjmWlWwsyC10PiGg3mRFktZ5GPvl7d841Qcsv8D/L5PZowV42wjBni8/AIrXyQCFysWeNtDVHea8TBwozMbdaBf7MAK1Ai6qR05+VEo+CowWfHskhl9XPBzBzUUJnUkOm82G9MhwPpJB5eomcLBYloUhPxfEKj5enWVZFBkt0BY82ketlMPdVQGV4sWZ1+DfYHpbdwRVtolqi//0KWNrnh6JiYno2bMn/Pz8cPToUQQEBMW1a6sAACAASURBVGDZsmWYMWMGXF1dMXny5GdtolOog06hUCgUCoVCeelxUcrh4qGGt4cMMpkM/rUaQeklHs0QfyIUresFomcd8ap0ZIYFFTzU+HrYa6L6kftGrDoej95L94nqpDAbhxe9iy6fbITF/Gi2/5KNBJd+nI9RnWqjXoVH+1lsHD8p4KazKfD1UKPRqx78MAMry6G4lSCzkEFWoQ3lazxqECIcxw83sBoKYNY/GscP2HclIKXWEaB4HQEYiwmMxQTAniM+NduC1MfMRbflXKJT/djXU5zqOz8b6VRftT8Dq0TWq5VyyGRycDIFsuaPtE9aqHGHssSwAs6Qi7y0JBjXzhY9NiEcbDYbPv/lFlQK8bHsJosVu8/H4fxde0OTfUiEnM9+oM0zwGa14tD1dD5aoeSQiORsM2xWK7RxEeI/0FQAm80mrQNgGAYPMvLhViLlvEopR/1AL8l9XlS++uorFBUV4dy5c2jatCkAYPv27bh//z7mzZuH999/H0rl8+sGP7+WUSgUCoVCoVAoLyFypRJyuRyeFQPgLrHNNZUKDatVRNtXxfVfb+aicRVvzO1fU1TfcbUAO69p8dYna0V1c1IEfv3qQ5yf144fYmC0suBK+KBjNt5G2+Efw61KfX4dYzHbow7MRtz55RvUe8UdjfwV/ESDVuZRI8P1xELoTTZ0rOfLr2M5ws9dkK1nkJSth6tXeVhNhoeO/7+H3RYOAANdcozTbQuv/uFUPxOZ6VSPTNYhMllaz9AB81IeM6/C4nFPpH+9N1yw7OftghNzOjrd50XkzJkzaNCgAe+cA4BcLkdISAjmzJmDiIgINGvW7Bla6BzqoFMoFAqFQqFQygSzlQXDMEi9c0lyG47jwHFPnl7recZgtsFqsUheB5lFD6tVPPVYWSOXy+ClUcFL4zi7vUIuh7dfADwq1xLdN+HoRjSp6Yf3WolPzjV7bzwSswqxYEgDUf1WOouPNl/F4O+OArD3VjMWMwh5VD5OLRiObv+3Bpx7edFjnFo0EiPbV8OA+o96xS0Mx2co+Om8FtH5StR4ayQ/cSFre5RxgNWlICPqJiq36Sd6fMIyuHN0C0Z1qA5XiR70TWeT0OY1f7zmL7SheEjE+RgdlHIZ/L3UwiERD7dlWAIrw0HpKj4TPQgBYzFJ6wAYsxEuKgVKRvW7u/z3XEGdToeoqCiEhIQ4aI0aNQJgH59OHXQKhUKhUCgUyktPkckKhrHBGn9Zchvm4cRvwH93QjJdkRkWk0nyOrBWE4xGoz2m/Dmf0KoskcnkUJVyQuVyOdQad3Aa8UYAuVwOF5V9krxiPAD4eqgBAP4+BqRxGtQM6iG6vy3+Eti8DLw+YLyoztksuH9iB8Z0rgVvF/GGpe2X0tG5USD6NxGfoO2dHyLwircLloXUFdUP3jVg7akE9F76q6gOQy6OLHwXvb86JK4DOPBxdywZ2RJBzzLh+79Afn4+vvvuOwCAp6cn3ntPOOFkVlYWACAwMNBh38qV7T8+M9N5tMOzhjroFAqFQqFQKJQyQy6T4bsg6bxWLaR9jP8Ubmq55HXQmYCeziOqKZSXEoZhkJhon7OgXDnHBg+GYQDYG2ZKo1DYG/1sNvGJ8p4XqINOoVAoFAqFQqFQXkjy8vJw4vsvAIVaVNfl5sKkrwDgn+eTf9ak5BQhP0+HU9/NEN+AtSI/P79sjXpGVKhQge9BF8PFxZ4rzmKxOGgmk0mwzfOKqIPOMAz27duHmJgY+Pj4YMSIEfDx+XtT7ycmJmLPnj2wWCwICgpCly5dnvuccxQKhUKhUCgUCuUFghAs7FkRr3iIp0wb9q0C4iPDXyAI4OGiwMaB4v5YnonBO9+WsU3PKVWrVoVarUZcXJyDFhsbCwCoV69eWZv1t3Bw0OPi4tCnTx9ER0ejWrVqyMzMxLx58/Djjz9i0KBBf+mgixcvxsKFC+Hm5gYPDw/MmzcPb775Jg4cOAAPD/HxIRQKhUKhUF489GYbbDYbok6Lp4sCSo4ppg31FMpfwcpwYFkW9//cByLx3FgtloeTmT273kCrzYb46+fgkpwkqhcVFsBi9oR91PfTo7yKgb/E+G/Zf+S9I5cB/i5mcY0pY2OeY1xcXNCiRQvcvHkTLMvyYe0AcP36dQBA27Ztn5V5fwlBUxPHcRgxYgTS0tJw5swZJCQkIC4uDrVr18bo0aORkpLy2AOePHkS8+bNw4ABA5CSkoKUlBRs2rQJp06dwieffPLUfgiFQqFQKJSyx2RlwbEs6imSJf84jgXH/rdn5aZQ/k0Y1j6T/WvyFMnnimEZMLZn65mxLIvKsizpZ99mAWN1DDWmUJ4mAwYMQGZmJrZu3cqv02q1CA0NRdOmTVGlSpVnaN3jEfSgX716FeHh4Zg3bx46drTnxAsMDMTq1avRunVrbNq0CZ9//rnTA65evRoajQbff/89PD09AQBjxozBgQMHsHHjRixfvhxubtIpACgUCoVCobxYyGTAh69JT/oVWoa2UCj/BoQQ6HVZUFrFHWCWtTdMPe3pnKa8poNMJh6gveMJh45aGXvKO31OhqhuycsBIY8PDu9fk6BZZfHn/7j6yWbiL26okLIRsN8r/AU7pbAxLGxWi+Q5bPk6MM/5pGIUIR9++CF27tyJsWPH4ty5cwgMDMTGjRuh1+uxYcOG537YteCtcvHiRQDAm2++KdioZcuW8PDwwIULF5wejBCCixcvonnz5ihfXpiLsGvXrjh06BCuXr3KO/8UCoVCoVAoFMrzBEcIGIbB7SNbIFeJTyxm0BfBajbiWYaXPykZOgMKdLm4uX+9qM7qdbBZn61jqtNbYDabJW0EABvDgH2CtHzpuUXQphukr0OhFvnZ2n90bMqzwdXVFWFhYVi3bh22b9+OS5cuoXv37pg3bx5q1ar1rM17LAIH/dq1awCA+vXrCzaSy+WoX78+wsPDnR4sKSkJubm5DvsDQIMGDQAA4eHh1EGnUCgUCoVCoTzX/NBTCV938aEZHSL+GznafT1U2NNf/DfeTNVgfGQZGySCUiGTtBEAml958nPUr+SK7yXOcfaBJxbuffJzUMoWd3d3zJw5EzNnznzWpvxtZKRE7Erfvn1x+PBhMAwjGFAPAD169MCJEyfAsqxkWEBERASaNGmCWbNmYdmyZQLt+vXraNGiBebOnYtFixYJtNDQUH6MQExMDFJTU//2rPFlCcdxKCwshLzEdSAQTn3DsCzkcjm/TfFFLt6G5ewvAcXDHH2ldY5wIOSRXvocBAQsy0FZ4j4REMFEGAzLQqGQ8+tK28hyHGQyQC4Tt+HxNhJwXGkbHK+DQqEoYbeYDbInuE7/hg0sZLInuVcEhBAn98oeCvc4G59qeSEErMN1ejnLCyEcFHJxG4rvlVMbWBayJ7pXZVNeZHiUA/TZlZdn/WyXTXlxZuOzKS8i90ou57/dotcJTsoLx4GAlpd/616Vrl+VhOM40dy9JXVnNv63ysvzXncom/LydOsOj7PhL9Y1H1denNQdHldexO9V2ZYXQgg4Qpw+m4+tO5RRXfPx7xeZ4D1c+hxqtfq5Hoqs1+uhVqtRVFT0rE15qgh60J2NM5HJZI8dh/K4/QF74ShN+/btERgYCMDuoJ88eRJBQUFOz/W8sWDBAsycOVOyUIeGhqJly5ai0QUAcPbsWej1evTu3VtUT0pKwuHDh/HBBx9I2vDpp59i6dIlkg0o33//Pbp164YaNWqI6seOHYNarUaXLl1E9ejoaFy4cAFjx44V1S0WC7788kssXLhQ0sbvvvsOISEheOWVV0T1X3/9Ff7+/pL3/9atW7h//z6GDRsmqhcUFGDt2rWYM2eOpA3Lli3DhAkTJBuBdu3ahbp16+L1118X1S9fvoyMjAy8/fbbonpWVha2b9+O6dOnS9rw+eef49NPP4VGoxHVN2/ejNatW0umgThz5gxMJhN69uwpqicmJuL333/HpEmTJG2YNWsWvvrqK0l9/fr16NmzJ6pVqyaqHzt2DC4uLujcubOoHhUVhUuXLmHMmDGiutlsxpIlS5yWl2+//RbDhw9HpUqVRPUDBw7glVdeQevWrUX1mzdvIioqSrK85OXl4fvvv8fs2bMlbViyZAk++OADeHt7i+o7d+5EvXr10LRpU1H90qVLyMrKwoABA0T1jIwM/PLLL5g2bZqkDfPnz8dnn30mmbdz8+bNaNOmDerWrSuq//nnn7BYLOjRo4eonpCQgOPHj2PixImiOiEEs2fPxrJlSyVtXLduHXr37o2qVauK6kePHoWbmxs6deokqt+7dw/h4eF49913RXWTyYSvvvoKX3zxhaQN33zzDUaOHAl/f39Rfd++fahcuTJatWolqt+4cQMxMTEYOnSoqJ6Xl4cNGzbg008/lbThyy+/xJQpUyTLy/bt29GwYUM0adJEVL9w4QJycnLQv39/UT09PR179uzB1KlTJW2YO3cu5s+fD7VaPCfwjz/+iA4dOqBOnTqi+h9//AGWZdGtWzdRPT4+HqdOncKECRNEdZZlMXfuXCxZukTSxjVr1qBfv36SE/UcOXIEnp6e6NChg6geGRmJ69evY/To0aK6wWDA8uXLnc6bs3z5crzzzjuoWLGiqL5v3z5UqVIFLVu2FNWvX7+O+Ph4BAcHi+q5ubn46aefnE6Qu2jRIkybNo2fs6c027ZtQ5MmTdCoUSNR/fz589DpdOjXr5+onpaWhn379uGjjz6StOGzzz7DF198AZVKJar/+OOP6NixI2rXri2qnzp1ChzHSZaXuLg4nD59Gu+//76ozjAM5s+fjy+XSJeX1atX4+2330blypVF9UOHDqFcuXJo3769qH7nzh3cunULo0aNEtX1ej1WrFiBefPmSdrwv//9D2PHjkWFChVE9T179qBatWqS5eXq1atITEzEkCFDRPWcnBxs3rzZaW/fwoULMX36dMmMSFu2bEGzZs3QsGFDUT0sLAwFBQXo06ePqJ6SkoLffvsNU6ZMkbRhzpw5WLhokaQj+MMPP6Br166oWbOmqH7ixAkoFAp07dpVVI+NjcXZs2cxbtw4Ud1ms2HBggVYvHixpI2rVq3CoEGDeN+iNAcPHoSvr6/kTN537tzB7du3MXLkSFG9qKgIK1euxNy5cyVt+OqrrzBu3Dj4+vqK6rt370bNmjXRvHlzUT08PBwpKSmSGbS0Wi22bNmC//u//5O04Ul9k+eR1NRUyWfwPwUpQUhICAFAcnNzSWlat25NPDw8HNaXJC4ujgAgEydOdND++OMPAoAsXbrU6TFeVMqXL09ycnIk9X79+pFff/1VUv/f//5H/u///k9Sv3jxImndurVTG+RyOWEYRlLv0KEDOXPmjKQ+Z84csnjxYkn96NGjpEePHpJ6YWHhY8tI48aNya1btyT1yZMnkzVr1kjqO3bsIEOHDpXUU1JSSGBgoFMbqlatShISEiT1ESNGkK1bt0rq69evJxMmTJDU79y5Qxo0aODUBm9vb5KXlyep9+7dmxw6dEhSX7p0KZk1a5akHhYWRtq2bevUhlKPvwNt27YlYWFhkvqnn35KlixZIqkfPnyY9OrVS1LPz88nXl5eTm1o2LAhiYiIkNQnTpxI1q1bJ6lv27aNDB8+XFJPTEwkVapUcWpD5cqVSXJysqQ+dOhQsmPHDkl9zZo1ZPLkyZL6rVu3SOPGjZ3a4OnpSQoKCiT1nj17kiNHjkjqX375JZk9e7akfvbsWdK+fXtJnWVZIpPJnNoYFBRELly4IKnPnDmTfPXVV5L6b7/9Rvr27Sup5+bmEh8fH6c21KtXj0RGRkrq48ePJxs2bJDUt2zZQkaOHCmpP3jwgFSrVs2pDQEBASQ1NVVSDw4OJrt27ZLUV61aRaZMmSKp37hxgzRt2tSpDW5ubkSv10vq3bp1I8eOHZPUFy5cSObOnSupnz59mnTq1ElSt1qtRKlUOrWxVatW5NKlS5L6jBkzyNdffy2pHzhwgPTv319Sz87OJr6+vk5tqFu3Lrl//76k/t5775GNGzdK6ps3bybvvPOOpB4bG0tq1qzp1AZ/f3+SkZEhqQ8aNIjs2bNHUl+xYgWZOnWqpH7t2jXSrFkzpza4uroSo9Eoqb/55pvkxIkTkvoXX3xB5s+fL6mfOnWKdOnSRVI3m81ErVY7tbFFixYkPDxcUp82bRr59ttvJfW9e/eSgQMHSuqZmZnEz8/PqQ21atUiMTExkvqYMWPITz/9JKn/9NNPZMyYMZJ6dHQ0qV27tlMbKlasSLKysiT1t99+m+zbt09S/+abb8jHH38sqV+5coW0bNnSqQ0qlYpYLBZJvXPnzuSPP/6Q1OfNm0cWLFggqR8/fpy89dZbkrrBYCAajcapjc2aNSPXrl2T1D/66CPy3XffSeq7d+8mgwcPltTT09NJpUqVnNpQo0YNEhcXJ6mPHj2a/Pzzz5L6Dz/8QMaNGyep37t3j7z22mtObXhS34Ty7BDEajRr1gwAcP/+/dJOPO7duyfZylNM9erV4e3t7bA/YO8dAfDYY1AoFAqFQqFQKBQKhfIyoviiRLwgIQSbN29GzZo1BWFCERERWLlyJUaOHCkZ/gzYw9jPnj2LK1eu4MMPPxSEYy5fvhxRUVFYs2aNZJjmi4xer0fnzp0lQ8RMJhMaN24MPz8/Ud1ms+GVV16RDFHlOA4qlUoyNBOwh9x0795dMsTdaDSiefPmkqHdVqsVVapUkQyBZ1kW7u7uThtZTCaTZNhSsQ2tWrWSDOezWCyoVauWZNgjwzAoV64cGjduLKqThzOvOpuIUK/Xo3379pLh5WazGa+99hoCAgJEdZvNhooVK0qGBBWPEZQKnQLs96pr165QKsXTsxSXF6nQS6vVioCAAMkQVZZl4eLigjfeeEPShsLCQnTv3l1S/yvlpWrVqo8tL8UNf2KYzWan5cVgMCAoKEgynK+4vLz66quiOsMw8PHxcVpeWJaVDKMttqF9+/ZwdRWfyddsNqN+/fqSwzZsNhv8/PwkhytwHAeFQoE2bdpI2vBvlJfAwEDJENW/Ul70er1kCCtgLy8tWrRAuXLlRHWLxYJq1aqhevXqojrDMPD09JQcWgLYr7Wzb9DjyovZbEadOnUkw2SLy4tUODF5OBbSWXnR6/Xo2LGj5HeuuLxIDduw2Wzw9/d/bHlxNgxMr9eja9eukiGoJpMJTZs2lQwTtFqtqFy5suRMtyzLQqPRSIbyymSyf6W8VK9eXXKIzePKCyEEVqtVcggOYC8vbdq0gbu7u6j+uPJis9ng6+srGU5cXF6kwq6Bx5cXk8mEhg0bSg7bsFqtqFSpEl577TVRneM4KJVKp+WlqKgIb731luT42uLyIhWqa7Va8eqrrz62vLRo0UJULy4vb731lqSNRqMRb7zxhuTQEYvFgho1akgOsWEYBt7e3pJDkYp/x+PKS9u2bSXDhc1mM+rWrSsZVv248lI8BLRdu3aSNuj1enTq1Ely+MpfKS+Pq2sqlUrJYWPA48uL0WhEs2bNHLI5FWOxWFClShXJEPjHlZfic5TOOFVaf+ONN+Dl5SVpQ82aNR9bXqSGIgH2ayk1ZAuwl5d27do5LS9/pa5ZPMl2acjDYcWPKy9P4ptQnh2CSeIYhsHrr7+O9PR0/Pnnn2jcuDHy8vIwaNAgnD9/HpGRkYIKXvPmzVG/fn1BEvj9+/dj0KBBGD9+PNasWQO1Wo1Dhw5hwIABGDZsGLZt21a2v5BCoVAoFAqFQqFQKJQXAIGDDgC3b99Gr169oNVq8frrr+PBgwcwGAxYu3atw+RgcrkcLVq0EKRfI4Tg448/xsqVK/Hqq6/C19cXt27dQrNmzXDy5EnJFjUKhUKhUCgUCoVCoVBeZhwcdMAe8hAaGorY2Fj4+PhgzJgxoiE7u3btQvny5UXD2CIiIrBr1y5YrVa0bt0aAwcOdJqegEKhUCgUCoVCoVAolJcZUY9Zo9Fg4sSJ+OabbzB37lzJ8TRDhw6VHGPWuHFjLFmyBMuXL8fgwYP/0855ZmYmoqOjQQiBzWb7W/umpqYiIyNDUk9JScH27dudHqN0zvl/gtlsRmRkJIxGI1iWdUiZRwhBTEwMsrOzwXGcaLq81NRUJCQk8ON6S6PT6RAZGQnAPpzi75Cbm4v4+PjHbpeUlITk5GRJG4p/y+3bt5Gfny9YHxcXB4PB8Lfs+ifk5OQgPj4e5GFOy5KsWbMGer3e6f42mw3R0dHQ6/UOx0hKSsKuXbv+kg3JycmiWun1SUlJ0Ol0jz1maTiOg81mg81mk7wXzjAajYiLi4NWqxXV09LS8Ouvv8JoNCI9Pd2hTBFCkJKSgri4OFgsFoGm1+uxdu3av21TSS5fviy4V7dv30ZaWtpf3t9qtWLPnj2CdT///LNg+cqVK4LlI0eO/C0bT548iVu3bjndhhCChIQEZGVliZZJQgiOHDmCtWvX4tChQ/yzn5iYiFOnTon+mc1mwTEYhkFsbCzi4uIcysK5c+dw6dIlUduK3zVif3+F4t8j9VfM1atXcerUqb90TGfnunr1KsLDw8GyLLKyshy2SUlJweHDh8EwDNLT0x+bulSMpKQkZGRkiN4rwH7NzGYz/1eaqKgonD59GgBEvz1WqxVRUVEwGAyS53CGs9SNxURERODs2bOiNuzbtw+xsbGS+969exfZ2dn8cm5uLo4dOybYhmVZnDlzBvfv34fJZEJeXt7f+QkA7O+fO3fu8O+vktdBq9XiwYMHTvfnOA7nzp1DREQEzGYzcnNz/9b5z58/D6PRyC/fuHHDaV2hNDabjf/e/lMWL14sqNOsW7cOCQkJgm1ycnJw5MgR6HQ6ZGdnO7xrn5TU1FTBckJCgiD/cUxMDO7evStZTpOTkxEXF8cvGwwG7N27l182mUyS6QL/Djdu3MDq1athNBpx9+5dwXW7dOkS/vzzT9H9srOzkZmZ6fBX+ps7a9Ysp+f//vvvUVBQIKlv2LDBqQ7Y32Hx8fHIyMgQfc+mpKQIlm/fvu1wjMLCQr7c/dX3dDExMTHYt2+f022WL1/+t45ZmrCwMEGZunnzJiIiIgTbEEKQlJSEqKgomEwm0eNkZGRIfu8JITh8+DBCQ0MB2MtGaYrLCcMw9jzwpcqvVqvFwYMHkZeXh6ysLP65mjlzJjiOc6gr/BMIITAYDNDr9dDr9f+onkZ5evx3veYyYtOmTRg9ejSf83rw4MGCB+3s2bMICgpC69atERQUhKCgIMFL0mAw4J133sGgQYNw/PhxhxeaRqPhKzJS3Lx5U7RhYMeOHfy5a9SogWbNmqFevXpo1KgR0tPT+e0yMjLQvXt3vPfee4iNjcWmTZtw+PBhXmcYBkOHDsXUqVOxe/duREdHO+SNXrx4MSZPnoz58+eDYRiEhIQI9KNHj2LgwIEYP348AGDUqFEwGo24cuUKf11K/4WFhQlsmDFjBnr27Im9e/eK/t5Zs2Zh2rRpWLp0KUwmk0P+yhEjRsBisWD9+vX49NNPMWTIEMELKTExEW+++SYmT54s+PBkZ2ejdevWon8lX5KEEHz22Wdo2bIl/xtK50IPDQ3lryUAh9zY6enpTp08nU6HHj16YOzYsbh16xZ27dolcMg1Gg3OnDkjuT9gr2QNGzYMM2bMAMuyDjk2t2zZwt//tLQ0vPPOO1AoFIiIiOB/d926ddGoUSM0atQIdevWFVSQjUYjevbsibZt26Jr167o2rUrvvvuO8E5Vq9ejRYtWvDHGzFihEA/ffo02rZtizlz5mDIkCGYOnWq4Lm6fv06Ro4ciTVr1iA3NxcHDhwQ/G6z2YzBgwdj/PjxmDNnDtq2bSuorKrVaoSFhTl1Pvbv34/mzZsLnt2S/P777ygsLBTYXLJxo7CwEP379xfsv2XLFl5nWRbnzp0TXLfjx48LznHo0CG8//770Ol0mDBhAq8fOHBA8rkp2ZBlNBpFK1HFcByHd999F5MnT0ZoaCiSkpIc8mtPnToVBw8ehEKhwLFjx/j8uMnJyThz5gy2bduG6dOn48SJE9i+fTs+/PBDQSU9IyMDHTt2xOzZszFr1ix06dJF4GAVO7ZiTJ48Ge3atUOdOnVQqVIltGrVCr6+vg7Pze+//44WLVqgVatWfJkyGAy4cOEC2rRpg6CgIGg0GjRt2hT169dHuXLlcPnyZX5/lUqFixcvSl4nQggWLVqEFi1a8Nd50qRJgm1mzpyJjRs3YuXKlZDL5Q76uXPnMGbMGHz55ZewWCz48ccfBY0nhYWFGDRokOA3lJyzhRCCSZMmYfLkyVi3bh2ys7P592kxS5cuRfPmzdGjRw/07NnT4T38008/Yc6cOVi61J7PfsaMGYIKaE5ODv9+uXv3LrZu3cpXmLt27YqgoCAEBASgSpUqaN68Odzc3BzyAF+/ft1pA+y3336LZcuW8RXtDz/8UPAe1uv1Th1LLy8vjB07FkajEQUFBRg6dKhgkqXid1rxu9Fms2HatGmCYxw9epR//xTfz5KNGbGxsejevTtGjRqF3NxcLF26VFBGi4/Zq1cv7N+/3+F7RAjBiBEjsGfPHmzatAkAHPJK79mzBy1btuTvd+lJRY8ePSpoMD558qTg21BQUICBAwcKysuOHTsENixevBhdu3bF1q1bBfd57ty5CAoK4p+FFi1aoGLFioJJucLDw3Hjxg1cvHgRFy9exPnz53HixAnB5GQPHjzAwIEDsWHDBsTHx+Ps2bMC5xewO1QtW7ZEkyZNUKtWLSxatAiA/b0i9k0dPHiwYP8NGzbwDUqpqakYM2aMoMPHYrFgxYoVCAoKwvDhw/HTTz8JnFsvLy9MmTIFWq0WZrMZw4YNE0ym6erqCqPRKNqAsmrVKslvf8l33PHjx7Fo0SKcPHkSBoMBYWFhgne7SqUSvG9KsmDBAkyaNMnhb+XKlYLtsrOznTbyZGRkSDa6A/ZveWkHuyQcx2Hck/BClwAAIABJREFUuHGYNm0aNm7cCK1W6/AO++yzz/jGs8uXL+Pzzz8X6BcvXkTv3r0xdOhQAMCECRMEDeyZmZno1q2b4HtVsq6p0WgE102MK1euOHX8z549i9atWwuei5INdBEREcjJyeGXr127JrhuFosFQ4YMwaRJk7Bw4UK0bdsWN2/eFJzj888/x/jx4/HFF1/AaDRi2LBhAn3+/Pk4d+4cDhw4AABYsWKFoLEtOjoa3bt3x/Dhw1FQUIAFCxYIvtOxsbEYPHgwfvzxRyQmJuLMmTP8sWJiYhAaGoqtW7di586d/F/pBqA9e/YI3nGlJ7M7efIkmjRpgr59+2LAgAEYMGDAYxsdKWXMv5Ot7eWlX79+hGVZPlfh+PHjBfmK+/TpQzIzMx97nOjoaPJ///d/pGnTpmTJkiUkOzubEGLPLV6zZk3Svn17EhwcTEJCQhxyNw4cOJDUr1+fDBkyhISEhDjkoV++fDk5efIkIcSeP3L8+PFEp9Px+rfffkv++OMPsnr1anLr1i1y48YNQb7i8PBwsmDBAnLz5k2yZs0awnGcIBc5x3F8/uLi61A6V/mgQYOI2Wzm9YULF5K7d+8+9rqUJiUlhSxYsIA0adKEzJ49m89PbTQayZAhQ4jNZuN/f2kbipe7detGjEYjmTFjBklLSxNsw3EcCQsLI6NGjSLt2rUjmzdvJiaT6S/ZlpqaSgYOHEhYlpXcpm/fvoLyMnbsWEG+4g0bNpBKlSqRwYMHk2HDhpFhw4aRpKQkXt+4cSM5cOAA+fnnn0lYWBiJjY0V5CvOz88nNWvWJJ06dSJDhw4lw4YNI6tWrRLY0Lt3b8JxnOS9stlsZMiQIeTQoUOkU6dOJDo6WqCfPXuWLFu2jLAsS1iWJV9++aUg/3VYWJjTnLgsy5J27doRq9Uquc2AAQMEeeLHjRtHHjx4wC/Pnj2bREVFkQULFpDk5GRy6tQp8sMPP/D6sWPHyLJly/jl+Ph48v777wvO8frrr5M33niDhISEkKFDh5LPP/9coL/11lukqKhI1L7g4GASEBBAXn/9ddKqVSvSqlUr0r59e5Kfn89vs2PHDodrX8zhw4dJy5Ytib+/P2ndujVp3bo1adOmDTl69KjDtsuWLSNqtVo0x+/du3eJ2WwWPQch9py2FStWJAMHDiSjRo0io0aNEuSnjYyMJDNnziQxMTH8M1+6PJTONT1o0CDB8nvvvUcMBgO//Pnnn5PY2Fh++auvvhLk3P7111/J2rVr+eXbt28TPz8/0qdPHzJ8+HAyfPhwcvDgQV7nOI6MGDGCP0deXh4ZO3aswIZevXoJyktpNm/eTH777Td++euvvxbk4I6JiSGvvPIK6datGxkyZAgJDg4mO3fu5PW8vDzSo0cPp892cY7l4ucqJCREoE+YMIFkZWWRqVOnEr1eT3bv3k327t3L61u3bpUsL4QQkpycTCZOnEgyMjL4Z770verevTvhOM6pjSXfP3PnzhXkdV63bh05dOgQ2bhxI7l8+TK5d++eIF9xdnY2mTBhAmEYhhBiv26zZs0SnKN3796kUaNGJDg4mAwdOpR89NFHDjaUfP9MmTKFaLVaXj9+/Djx9fUl/fv3JyEhISQkJIRcvHhRcIyLFy+S4OBg0r17d4dc6g8ePCDTp08naWlp/Huo9L3o2bOn0/Iya9YscvfuXTJ37lySkZFBfv/9d9F8xcnJyeSLL74gjRs3Jp999hlJSUkhhBCSk5NDxo0bR/R6PZ+jvLQNb731luC5KcmgQYNIQEAAad68Of9+6NSpk+B9FBoaStasWSP5G4rRarXk66+/Js2bNyfTpk0TvM/fe+89vi5gNBrJyJEj+fIzd+5c0qRJEzJ16lQyffp0MmPGDBIaGio49sqVK8mZM2fI999/T8LDw8ndu3fJwoULeT06OpqMHDmShIaGkjNnzpBTp06RFStWPNbmkpjNZjJgwABy8uRJ0rFjR9E85CzLkhs3bpBJkyYRHx8fcurUKYEeExNDevXqRQYOHCj6jm3bti2pWbMmeeONN0irVq2c5rYXY9q0aSQlJYXMnj2baLVacvjwYcG1un//PqlUqZLg/bJ7926H43AcJ5lffNSoUcTX15e0bduWdOjQgbz55psCfdOmTcTf358MGjSIrzvEx8cL9EqVKpEhQ4bw79mSenx8PPnoo49IcnIy/8yXfr9kZWWRbt26kd9//5107dpV8L0jhJBhw4aRgoIC/tleu3YtOXfuHK+vWLFC9HcXo9VqSdWqVUmnTp34+u769esF2/To0YM0a9aMjBgxgowaNYrMnDlToPft21cyT/z7779PqlatSho2bMh/t/v06SOoD58+fZosXryYX05NTSXvvvsuv2yxWMjbb79NCJGu7xbnTy/WZ86cSRISEnh9+vTpJCoqisyaNYvk5OSQgwcPku3bt/P6N998Q86fP0/Wrl1Lbty4QW7dukWWLFlCCCEkMTGRrF69mgQFBZHvvvuO/9u/f7/Ahi5dugjqlqUZPXq05HWiPB+I5+yh/GXkcjnfksqyLDIyMgTpu2rWrCmZ9qwYi8WCGzdu4O7du2jUqBHKly+PPn364LfffkOFChUcQi9Lp2xYtWqVoAW/dGqd8PBwfPjhh/y+tWrVQkxMDJ+yzdvbW9Aye/fuXUGPhJeXl0BPSEhwSI3Dsizfqmk2mwWthYC9lbo4LI0QgqioKEFah19++QUHDhxAly5d0LVrV9SoUcPhujEMgxs3buD69euoXbs2atasieHDh+P7779HrVq1YLVa+R7RoqIih14NhUKBJUuWwMXFBRqNBtnZ2Q7pmIp7b1JSUtC4cWNotVr06NEDf/75J2QyGTZt2oRt27Zh4cKFUKlUkMlkfGqq8uXLw8fHx+n9VigUvF0cx0Gr1QrS6wwaNMghdUjJdCleXl7Iz8/nz3Hv3j1Bei8PDw+cOHFCsH/pFEIymYy/VwzD8PclMzOT76H54IMPMHr0aCxcuBBFRUWwWCy8nZcuXULHjh35XowOHTrgypUrfJqw1157Dbt37wbHcaJDW2QyGapVq+Z02EtgYCD/XBFCoFAoBOneKleuLGhx/vPPPwXXLTAwUBA2bTAYHFKxlQ6lK53mqHbt2pJDVn755RecOnXKaRqXunXrSkZD9O7dG927d8e1a9ecprPZsWMHjh8/jl9//RVLlixB9erVBb3Hy5Ytw/r16yVTNNWrVw/nz58XrCv53Hl4eAgietLS0hzSD5pMJsTHx6NmzZpITk52GAZiMpkQExODpk2bwmazISoqStDDUbVqVUGkQWFhoSCNYq1atRxC3EtOJspxHPLy8ni7vLy8HIY91KlTx2lobXR0NIKDg/nlypUrIy4ujr/2VapUcbCh5H11d3eXTFtUjMVi4a9NQUGBw1CVgIAA3L17F4C9TJ89e1bQA16nTh2nvfgajUZwzOzsbId3fdOmTREbGyuZftHd3Z0vkwzD4Pbt24L3R/H7pZjIyEhBOrj09HR4e3vz5w0ICHAIeV6/fr2gB710akClUslHUFgsFsTFxQm+J0FBQbh27Zpgn4oVK6KgoEAQsVRYWAhPT09cuXIFKpWKT//p4+ODhIQEvgzGxsY6lOnatWvDarWKXiNA/JtYOt2SzWbD1atXcfXqVdSrVw/Vq1dHSEgINm/ejCpVqiAzM5N/f6SkpDi87+rXr4+CggLRFEx79+7FyZMnnaaAq1OnjmTkSTHk4dC0O3fuoEKFCqhTpw6mTJmCGTNmoHv37sjIyODTlrm6uqKgoIBP47do0SJMmzYNKpUKqampqF+/vkPEUWBgICIiIvhe9TNnzghSrRUVFaFx48bQaDTQ6XTo378/Nm7cKDhGUVERdu7cyZc7Hx8fjB8/HllZWfwwkY8//hgjRozA//73P5hMJthsNj5t1MGDB/HJJ58gODgYI0aMwMqVK6FSqcCyrKAX2tPTEzk5Obh//z5cXV0F6dRKvyOLOXfuHDw9PZGcnOxQzqdMmcKX7bp16/LRTSzLYu/evYKojWrVqjkMVyqdLm7VqlUIDQ1Fx44dMX/+fHz55Zf4+uuvef2nn35yGvHVv39/h17SkvW4fv36OaSHLKm7u7sLvgWZmZn8fU1ISOC1cePGYdy4cQgNDUVKSorgd7i7uwve9ZGRkYJhsPXq1XM6TMPHx8chYrR0+V+3bp3g/VI6fVitWrUke9g3bNiAe/fuwd/fXzJlYGBgID+8RyaTOXyviutPxffCaDQ6fHu8vLz4sPm8vDzcuHFDMFTYy8tL0KsfGRkpqAcEBgYK6jenT5/mM2hVrVoVH3zwAQYMGCCZ/hGw+x7Oykvv3r1x+vRpBAcH/6eHIL/IUAf9Cfnggw/QuXNnaLVatG/fHqNGjYJKpeLDT4xGI5o0aYImTZrwD8GuXbv4yl94eDg++ugjDBo0CFu3buXz0np7eyM7Oxv+/v6oWLEiLl++zDu9AQEBgkq2m5sbvvnmG5QvXx7Tpk3DwYMHBc7I4MGD0a1bN/To0QO5ubm4evUqPvjgA14PDg7GkCFDkJycjH379kGpVOK3337j9eJ8mRMmTIDVasXmzZsFoXQymQzDhg1D+/btkZmZifbt2zuEPU6fPh19+vRBVlYWOnfujA4dOgjCzEJCQvDGG2/gjz/+wOzZs3Hz5k1s27aNb0R48OABhg4dil69emHdunX8y65GjRrIyspCgwYN0L17d3Tu3BmZmZno1KmTw1jINWvW4OTJkxg3bhwAuzNcshK+c+dOrF27FqNGjcLBgwf5XO0mkwlWqxXXrl3D5cuXMWHCBOTn56Nhw4ZYv34976ArlUqcPXsWTZs2RaVKlSCTydCyZUs+pA8A3n//fUF5GT58uKAC6+vri5ycHDx48ID/yFSoUIF3wPr164chQ4YgNTUV5cqVA8MwOHToEAB75eiNN95wCFPy9/cXOBcjR45Ep06dkJWVhfbt22PixIkAgDt37gjue9++ffkK6MKFC3kb+vTpg3feeQf9+/cHIQSHDh3iQ3HbtGnDNzycPHmS/3gPHDgQn3zyCT755BPcuXMHaWlpaNCgAapVq8Y77OvXr0doaCh++eUXFBUVoV69emjWrBkyMzOh1+vxzTff8La9++67GDt2LM6cOYM9e/bwZaoYtVqNdevW4dChQ/Dy8sLVq1fRunVrXLhwAXPnzkXbtm1x//59wYe8fPnyggoLwzCoV68e6tatyz+7JcPIOnbsiK1btyIxMZH/EI4bNw4ajYYPeYuIiMC+ffv4Svi4ceN4jRCCU6dOoXXr1vj0009x+PBhzJ07lw8PBOyNXceOHYNarUbHjh0xb948gYPeq1cvTJkyBSEhIXxFpXXr1nzDk6enJy5fvoyDBw9i6tSpvENQ7BBVqVIF3t7eeOedd2AwGPDLL79g8+bNgvKzdOlSvPvuuygoKICXlxdWrFjhoI8bNw45OTlgWRYTJkwQOIienp4IDg7GihUrwHEcXxlZtWoVfv75ZwQEBCA5ORl79uzBxIkT+XHPxTYqFAq0aNECXbt2Ra1atXDv3j2HkEKFQoGGDRuifv36/L06cuQIf93HjBmDESNGoHHjxrBarUhOTsb+/fv5/V1cXJCamopt27bh3XffhZeXF/R6Pd8opFKpcPXqVTRu3BgBAQGQyWRo1KiRYDzk9OnT0a5dO6Snp+PmzZsO758PP/wQI0eORHh4OM6dO4du3bqhcePGgt+wZMkSHDhwgLf7vffe40N+K1SogNq1a2Pw4MHIy8vD0aNHsW7dOsE5AgIC0KVLFwQGBkImk8HLy0vQYDdnzhyEhIQgPj4eN27cwMSJEwWNlG+//TaCg4ORkpICX19fcByHgwcP8nq9evWQmJiIgQMHwt/fH9evXxe83wD79+jbb79FpUqVMGnSJBw5ckTwPZozZw769u2LxMREXL9+HZ988omgku3p6Ym8vDxERkbyFfHmzZvDy8tL8N0bPXq04JzFlCtXDn369MFbb72FoqIi/PHHH3yYeTFKpdKhvBw9ehSurq4A7M9pcHAw0tLScPnyZXh4eAgcrqioKIwePRr9+v0/e28eT+X6tg8fay3DQqZSokHRrih2GiQqRSNllwY0SltKtYtS7UZ2aVBJSKVBpRlNKkqhiRSihAZjQjLPrGWt3x/rva9nXW72732f7+fzPs8fnX+Vew33uu/rPq/zPM7jPE5bnDlzhoAc/fr1w8+fPzF48GAsWbIE48ePR0VFBZKTkxESEkKdg4WFBYYPH45BgwaBy+WCx+Ph5cuXyMrKwrdv36CkpITTp09T73F0dCTfxSTRkZGRBID4888/SctSc3MzrKysMHLkSHh6epLZ21OmTCEJqbW1NSwsLDBs2DDk5ubC1NSUAn2+fPkCT09PVFZWIisrC66urvjnn38IaGNra4vVq1cjJiYGqqqqGDlyJHWt9fX1ce/ePUyePBm2trYICAjA7Nmzqd/k4OAAMzMzZGZmYtCgQcjJyYGLiwtSUlKotWdtbY2EhAQkJCTg8OHDZM2MGDECTk5OSElJwefPn2FmZgYHBwdoaGhQ607639JgLyBJxHfv3g1TU1Ps2bMHwcHB2LRpE5SVlaGoqAh1dXVWL7I0EO/s7IyNGzfi4cOHiIqKgrOzMwXo8Pl8FBQU4MqVK3BxcYGCggIaGxvJ/lhXV4f4+HjExcXB29sbampqrN57LpeLqKgoAlrweDwSywCSdX/r1i0kJyfj5MmTePToEbWfqaur486dO0hOTkZwcDAeP35MXRNNTU0MGDAACxcuRH19Pe7evUvAlNjYWIrmPXv2bEREREBZWRm+vr7k75s2bYK9vT1KSkowY8YMDBw4kAJsuFwuPDw8cObMGRJPbNmyBTNmzAAgeS5rampw5swZ2NraQl9fH3l5eSQuBiQAc3BwML59+wYdHR24ublR10lZWRkjRoyAoaEhWcvXr18n+0l5eTkCAwOp97i6umLEiBHkup47dw4PHjyAqqoq0tLSMGrUKEydOhXbt2/H5MmTMXXqVFhaWqK4uBgTJ07EP//8Q33e3r17sWrVKnz48AGZmZnYu3cv5eNcXV3h4OCA79+/Iz09HUpKSvD09CTH7ezsyHOloqKCsWPHkhYZJv7raCYmJhQg1draCn19fQwdOhQcDgfy8vIkVgQke8WyZctw9OhREoNeuHCBxPu/7H/eOlVx/2X/36y+vh7FxcXQ0tIiTqCpqalTgR5A4kiZoKCxsREKCgqkAt2xEtbS0oKZM2dCXV0dioqKKCgowJw5c7B582bymrlz52LlypWIiIjAhQsXsHDhQty8eZP6nC9fviA9PR2KioqYOnUq1UcGSFDfgoICiEQiDBo0qNMqcHFxMaqrq6Gvr8+qigCS/uiSkhIMGDCAVZlmrklhYSF69OhBBVqApHIXGRmJxMRECIVCjB49Gk5OTiQQaGlpAY/HA4fDgUAgYFVEGKuoqEBpaSn09PRYlYm4uDiUlZVRf3N0dCS/taamBqqqql1WwK9duwY5OTnIyMiAx+NhxIgROHr0KElYxGIxhR4Dkg2nIwJcXV2NoqIi9OnTh9p4AElV98KFCygpKcGECRMQExODZ8+eUQm2SCTC169fIRAIYGBgQM7Xx8cHrq6urH5vIyMjqnoISKpvRUVFGDBgAAtJbmhogKysLFmLVVVVrPGIP3/+xPPnz8HhcDBx4kTW7+jK6uvrOxUi4XK5UFFRQXNz878+Nx3vjUAggFgsZq1noVDYpdieoqIi5OTkcODAASL+lJaWBl1dXQoEaG1t7VQTgrF9+/ahtrYWU6ZMIc/z6NGjoaqq2qWwjKysLFWVCAkJgZeXF2bMmIEnT57AwcGBJRz3/v17fP36FVpaWjA1NaWuwYMHD1iV3/Xr15P1kpiYiOPHj+O3336DtbU16ffu2JP77ds3VFZWwsDAgHUtAYmfqqysRI8ePVjr+cyZM3B2dmZVcxlra2vrsrqtpKSE9+/fw9vbG+PGjYORkRH69u2LyMhI0t8oEomQnJyMPn364MePH+jbty9V9WW+o+O9kpeXJ9cqOzsbampqKC0tBY/Hw7Bhwygf9vnzZ3h4eMDa2hoaGhowMzODn58f/Pz8yGs6CizxeDyWnxOLxaivr0e3bt26rEo0NzeDy+WyfL1AIGCxE/h8PkkaGSspKUF5eTmGDh3KOmZlZYXHjx93eS+Yc2xoaACfz2dVn4D/8i/t7e0kuOv4/uzsbNTX12PQoEEs/zF79mysWbMG4eHhCA0N7XQ/Ys5BQUGBtZekpKTA09MTdXV1mD59OsLDwxEREUESnrq6OhQUFBBwo7CwEFwul8WQEYlEqK+vh4qKCus3tLa2svyQgoICeV1tbS1kZWXx7ds3yMvLQ0NDAzwejzz/zc3NkJWVhUgkglAo7LQKzpxDQ0MDlJWVWedgZWWFiIgIVrJYUFCA8vJy8Pl85OTksN7DXO//23ppb29HU1MTAZq7spKSEhQXF0NTUxM6OjrUscWLF+PEiRPYvHkzzp49i1OnTmHo0KGsSi0jBsrn87tc901NTaipqaGSRkBSIDh8+DBCQ0Ph5eWF5cuXE3EtQNK/u2HDhn+t8lVUVCA+Ph4PHjzA48ePcfXqVeocBQIBiouLCeCjpqZGCgQikQiWlpaIiooiyaODgwNLbFUkEpHKKgDqnv748YPao5medmZNZmVlYdu2bZg6dSr69u2LESNG4NSpUwTEq66uxsaNGxEYGAgvLy8cOHAAixcvpvr5XV1doampiefPn8PMzAwpKSkU+BYQEIDq6mpkZWUhLCwMp06dgrGxMSZMmECOV1ZWIjs7G1euXMHJkycxcuRIjB8/nvqdpaWlqKiowJAhQzrdC/5v1tzcjLy8PKiqqrIqvEKhkMVcYWIqQJI8L1q0CM7OzqioqMCff/4JNzc3ijmzYMECTJgwAUZGRnj37h3S0tIQFhZGjjc2NrKYbyoqKmT9/Pz5k7CIWlpaEBAQgH/++YcACcxz05lJ+8yysjKUlJTgt99+6/QZEwqFqKysJCBPR2tra0NeXh7k5eUxcODATr9PIBBAKBR2Ge/+mzU2NrJ8nHRBatmyZdi/f/+/VuF/2f+s/aqg/zctIiKiU2VGWVlZeHt7Q1FREYqKioiJiYGZmRnq6urg4eGBcePGwd3dnbyex+NhyZIl+PTpE2RlZaGmpoarV6+ShCgvLw/m5uYwNjYGn8/HlClTqOo3IEkCGUo8IEF2GXoOIHFCly9fxqdPn3D9+nWEhYVh0aJFJIhrb2/Hli1bEBcXh6tXr+Lu3bvQ09ODoaEhdu/e3SldaPTo0ZgzZw7Onj3Lon4BEkrixo0bERsb26V66c6dO4njev78Ofz8/ODq6gobGxsYGhpSAY28vDwRourWrRtkZWVx48YNijb0999/U45ZTk4OZmZmmDVrFgBJYMeIg5SVleHVq1dwdHTEixcvulQePnjwIKk8WFlZkc2Bz+cjJCSEAko4HA64XC4eP35MAqc+ffrAysoKkZGRnYp1ycvLY8eOHeT/t2/fxo0bN7B+/Xr4+/vD398fxcXF4HA4XaqO29jYwMTEhHzOvn37On0dY+/fv4enpyf09PQQGBgIX19fbNmyhRzfsGEDfH19SQJx4MABrFmzBrq6ugAkavevXr0ir3/w4AEmTJhAjldVVeHixYtknRcXF+Phw4dYtWoV2cgCAgLw119/AZAEPsHBwVi3bh0UFBSgoKAAsVhM1FaZgGjBggXIysrqcmrBli1bMHLkSAASsCU6Opo6PmzYMHIcACV0KBaLSUUuOTkZ6urqKCwsZAE6S5cuJf+uqKjA1q1bWcki8F9U4i9fvsDCwgI7d+5ETk4OTp06RQJDFRUVZGdn4+rVqxg/fjx4PB4rCPX390d0dDRMTU0RHh6Oa9euISAggBy3sbGBjY1Np9cDkKjHurm5EeG47t27U9S6pqYmhIaGYu3atQgODkZMTAyOHTtGBbfXr1/Hvn37MGDAABQWFmLbtm2UqF9SUhIWLlzIomwyJisri5cvX1KMhenTp5Mq+/v37+Hs7EwCN3V1dYpmLRKJ4Ofnh/DwcIpqKG3t7e04dOgQ3r9/DzU1NWzZsgVDhw4lx69cuYJFixZR91/asrKy4ODgAE1NTVRXV0NNTY015UFGRgaPHj0iwI+mpiamT59OjsfExMDLyws6Ojq4evUqPDw84Ofnh1evXuHkyZOdfu+ePXugra2NhIQEjBo1iiWQZGRkRH6HUChEUFAQNm7ciPPnz2P58uXYv38/df+NjIxQVlbW5eSVzMxMrF27Fk1NTXj79i08PDxw5MgRsu4yMjJw7do16j2qqqpE8GzFihVUVTcuLg7Dhw+nqqJ8Ph/W1tZE1KijvXnzBh4eHpCRkUFCQgI2bNhAVX6io6Ph5+eHoKAg7N+/HxYWFhTFPDo6GhwOhyTozc3NuHLlClXJP3HiBM6ePYs//vgDa9asIeJ4aWlpUFBQwI8fP1hVKAcHB5IonD59GnPnziXVpNDQUPTp04fQdWVlZeHm5oa3b99CSUkJHA4H165do4LdW7du4eLFiwScMjIyoqqNXVWqBgwYgAEDBgCQ+IjXr19DXl4e06ZNo8AxWVlZvHv3DpcuXYJQKIS1tTXFLOHxeHj27BlCQkJIwmFubg5vb2/ymrq6OkRERBA6v6KiIqUW3q1bNwp0zsrKoqjh8fHxaGpqwsSJE2FhYQGRSISIiAiqanrhwgUEBwcT9tjly5dZAq69evVCYmIioqOjWQywjx8/oqamhgUSS1/n8+fPY/LkyeTZkPajlZWVmDFjBnR1dUnCOX36dHIObW1t0NbWppKsjgnegwcP4O3tje/fv0NFRQVtbW3Izs4mn/fw4UNwOBw4OTkRITrpferjx49YvHgxlJWV0drayvIv6urqUFVVhZubG75+/YoZM2aw4ryqqiqcOHEfJx6AAAAgAElEQVQCa9aswf79+7F69Wo0NTWRGCotLQ0nTpwge3lHP8ocZyq16urqZC84ePBgp4D2sGHDqDV17do1HDt2DBwOBxwOB+rq6tQ+W1tbi8DAQEqE2MvLixRkZGRkEBUVhZs3b0IsFmP+/PmUKGBeXh5mzJgBQ0NDxMfHQ0FBgZUst7e3k9hh0qRJ5P0fP34Eh8NBbW0tSwzP1taWAFc9e/ak2Jv19fWIi4vDwIEDERkZialTp7KmQgwZMgQjR45ESEgI9dsY69OnD9WulJCQgI0bN0JLSws/fvzAvHnzsGPHDnz8+LHLKTsrVqwgMVRzczOWL1+O1NRUREREICcnB/3796eEJLOzs+Hj44OKigoMGzYMe/bsoRJwBQUFPHr0iLSDMbkGY5aWlnj//v2vBP1/sf1K0P+bNmzYsE57WDoG2BcuXMD06dPh5eWFxYsX49atW/j+/TsJoMLDwzFu3DhCGb9//z6Cg4MJRVxNTQ0NDQ3o27cvwsPDoaOjwxq/ISsri9jYWDQ3N+PJkydoa2ujktvdu3fDyMiIBOkFBQXIysqCoaEhACAsLAw6OjpYuXIl2traoKmpibi4OBgaGmLSpEmd9rEwKPjIkSOJU5E2ZtPQ09PrspojXb1xdHSEnZ0dXr9+jcDAQERHR+PmzZukr5npSczMzASHw8Hbt2/h5+dHVTy/fv0KGxsb6Ojo4PHjx2hvb8eVK1fQ1tYGOzs7lvLz2rVrUVNTAx0dHRw5cgTKysqQk5Oj7qG0w+vVqxdCQkJw5swZ1NTUwN3dnaJVCwQCzJ49G4MGDUJ7ezuqq6sxcuRIWFlZYfDgwZ2irB2vjaqqKmFf5OTkoLCwEMbGxlBUVGSp/DLWMUE8cuQIrl27hra2NtTV1WHp0qVU0u7p6YlLly5h586d4PF4LKCptraWCoZ69eqF8vJycp+FQiGpELe2tuLatWuEHgZIqPLSVbE+ffogLi4Oq1atAiDZYBMTE8kmy+Vy8fLlS0rl2MfHB9+/f0dGRgYmTJiAhIQEzJ8/H4MHD+4yQZdmZbS3t5PAkmkDcHNzoxI0JkAX/z/j2JjeuNbWVrS1taGpqYka59PRmCDK3t6e/F4LCwvCJnjx4gX4fD6ysrKQm5uLdevW4cSJE/Dy8gIgaWeYP38+3rx5gz179uDnz5+wsLCgviM+Ph4xMTHkeba3t0draysePHiAvLw88Hg83Lhxg3rPlStXoKenB0DSz3vs2DGMGDECVVVVOHPmDEUN/vz5M+rq6lBfX4+UlBS8evUKK1eupBL0CxcuIDU1FfLy8hAIBPjjjz+oBN3IyAjjxo3D5MmTyTPt5eVF2ETXr1/HrVu3MHv2bLLepSszpqam2Lp1K6ZMmQI1NTX4+PgQyiPwXz3Mhw4dIu0GKioq1Dnu3LkT/fv3h6+vL75//w4XFxc8efKEgExTpkzB5s2b4ezsTP42duxYsmbGjh2LFStWYMGCBWhra4OXlxesrKzI54tEIvzxxx8YNGgQ0bcYOHAglaAfPXoUz549w7p168Dj8ch6MjIyIve8o/Xp0wcCgQBlZWVoaWlhJY3SlZWioiKUl5ejra0NsbGxePPmDZYsWUIl6D9+/MCkSZPQvXv3TinuXl5eCA8PJ2CenJwcYdIAEp+cmZmJ1atXE+DM3t4eCxYswJYtWyAvL49hw4axfkNHS0hIIO0ZHW3fvn148OABATfb2tpQXV1NKsnMntejRw/Ex8fj8+fPFNtA3GGEpkAgoEDkHz9+4NmzZ7h//z5CQkKgqamJDx8+AJAEvhwOBw0NDSwAhtnngoKCSKLYvXt3AhaeO3eOvDY2NhZaWlqE9vv27VscPnyYAA11dXU4cuQI1c7WkSnQ0NCA3377Dbq6uoTiLg18Pn78GF5eXpgzZw4aGhpw6NAhREVFkeQiOzsb+/fvx969e8Hn83Hs2DEoKCiQfa6qqgoBAQFYsmQJZGVlweVyWYCjk5MTLC0tkZWVBTMzM5bSuIeHBxwdHVFSUoKZM2eiX79+FLCQlpaGiRMn4vHjx1iyZAksLCwQERGBbdu2AZCwhGJiYnDu3Dk8efIEAwcOxK5du6hE4eDBg+Dz+fDy8kJ0dDRLvVxPTw+jR4+Gubk5uYb+/v5U+9S0adOQk5ODIUOGoK2tjdrH3717h0WLFlGFEWnj8/mQkZGBr68v8vPzsXHjRhIbMRYSEoLnz59j3bp1CAkJwZ9//gmhUEj8mJOTE1xcXNCzZ0+cP38erq6u0NfXJ+83NTXFqlWrMGfOHHC5XJZ/EQgEcHd3R2lpKUpKSjB69GjyTDLGrJGioiK8fv2axEKMTZgwAX5+fqivr0dubi7OnTtHVeDNzc3h7++PhoYG5OXl4fz584TZYm5u3qkmg3QiC0j0JRISErpkjHh6emLUqFGwtrYm5yYdQ718+RJhYWHw8vICl8vFvn370L17d1haWgIAhg8fju3bt0NXVxe1tbU4dOgQaXNkjIlzjYyMkJ6eTlgRdXV14HA4qKqqYmm/SPuHzMxM0uIhFAoRERGBf/75B2KxGBUVFRAKhdSUEQAkiR0+fHinIHFHcPro0aOIi4sj/mPBggUoLy+HhoYGa49nTFqH49KlS5g7dy7Z4wYPHkwm2wCS9eLq6ooDBw5gwIABiIuLg6enJwWerlu3Dt26dUNycjJGjhyJzMxM6rmrr6/HgQMHsGfPnl8U9/+l9itB/2+avr4+9PX1IRaLERMTg0+fPkFTU5M1IkQgEKC1tZVs4B8+fEBNTQ0JalRVVamNW0NDg3rYtbW1MWfOHNKf7e3tjd27d1PfERQUhJ07d6KkpAQRERGsvsT8/HwcOnSIiG8oKSlR1LjKykqMGzeOJGrS6LGlpSVKSkrw8uVLQpNuamrCmTNnSI8wIBkzMm3aNCKgwQjb6erqQldXF/7+/hStNigoCGPGjCEB/cePH3Hq1CmkpqaiV69e2LJlCxHFACTOt2/fvsTp9+vXj0L2GxoaoKamBicnJwDA5MmTsWjRIhI02dnZobCwkPzuhoYGpKamgsvl4s2bN4S2uWLFChZVUtr69u2LFStWkACxvLycBPllZWUwNjaGtbU1KioqYG9vD2dnZwAgI8kCAwOJYB8AHD58mNqoN27ciJaWFuzevRu7du3CoEGDMGHCBHC5XEybNg2JiYmQk5Mj43A+fvyIjIwMcs6FhYVIS0vDli1boK6uDmVlZdbYNWVlZYqO13EkkqWlJdavXw8nJyeUl5fj1q1bJJkGJCJw0tXJ33//Ha9fvyYVLl1dXQQGBmL16tWQlZXFixcvKFojl8tFVVUVWlpaiHhgR6pmeno6wsPD8eeff+LQoUPYunUrKisrIS8vj/r6eqipqVHjxJjfxQQOmpqaVAViyZIl8Pb2hp2dHfmbp6cn+e0qKiqkMs2ALsOHD4dYLO6Scq+srAwzMzMKrZcOJhiBmUePHsHOzg4GBgZUjz8gCS65XC6+fPkCAwMDVjVcJBKhtLQU2traJKmQkZGhfkdXgScg6d2dM2cOQkJC8PDhQyxdupSqgCkrK+Pr16+IjIyEpaUlYS9IG4fDIT6qsyr/7NmzWSPopCl5JSUl8PT0JFoNHW3w4MFwdXVFYGAgWltbsXDhQlafqrm5OZqbm5GdnQ1AAsZIJ+j5+fkErBs0aBDGjx+PgoICEmzw+XyMHz8enz9/Ju8xMDAgz66WlhZ27tyJo0ePoqGhAX/88QcWLVpEXltdXQ09PT0sW7YMWVlZWLlyJfE1jCkpKZFEUiwWExBLWVmZaAFoaGiQ6mJMTAzU1dXRo0cPrFy5EgBYYxmlTVFREXl5ebh37x7Gjx8PeXl5FsAnrQ3SmXE4HAp8q6mpoWjy8fHx2LZtG6G9ysjIoLKyErNmzYK+vj6UlJRgbW2N79+/k4C+I/AYHByMHTt2oLi4GHfv3mX1e8rIyFDvqa+vp8DahQsXorKyElu2bMHmzZuhqKhIiWXNnDkTVlZWyM/Ph4KCAq5du0aNL2RAZmavkKazMwGusbFxl9fIxMQEJSUlMDIyIutj5cqVVFVYXV2duo7q6upUgM20UXTF+ABAnXNndvPmTdy7d48Afrq6unj9+jV5NhITE7Fx40YiLuXt7Y3AwECSoFdWVhIQqqqqCvb29tSaBiSAzNKlS5Gbmwt3d3eytzHrSk9PD0+ePEFubi5UVFTQp08fNDc3k+dbU1MT0dHRSEtLw969e9HU1EStyZqaGgwbNoz8jWlJkrY+ffrgwoULUFFRwZ49e6jRgwCwfPlyzJ07l/qbNJMgPz8fy5cvh0AgwKVLl/Do0SMMGTIEU6dOBSDxgXfv3qWETjvauXPnEBYWBjMzM4wYMYIF5isqKoLP56O6uhocDoeIzGpoaJCe8M2bN8PR0RGLFi3C0KFDqep2v379sG3bNjJuy87ODgsWLCCfX11djf3797ME9KTtn3/+QVtbG/bt24ewsDBs27aN8rMrVqyAv78/ysrKsH37dnh7e1OtZytXroSfnx9KSkqwZcsW7NmzhyTgDA2+qakJERERqK2thZGREaWRAfx7wQWQPHtOTk5dXuekpCRs3ryZfO6WLVsQExNDEvRu3brBz88PPj4+qKqqwtSpU1ljP0+dOoU9e/aguLgYOjo6JN6V3oP+jVXG4/GIz+PxePD39ycFBqafXTrekTamYBQUFEQVFI4cOUJ9f+/evam4vnv37lBUVES3bt1I7NXS0oLy8nLim6TvpUAgQM+ePQnDoaKiglrzP378wIgRI4g/Y3STpO3nz584fvw41q9fj2PHjsHFxYXEXICEBZuWltalCOUv+5+3Xwn6f2geHh5obm6GmZkZcnJyYGtrS1F+Vq5cicmTJ2PevHng8XjIzc3FgAEDUFZWhl27dhGRrdu3b0NWVhZPnjyh+q8ASVARFxcHOzs7bNiwgYV0JiUl4dChQ132mllYWMDLywuVlZV49uwZIiMjqeSF6WHX1tZGbW0t7t+/T2g4dXV1RFCIcUAFBQVUciQWi3H27FlSTeJyuTh37hymTZtGqpPJyclk1qRIJEJMTAxJXpm/LV26FMeOHeu0v33ixInw8fFBRkYG1NTU8PLlS2ozU1RUxPv37xEXF4f+/fsjNjYWKioqKCsrI5WZiIgIZGVlAZBQyw8cOABVVVWYmppi3rx5KCkpwZ07d6jNJTg4mARzX79+xcKFC2FsbEzOcc6cOZg5cyYASZBWV1cHHR0dXL58GQMGDCCUeqFQiPLyciQlJRERH6FQSJBPxqRBiY59m1VVVcjKygKfz4e2tjbEYjGSkpIoFL2hoQH6+vpQVFRERUUFpkyZwupJ19bWxr59+1BYWIi9e/eymCBr1qxBWFgYAgIC0KtXL1y+fJm6JpWVlSQpbW9vJ/PCGevXrx8sLCwwatQoiMVi6OjoUMJBHA4HK1euxLhx46ClpYXS0lJWVZzP50MoFKKiogIZGRnIzs5Ge3s7KioqkJqaCj09PVZ1TlqZtampiaxRkUiE58+fs/rpOlJ5O1pISAgCAgKgoaFBrrF0u4a5uXmXrAZAEiQsWbIEIpEI165dw8uXL6kKvlAoxNy5c8mMdmNjY2zfvh1Xrlwhr9m+fTtsbGyIRsW+ffuoACk6OpqqenE4HGhra2Pp0qVQUFDAhw8fYGRkRKqo+fn5eP36NQnq9fT0MGTIECQkJODo0aMoLCwkwRpjc+bMwdixY6Gvr48vX75QNH/mMxQVFfH9+3cSfEuvyZUrV2L9+vWYPHkyuQfjx48nFaLS0lJoamoiKiqqyz7Tjj3zHW3w4MHw9vaGtbU1SktL8eLFC0q4h5mH25UVFhZCRkaG0LIrKyvx8OFDEugpKyuTSQABAQEwMjIigTljo0aNgrOzM7KysrB06VIWnf7ChQsUk6WyshKvXr2Cra0tAElw6+zsjNevX0NRURElJSU4fvw4YSv07t0b5ubmuHv3Lg4fPowfP35Qc6sBIDc3Fxs3bkRhYSF69uyJI0eOUMnowoULMW/ePJSVlcHd3R21tbWUSruuri6Cg4PRs2dPiEQinDlzBh4eHnjz5g1UVVXR0NCA6dOnQ0tLiwSU5ubmRGgSkDwj0oJoHSnNs2bNwsKFC1FcXAw3NzcoKSlRvfxMAMuwqZqbm6lnV1VVFU+fPsWDBw/Q0tKCe/fuUSyifv36obKyEl5eXsjPz8fs2bOp8wMk7JZt27YhPz8fMjIy4HK5yMnJAZ/Ph4mJCUxMTNDU1ITS0lLy7DU2NpJgVkNDA4cOHcLTp0+hrKyMJ0+eYNKkSXB2dsZff/2FESNGkIoVI9inq6tLWESARG9Emi7L5XKpfZmpTDs6OqKtrQ1paWlUS5WpqSk2bNiAHj16QEFBAf7+/mQtARK1Z2aN2NnZISEhgTV9RSQSQVlZGe/fv8etW7eQlZVFPYNHjhyBg4MDhg8fDpFIBFdXV+zYsYM8uw4ODjh27BhsbW1haGiIJ0+eUKyS33//HZ6enmhubkZRUREcHBxY/mPZsmUwNzdHQkIC5s2bh4MHD1KVXwac/PbtG/EvAwcOJHvwlStXcOTIEQJEGxsbIy0tjSToVVVVSExMhKmpKUlO7O3tKZ8iEAgI87ChoYE1gWTWrFmora2FlZUVxo4dC11dXfTr1w+pqanU/mpgYID09HSkp6fj77//Ju1xgCQO66p62qtXL1RUVODOnTvQ0dEBh8NBt27dKFCosrISAwcOxJgxYzBmzBhWO8zHjx8xd+7cLkE+LpcLZ2dnjBkzBnw+n+U7WlpaMG3aNMycORPa2to4efIk3rx5Q8UnDQ0NGD58OIYMGQIOhwM1NTWq/5uJda2trck+5eDgQIpOEyZMgLe3N2HvHTx4EJs2baLOY8SIESwdFmlLSkqietIvXbpEscJSU1Ph7u6OgoICskZSU1NJHMjER/Hx8RCLxcR3tLa2srQVGHN0dMRff/2FlpYW1NTUICkpiRTjmpubyfSNS5cu4eHDhygvL8ewYcMwZswYFBcXs4DQjIwMrFmzBmVlZdDX10dqaiqePn1K2EkLFizA/Pnz0a1bN7x//x6pqal48OABeb+2tjbS09MRFhaGAQMGICEhgaUfweVyISMjg/z8fKSnpxNwm7ELFy7Ax8fnV4L+v9h+icT9h7ZgwQLKmTg7OyMgIKBTkTRpa21txZcvXzo9pqWlRQnBzJ07F3379kW/fv2wZs0aeHp6UnS706dP4+LFixg8eDCcnJwwceJEanMRiUQICQlBQkIC1NXV8ddff1H0K0AiInf79m2IRCIsWLCAUGRv3bqFs2fP4tu3b+Q9ioqK2LFjB0kmxWIxZs+ejaioKFJBnzNnDu7duweRSARHR0e8ffsWY8aMASBxHObm5hQCKRaLERYWhqioKPB4PCxdupSFggqFQqSkpKClpQXDhw9nCZPl5+fD19cXFRUVMDQ0JBVSHo9HkOyGhgZ8//4d6urqLKG6s2fPwtramiViw9i1a9fA4XAole2OlpKSgtGjRyM0NBSJiYlYv349Cebd3NyQmppKklkejwdbW1ssWbIEd+7c6ZK6ffnyZQwaNAhHjx5FeHg4eDweCao1NDRw8OBBsvm0tbXBx8eHCF7xeDzMmjWL6jFvb28nmgRDhgyBo6MjK3nNzMwk6KqNjQ21uSQmJpLqD5fLxfDhw7F69WpWcsWocXeVdLW0tKC0tBR9+vRhfX9OTg60tLSQn5+PwMBAmJmZkSrj/xvLz8/H/v37AUiSxX79+sHd3Z16LqOionDkyBESkJmYmFAUsZkzZ+LevXudCmkBkqRu5cqV+PTpE7p164aamhrExMSwxjF1ZYWFhQgICMDWrVtx/Phx+Pj4wN7eHjdu3CDCSDExMUTcrTPxwmvXriEmJgbz589HeXk5rl+/DhsbG7x48QKRkZFEaZcJmh88eIDS0lKi/isWi1n9lszGztiLFy8wePBglJaWonfv3lRCB0iApLNnz+L79+8wMDDA+/fvkZycTJKB27dv4/Tp01TQNm3aNOI/ioqKcODAAWRkZBDNBltbW+o5DA0NRWBgIOrq6tDY2Ahzc3MqiBcIBDhx4gQB8DZu3EgFLOXl5VixYgWysrKgqKiI6upqREREkIpIcnIyPnz4QK5Leno67ty5Q1HTmWf7ypUrSEhIwOrVqylgqrS0FLm5ufjy5QuGDh3KEvTbunUr7O3tSeJ+4MABjBs3jgSFERERhOLq4eGBuLg4AJJkoqt7xeFwqPU5d+5c7NixA6NGjUJeXh5cXV0RGxtLzqOsrAw/fvzAu3fv0Lt3b0yZMoUFiN68eRORkZHgcDhYtGgRbG1tUVpaSijdt27dYim3S9uff/6Js2fPApDsPfPnz6cU80tLS1FaWor379+jf//+mDRpEuUjsrKysGbNGvD5fAQEBCAxMRE9evQgyWdZWRlLGHH48OFkPQkEAlRVVSElJQU/fvyAmZkZxfgBJCOpwsLC4O7ujlOnTsHFxQWnTp0ifu79+/dYvXo1ysvLYWhoiKSkJMTGxhLqc1NTEwoKCjr9/f369euUuaSmpka1AsXGxqK8vBxisRglJSV49uwZHjx4gIcPH5LrW1lZCSUlJbS1tYHL5eL69etUi0FcXBzCwsIgFAoxY8YMLFq0iNKe+f79O/T09PD9+3fk5+fD1NSUut9lZWXQ0NBATk4O7t+/j2nTplHAUmlpKZydnXH58mV4eXlh2LBhLLAjLy8PDx48gFgsxowZM1gj/hoaGnDx4kVUVVXBysqKPHOMMTGUi4sLzpw5Q3wgY2fPnsWDBw9QUFCAkSNH4s2bN0hKSiK+nJnq8unTJ8ydOxePHz9Gnz59WFXwf7MpU6Zg5syZZHRdUVERlQT+d62mpoYA+Lm5uVBTU4OSkhI+f/4Mf39/qm95zZo11HuHDh1KVY/nz59P+TwnJycEBwdTOj4nT55Efn4+DA0NiR9ljjPxyIQJE1BfX4+8vDzcvXuXUNA/ffqEixcvkn1TLBbDwcGBuhfV1dVUewmHw6EA/sTERHz69In6HXZ2dhQr9NGjR4iMjIRIJMLcuXOpOK+0tBRjxoyBnJwcVFVV8eXLFxgaGmLIkCE4e/YsZGRkyDoBJLHMwoULqZGpCxYsQHBwMP7++2+cPHkSq1evhr+/PylgMQCqo6Mj2tvbER4ejnv37nUZ90lbSkoKfHx8kJaWRp4TWVlZuLq6wsrKClVVVV22xfXv3588mx4eHnB1dYWvry/OnTuHgIAAmJiYEBC5uroajY2NeP36NUQiEaZPn86i0f/48QNBQUGoqqqCvr4+XF1dqb3gw4cPZD1funQJM2fOpJgo4eHhOH/+PBYuXEjir5kzZ3ap9fDL/v+3XxX0/9AMDAzw7NkzjBs3Dnl5eZCVlYWSkhJCQkIgKyuLr1+/4unTp9R7Hj16BFVVVYKuMsqbTPAljXLn5ubCyMgILi4uRDyuIx3Y1dUVq1atQnp6Ok6dOoUtW7bgzZs35DiXy4WVlRW6d+8OJSUlknxLW2NjI1pbW4kKMWN2dnaYOXMmKioq0KtXL4jFYpZyMIfDwahRozBv3jwYGxsjOTmZ0La5XC5u3LiBO3fuUBvmu3fvSK8YIJllGhcXh3/++QcCgQA7duyAtrY2Vf15/PgxTpw4gebmZkycOBHbt2+HnJwcmpqaIBKJ0LNnT4oKKRaLKVZBVFQU9uzZgyFDhqC4uBhmZmY4ePAgcZppaWnUzM6ONm3aNOzduxfGxsakeqSqqko5TuYerlixAg4ODmSz0tTURGRkJEmKAcnmzWyOc+bM+b8GFJs2bcK0adMgKytLAs7Kykqqf1NOTo6IAMXFxaGuro7VR8Yo5S5fvhwAcP78eYrNcOfOHRw7dgyzZ89GRUUFAgMD8fTpU5JcmZmZYcyYMcjNzQWHw4Genh4rCb9+/TquX79O6OE2NjYUtX/z5s3UOtPW1iaq3YBEuffUqVMYMWIEBUYlJSWRCkFlZSU1AeHMmTOkoq2jowMfHx8Cwkir7wKS+3T06FF4eXkhLy8Pw4YNY1XkDQ0NUVpa2iVN1d/fH4cPH8aJEydw5swZ/P3331BQUEB5eTlcXV2xfft2FlVuzZo1BO3v2bMnsrOzyTVKTU2lgqXY2FhqhBMgAXWkaYfR0dE4f/48Cbrz8/Nha2uL5ORkbN++HREREeDxeMSn8Pl8KvCsqqoim7ZIJEJWVhbWrVtHVZ/9/f0RGRnZ5Rzw8PBw3L9/n4hx/f3336QNAZCAf3v37iUAXUfr378/goODkZubi9DQUPJcM2tSLBbj8uXLuHDhAuLi4uDg4EDWeFNTEzgcDoRCIVVFYd7HPNvBwcHw9PTE5cuXcebMGXh5eZEA39/fH2fPnkVTUxNZa3JycggKCqI+b9SoUfj58ycmTpyIiRMnsmicq1atQlRUFEsVmbE1a9Zg7ty5MDY2Rl1dHdra2ijgrLW1FQMGDEBNTQ3KyspgYmKCoKAgkqC3tLQQoEUkEuHTp09YsmQJa+wdUxnT09NDr169IBAIiJ91cXFBVFTUv4JI8+bNg6WlJenbbG5uJmtw6NCh+PnzJ1VNZoyh/ufm5lJ0z460auY6dSXYd/v2bfj5+RG2ir6+PsUSaWpqIq0KQqEQd+7cwYEDByjAJzAwkMUckjYFBQWoqKigrq4OsrKy6NGjB0pKSojOBrNO/Pz8cO7cOZw+fZrSflFUVASPx0NYWBipvDGJRkFBAeTl5VkBf0clZqbCy9jXr19RX18Pa2trWFtbd3nu0jZq1CjU1NRAIBBg/PjxFCBUUlKCoKAgHDt2DH369OlUK6Bnz564fv068vLyoK2tTVV8AUmx4OjRoxg/fjxWrVrFSs5zc3Nhb2+PP//8E1wuF8uWLcO5c+cIiNDe3o53795h7dq1iI6ORkREBHR1dSmQr6WlhTCyvnz5wmIIxsTEICIiAqtWrSL+paamhv7VrCQAACAASURBVDy/S5Ysgb29Pb5+/YqoqCj06NGDYp8VFxezxmBZWVlRz5WWlhap5M6ePZs1xvHt27fYsWMHamtryTV+9uwZ8QGNjY3YvHkzPnz4QBLYgIAAjBkzBklJScjKysLVq1exd+9ecDgcPH36lFLor66uxqhRo6ixaR1NKBRS7QcdJ1dMnDgR5ubmSElJwfHjx+Hm5obff/+dFFbOnTuH+/fvk2c5ODgYiYmJRO9j4MCBKCsrQ1FREbS0tPD48WNW/7eKigri4uKIqKC8vDyV9JmZmUFTU5OA+1OmTIGcnBzRrZGXl8fYsWOpz5WOA3k8HubMmYOAgABwuVzExcXh06dPaGhowPHjxxEeHo68vDyiKcEI80kbj8eDhoYG6uvrISMjg759+6KgoICAazdu3MD58+eJDxwxYgSioqLg6uoKQDJRSDqOBCRidHPmzMHo0aNx/fp1BAYGUmwWxrp3747u3btDIBAgJCQEmZmZpCgm/WzKysoSlmBVVRWZ0MQk6OfOncOYMWNYLbOMiUQi3Lx5E46OjtDX1+8UvDc0NER1dTV0dHSwa9cu1mu0tbVhY2ODxsZGklN0bHf8Zf+z9itB/w+tpKSECKIwZmZmhr59++Ls2bOoq6uDj49Pl+8vKCjAkiVL0NTUhHHjxuHhw4c4d+4cEaXQ0NDAly9fiCPOyspiIWlisRivX7/GxYsXkZGRwarwhoeHIygoCDNnzkRlZSV8fX3x8OFDEmC9evWKSibc3d3h4+NDkG4+n48jR47g2bNncHFxweTJk3H//n0quPTy8kJ6ejpycnJgZ2fHEhJ68OABlYCePn0aBw8eJI45KSkJf//9N0le169fj+TkZJKgZ2ZmIigoCMHBwVBVVcXFixfh4+MDb29vbNq0CV+/fkVRUREJcj9+/IgZM2ZQ9KuQkBC8ePGC/G5HR0dUVlaSSrytrS3Onz+P1atXk/NSVlYmqGRTUxMSEhJQVFREEiIHBwfSD1xRUYELFy6Q4JTP5+PAgQMUAh0YGIjjx4/j/PnzOHnyJIYOHYqrV68iKSmpS1rX5s2bSbD35csXKCgokAQ9MzOTVJwYi4qKwr1790igM3bsWGpWaGpqKp4/f479+/fD3Nwcz58/pxL0q1evIjY2llwDHx8fvHv3jgT+VVVVsLGxIRt9eXk57t+/TyVk4eHhGD9+PAwNDfHlyxcWtdLZ2RlCoRBisRgfP35kCdWpqqoiOzsbBgYG1N/HjRuHpKQkUlFxc3NDe3s7du/eTYnRJCcn48WLF2SN/vz5E0FBQWRudWNjI4YOHQpVVVXU1NTA1NSUBPRHjhxBZGQkBAIBrly5gr59+xIAQrpyJxAI0K9fPzQ3N0MgEGD48OH48OEDpk2bBk9PTwwePBj379/vVEwSkAT5a9euha2tLcrLy/Hu3TtSGdi5cyeOHTuGnJwcqpVDQUGBEkbs168fAgMD4eDggPLycsTHx2PTpk1oa2vD/v374ezsDDk5uS5Bhh49elBUyeLiYkolHpA8A7t374ahoSG4XC4UFRVJVQgAAexqampQX1+PhoYGVFRUEF0EKysreHt7w8nJiawpY2NjkjCkpaVh6dKlmDp1KmbMmIHt27dTyV97ezu0tLSgrKyMsrIy9O7dm9DLb9y4AWVlZWRlZbEErqTnQ7e0tEBHRwdCoRAtLS0YPXo0UlNTYWRkhI0bN2LRokWoqqpiVVoZY6o9ra2tBPQzMDCgFLH79euH27dvk+skIyNDXXcdHR28efMG7969g7KyMmuEmbm5OZkswYgBSk9uUFBQoO5VeXk5qXZJf8f69ethamqKz58/o729nWKnWFhY4OTJk1TlXEdHh6zvL1++YP78+ejbty857ubmhunTp8PKygpNTU0QCAQwNzcn13bmzJnYvXs3DAwMkJSUhFu3blEaCR1Vj0eOHInQ0FAyuQAAJTSqra2NzMxM8v+EhAQqcdTV1aWUxufOnYtbt25hypQpACQq6N++fcOzZ8+IbomioiKVFE6ePBnV1dUYPXo0xo4dC1VVVUp7RF5eHnJychCLxSgvL4ecnBylNfH161esWLECW7ZsQbdu3RAaGoqfP3/CyckJp0+fxoYNG7B//34KFNTX16dihYyMDKKjUldXh9TUVOpeNTY2wsPDA2/fvgWXy4WLiwtJIgCJH542bRpmzJgBPp+Pw4cP48KFC+Ra9e/fHzk5OQgPDyc0++7du1MiUBs2bIC8vDxMTU2RnZ2NpUuX4saNGwgPD6dGDIrFYty8eRM3b97E9evXCTslKioKfn5+RLdj9OjRuHv3Ltn/s7OzER8fj7Fjx2LPnj3YvXs39uzZQzGVfH19sXz5chQWFuLbt28skTgGhK2urkZJSQlKSkoocDc/Px/nz5+HUCgEh8NhqVJraGgQcJhpyZJuE+Lz+ZCXl8eLFy/w22+/ISUlBX379kVVVRXk5eWhpKSE3bt34/Tp012Owzp+/DgsLCwI8Ltjxw4KWP38+TNVQR00aBA15UBeXh4JCQn/mqDPnDkTf/zxBywtLfH582dWa0hISAhOnDgBe3t7uLu7IywsjPqdhoaGyM7OhpaWFkQiEfLz80lBwtraGlVVVUTQjDGmN5wxFxcXdOvWDR8/foSuri7Ky8upBP3x48fYvXs3rK2tUVlZicOHD+PJkyfIy8vDiRMnYGtry0p+N23aRMCqoqIi9OjRg/gjXV1d3Lp1C3PmzEFhYSFev36NFy9esNqwpG3q1Kn48eMHxo4di3HjxkFWVpaa2NK3b188ffoURkZGEIvFePbsGQWqqqmpkRi6vb0dkZGRFGuAy+UiNTW1y+8HgB07doDP52PJkiUoKiqCvb094uPjye9ydHREXV0dNm7ciFmzZkFNTY1quZs2bRp8fX2hqqpK/Gzv3r1J7M8o6B8+fBjZ2dkYNGgQ7O3tKe2WnTt3IiEhAVpaWuBwOJCTk8Ply5fJcXNzc+jp6SE9PR3y8vIYP358l2zBX/Y/Y78S9P/QuhL1+Oeff1BQUICgoKB/Ff6IjY3F33//jSdPnsDLywtOTk5ISkoijlFDQwNTpkyBtbU1Ghsb8fjxYxb1av78+dDQ0ICTkxNOnjzJQsoiIiKohMvX1xeZmZkExXz16hWOHDlCKlw6OjpISEggCXpGRgbk5ORw4cIFvHr1Cvr6+qxRXosXL4atrS3s7OyoypJIJMKMGTPw8eNHshmIRCIIBAIqoZo0aRK2b9+OzZs3QygU4vDhw1RlqKysDPPnzye9b6tXryYU+ZMnT0IoFGLFihUIDQ2FjIwMamtrWQhnnz590NLSAiUlJYhEIvD5fCoRqKqqwtu3b/H27Vvyt0OHDpGA58WLF/D09KQUrKVNKBRSiDYzI1faKisrwePxcPPmTSQmJsLV1RXNzc0YOHBgl2gp45QPHjyImzdvgsfjISgoiFAjpfs9CwsLcfToUfj7+xNqW0dtgl69esHf3x9LlixhjbsBJElbcnIyJkyYgJaWFrx7946qTl65cgXbt28nmwEzGo4JHktLS2FpaQklJSXIyspi7dq1rO+STrx///133Llzh3UelpaW6NevH0kUYmNjSUDy8uVLLF++nAiYMZUDBiWvqKigWiA0NDQI6s9cU1lZWQwbNgybN29Gamoq2Qg3b97cKTre0WbPno2ioiI4OjrC1NQUYrEY0dHRaGhoQFhYGOzs7Ig4U2dWWVmJpqYmligSIAkijh49CkdHR1avoLTt2bMHhw4dIoHT8ePHoaamRp6duro6/Pz5E5qamvjjjz9QW1uL8PDwLkerKCkpsVpvzM3NUVNTQyi90s8tIJmGUFVVhQ0bNsDGxgbGxsZUhZbL5cLExIToPwCSag2ToPfv3x/Ozs5ITk7G+fPn8fHjRyxYsIAktzIyMtDX18eAAQOQm5sLU1NTIji3YsWKLq+NtM2YMQPfv3/H4sWLYW5uTiqvjDU2NuLt27cYMmQI5s+fT1SOGYCwpqYGqqqq/yrsJScnh/DwcAK09ezZk0o2Tpw4gbS0NKxatarT+eKqqqqYPn06NDQ08PbtW0Ln78oUFBRYQol+fn6IjIxEXl4edHV1qRGOjD1//pxK9ENDQwnIEh0djQMHDnRawe3IBOvKHj58SCXomzdvpsTrZGRk8OTJEyIkyuVyKSDV0dERK1euRHx8PC5evAgTExPqeWxqaiIADaNnIm3MPG5pvzhq1CiqN5fxVVu3bsWWLVtY98LBwQFNTU3YtGkT5s2bBxUVFeo3fPjwAevXryeg85gxY7B161Y4OTnhwIEDACQ9nkKhEA0NDdQcZsYSExPJiFJ5eXmcP3+e2jv37t0Lc3NznDp1Cq2trXB1dSUTEwAJ6L1t2zayb8ybNw+XLl0i3y8UCqGvr0+Bikz/MGMlJSVU+4GDgwMEAgEWLFhAJWpdmZ6eHm7fvo1x48aBy+Xi7t27VPtcS0sLZGRk8ObNG1hZWWHWrFks7Q99fX3ExcWhvb0dnz59YqmXu7u7o66uDlu2bIGrqytGjx5NAWkxMTGYNGkSq9rLGJ/Pp1TZDQwM4OzsTO23tbW1rBazpUuXwtraGmvXrkXfvn27ZBAB/9VCEx0dDWVlZcyYMQMJCQlkz5s8eTLmzp2LV69eQUlJCW/evKHWp6KiItLT02FhYUF60A0MDCggytXVFWPHjkVKSgoWLlzI6pc2NzfHt2/fkJKSgpycHEyaNAkLFy4keyYjLjpw4EA0NDSgubmZqJl3bBnpyurq6nD48GEcPHgQhw8fxvLlyymmUmhoKJ4+fUriqoMHDyIlJQVjx44lvpBhV4pEIojFYhaIwEw8UldXR1JSEk6dOoWSkhLi869fv07YImKxGH/99RclRMm0L3p4eOCvv/4Cj8ejnu9ly5Zhw4YNZI+ysbGhpoYoKSlReiUjR47E6tWriXaQrKwsSktLsXDhQgwaNIiAQtJFEqZllLkvKSkpKC4uJnuadKsL078ubfX19eDxeFQM7OLiQoAEDoeDhQsXYsCAAXj69CmioqLw9u1bKkHPyMjAixcvOq2uA5Jxl6tXr8aUKVNQV1cHb29vxMbG/krS/xfZrwT9P7T09HSsX78ejY2N4HA48Pb2xqxZs2BnZ4c1a9bg06dPVDUAkGwoTNKlrKyMtrY2aGlp4dWrVxCJRKwxaq6urnBxcUFjY2OnQnA3btzoVFiNsTFjxuDFixekAvLlyxf8+eefEAgEqK2thampKS5cuECo0BcvXqQqqlwul6K1V1RUsGjuR48eRWhoKJmH6uLigt9++w0cDgcRERG4du0aoY1xuVwyO5axGTNmoKWlBefPnwePx8OuXbswfPhwCIVC3L9/n1CGhEIhVFVVqc8DQEaKMc5eQUGBjJQ5efIk7t69i5qaGgwZMgRGRkb4/v07hEIhFRAtWrQIixYtQmtrK+Tk5FiOzcLCAgcOHMDUqVNJMicnJ0c+o3fv3qiuroanpyd0dXURExPDoq03NDTg6tWrRBW2ra2NqIrq6emBw+F0On8ZkIzNMDExgZycHElwpZWjGTM1NaU2gM5MTU0Nt2/fhpubG9UOAUjG8q1cuRJr164lG6B0dYnL5VI0RKbPnzF9fX3cuXMHbm5uWLVqFS5dukSJ3QCSjby5uRlisRg/fvxgJSK+vr7UzOCOZmdnh2XLlmHOnDloa2vDw4cPqf68iRMnYurUqdDU1ISamhoCAwPJFAJAssExm/rdu3fx7ds3Vu/kjx8/sHXrVmRnZ6NHjx7w8vKilMgZuvHIkSPJWBlGg6G9vR0bNmyAQCCgqLbSFHcej4dHjx79ayD8b8k5IFl/u3btYv2dCQQSExMxYsQIPHv2DCYmJpg1axbCwsJIRaGyspJQc8ViMYRCIStQle6T7MxMTU1RV1cHFRUVhIaGslpojI2N/1U1W0NDA66urjAwMEBMTAx8fX3Rq1cvSkyKSTTDw8MpSuTVq1dZyviMXbx4kfgpJoGQlZXF5MmTKaooIAlmZGVlkZWVhe7duyM4OBheXl5kfjmj0v3p0ydoa2uDw+EQNgFj9vb2FLWbCX4ZW7duHVJTU3H69Gls3rwZixYtwuLFi8le8ObNG9TX12P+/PngcrnIzc1FfHw8SU6bm5sJcCsWi8k4OGlrb29HVVUVKisrIScnR9HbAYk4n3Sy+/r1a2rvmDBhAmJiYjBz5sxOA7vq6mr4+vqSJLCiogLHjx/H3r17UVRUBH9/f7x+/Zokw21tbWQOOGNTp06l1uyLFy+o43w+n4zHbG9vZ1HDP3/+THwD02IjXZnm8Xhwd3ennh3mXly9ehX3799n/S5A4pMYXyrNAOt4foBkPf31119kfGZoaCjMzc1RVFQEDQ0NKCoqIigoCKdPn4aGhgaqqqpw/PhxKqlasWIFqdInJCSwEsCmpibY2NiAw+GAz+fD0tKS8pOampp48uQJmQTx9u1b6jP4fD5VBe/MRCIRXr9+DRMTE3z+/BkVFRXUeggODoa1tTVJmv38/LB48WLyPTY2NkhPTyfg/qxZsyh/ZmRkhB07duDGjRu4cuUKUYOXtkWLFuHq1avYunUrYVtJC+UyrRDq6uqdArkTJkyAu7s7li9fTp53CwsLcs6VlZVE9FYkEuHt27csht+/iZIBElDbxMQEY8aMIUDLqVOnSDIzduxYfPr0CRMmTMCCBQtQVFRECaOqqqoiNjYWGRkZaG1txcGDB1nXQRooAcAaZebh4QE/Pz+yt69evRqnTp0ix4cNGwY3NzfExcXhzp072LlzJ8zNzQkgs27dOkr3pzN79eoVLl68SGaPjxkzhuqD5/F4UFVVxYcPH5CVlcUCc7t3746MjAyYmZlBKBQiMzOTWg/MGGBzc3MimBcREUHiA3l5eURFRSEjIwNNTU3Yt28fi31XXl5OfBOHwyFzvhkLDw/H7NmzWVoqjMXExGDbtm0sIIixqqoqooguEomQnJxMifcCEsaodFW9473U1NQkQsnFxcVISUmhGBX5+flwdXUlo+EAiTI8o2nSu3dvHDp0iLB+vn//TqaCABI/r6GhAWtra3h6emLXrl0sAHD8+PF4/vw5jI2NyXdI5w/MZBfmOwICAvDs2TPCRPpl//P2SyTuP7Tp06cjJCQEOjo6qKurg42NDeLi4ojjDg0N7bTKw/R8MQnz0KFD4ebmhra2NgQFBVEb7ZkzZxAYGAgZGRmoqqrizJkzVMLz7Nkz7N69G9XV1Whra8PAgQMRHR2Nq1evIjAwkND01NTU0NzcDBkZGTx69Aj19fUsBU3GPDw8qGDQ3t4eAoEA9fX1qKurw4kTJzrtKS0uLsayZcuQnZ2NkSNHIiAgAHp6ehAIBAgICMC7d++gqqoKd3d3VtJWVFSE+Ph48Hg8TJ8+HT179kRbWxurx5IxExMTamSUl5cXnj59Ch0dHXz+/Bnu7u5wdHREc3NzpzM+AYljZZxXaWkpli5dipycHGRmZuLUqVOUYN67d+8oWj8gCbKkeyzb2toQHR2NoqIimJmZUSJSgARZvXXrFuzt7aGjo4MzZ85g1apViI+PR1FREWRlZVkVoX379lFUWWaUGtPvPnLkSAwaNAjBwcFoaWnBzZs3YWlpSSrIQ4YMoYRYmGQKkNzbnJwclmjgv1lNTQ1sbW1J4CwQCHDnzh3WJgVIehRLSkpgbm5ObSA3b94kvdfdunXDzJkzqUDc19cXrq6uJHnZt28fNm/eTAFDJSUlePXqFXg8HiwtLVkb+adPn3Du3DnU1tZi9uzZmDVrFnX8+PHj2LBhA0JCQnDy5Ens2LGDqqrY2dlh9erVmDRpEgoLC7Fs2TLEx8eTc6isrMSuXbtQUFBAqKxHjhwhwV9WVhaampq6TLLb2towevRo/Pbbb4SKa2BgQCk9/6d26dIl1NfXIz09HU5OTlBRUcGdO3c6Teq7suvXr+Pw4cOoqKhAW1sbDAwMqGrq69evSXXv58+f6N27N8Xyqa2thZOTEzIyMtCtWzf8/PkTly5dIrRGpl9+woQJRCW5o2jgkydPsH37dgiFQvD5fPj7+8PExAQ1NTXUuEVpk25NOHLkCMLDw3H79v9p70qjojrP8DMLm8FhtQKyjAcohtWxMQRsjBGlggIaQAWNEMWgmB6UUUo1RiN6EiAVBSMxGCTRoEBNagRkGQTKYgWjHUABCWjQEYjAwLAMMDC3Pzj3O3O9kNg25+SPzy+OF4e5373f9+7P8y0sLCyQnZ0NgUBAWvVpgi4+nw+RSIQVK1YgLi6OtOJSFIXQ0FC0t7eT99zV1ZUxbqBJjgZMVYKnUwro6enBqVOniN3w9/fHnDlzkJ2dDZVKBaFQCIqi0NbWhoMHDzJYsX8JO3bswNy5c+Hh4YHm5mZUVFQwWmk1CZaAqfPr9OnTZO9JJBLs2rULs2bNIsFqXFwcSTTeunULpaWljMre+vXrkZOTg8HBQTQ2NjKSp3w+H05OToxg49nvsHHjRhJAAVOJiB07dkAqlYKiKHh4eCA1NZXY1MrKSujo6Mwo2zc0NISDBw8Su0FRFDZt2oSsrCz09vZiYGBg2v8nFApRXV3NOuNpnDhxglRpW1paWHKnNGiJ0PXr1yM/Px88Hg9yuRybN29mMDEHBQUhOzsbH330Ee7fv4/Ozk4UFhaitbUVEokEMpkMpaWl2LBhAwYHB5GTkwOJRELGndRqNWJjY1FQUAA+nw9HR0d88cUX/xUrc3t7O8RiMdrb22Fubo7ExEQGx0VwcDBycnKIjaTHsmi7m5+fDysrK5Yc10yggxrN5FhISAiysrKwbNkylJeXIzQ0lLFv6PNK01Z/9913hMyqsbGRlUTx9vYmdlsul5OkDK1y8eabbzISUDdv3sTx48fJWWJvb88Y9eno6MDQ0BDjbyxYsGBaAtR79+5BIBDA0tISIyMjOHfuHAICAlhngaenJ5YsWYLa2lq4uLjg5s2bjOtGRkZwc3ODUqlEcXExQ9prcnISKSkpDCLCTz/9FCUlJVi+fDm8vLzg6OjIuEeaQLaiogK6urqIiopisP7L5XK89dZbCAgIgK6uLpRKJbhcLiNAr6urg0gkgkQiwcWLFxEYGMj4DJlMhrCwMPz0009QqVSIiIhg+JhJSUlYvnw52tra0NXVBQ8PD5SVlSE2NhbJyckIDw9ncM4AU10fmhVuHx8fpKSkwN7eHs3NzYiNjWVIjCUnJyM/Px/e3t4kQN+xYwc5g9LS0mBnZ8figKDR09NDkv0cDgfz5s2Dr68v41k3NzczuiX19PQY4w+Dg4OIj49HY2MjjI2NsX//fkbX4J49e7Bu3ToyGvIszp8/DxsbG3I9Ly8PcrmcJK0pikJtbS1KS0tx+/ZtaGtr46233mL4LwkJCbhw4QKRnNTR0WEkJ/ft2wc/Pz8sXboUFEUhOjoaYWFhLJ/1BX47vKig/5+YM2cOqS4KBAI4ODgwNu5MLZhfffUVIiIiYGlpCZFIBKlUij//+c9wcXFhGNiOjg5cvXoVt27dgra2Npqbm7F//34GCcqRI0eQkZGBjIwMREZGkgoYXRH+OcxUTdAEh8PBpUuXUFNTA7lcDk9PT9ZcbXFxMc6cOYPx8XHs3r0bvr6+aG5uRkJCAj7//HMcPnwYenp6iI2NxZMnTxAeHo7S0lLiBP7rX/9CdHQ0abHz9fXFpUuXYGtry3AGfw6HDx/Gzp070dvbCwsLCxKw6enpsaow0yE5ORkJCQnEkNrb2+P27dvE0ItEIpSUlPzsZ2hrayMgIGDG6/b29ggKCkJXVxfRTQfASDSEhIRgaGiIzEFqoqmpCTt37oRKpYK3tzfRvbezs4OFhQXGx8dZMivPsnLevXsXKSkpxOEwNTXFuXPnkJWVxcjIayInJ4dkWg0NDVFeXo4nT56Aw+HA3Nyc5ajcvHkTJ06cwPDwMJG40vydoKAgXLt2DY8fP4a5uTmrI6Ouro7hKE9MTODhw4eM1sby8nLiAAsEAlbm18HBYcYq/MDAAO7duweKovDll1/ixo0bCA0NZRg4PT09MpZhb2+PxYsXY2RkhHxXeob/6NGj5N40ZwJlMhn6+vpIgC6VSnHt2jVS7ePz+Yw2R3ptf02sX78ecXFxsLCwgKenJwoLCxnvGjBVUTh69CiGhoYgEolw/PhxQjoITLEoX758GZmZmdi9ezfr/UpJScH169fJmSAWi9HU1ESSPufOncOWLVuQn5+Ps2fPIikpiRGwubu7o6SkBG1tbYSXQBNqtRoffPABCgsLYWxsjCdPnmDLli2QSCQwNDR87jWLiYnBxo0bWeRvwFTHRVVVFQYHB7F27VpIpVJGQqevrw8cDoflRANTezIyMhL3798nDtXExASra6C+vh4ff/wxenp6sHXrVjx8+BBaWlpYs2YNzpw5AxMTE4yNjZEKmaGhIYsxv7y8HIcOHUJ/fz+cnZ1x4sQJBglkd3c32cOrVq1CXV0dxsfHQVEUvL290dLSQipXarUaenp6jL23YsUKFguzJuzt7REbG4vt27fD2NgY//jHP4j9mz17Njw8PLB48WJkZ2fjxx9/hLW1NamA9vb2Yt26dYx1UqvVrHs8c+YM/vjHP+LLL78ERVFITk7GhQsXiC0dGxtDQ0PDtAF6Xl4ePvroIzx8+JDMiQ4PDxMFCBMTE5iYmGBychLnz59HfX09jIyM8O6774LL5eL1119/rnZfBwcHZGdnY3x8HCqVihUUj4yMwMLCgpwLenp6rPvk8/ng8Xi4fv06iouLERMTg/7+fmhra8PIyAhGRkZkvMrMzAwHDhxg2AMOh4OEhATCq6Hpdzwvzp8/z0jgPAs7OzsiNzg+Pg6JRMLYF+Pj45BKpc8doE+nod3T04Njx47B2dkZHA6H1XGRkZHBYG1/Fs7OznB0dMTg4CBZA83noVAo4O7uTjqkhoeH8fe//51UdimKglgsRlxcHO7duwdnZ2dW23FHRwf+xy5QdAAADVBJREFU8Ic/QKFQID4+HsuWLWMEXBMTE/jqq6/Q1tZGzq+tW7fCysoKQqGQdMhpgrbLlZWVpONOE3Z2dnBzc4NKpUJTUxP6+/uJVBaPx2PZtl27duGdd97BgwcPptUhP3bsGAQCAa5cuYLBwUFERUXBxsaGtHp3dXVh6dKlsLe3x8jICIKDg1kjcHfv3sXixYuxatUqrFq1iuUvzJs3j4yuTAczMzMUFBSgtrYWCQkJ6O/vJ0G0UCiElpYWa87/WZLbxMRE7Nq1CzKZDNbW1qwCjoeHB2uES/O9s7W1RVhYGFauXEnWaefOneS8Hh4exvz580liVC6XIysri7EWKSkphFS5oaEBIpGIYcsPHDiAkydPzthebmtrO2PX6969e4ncr4GBASiKglKpZCQxab+L9p1aWlpY53ZZWRmkUumMKjoxMTEICQnBwMAAlEolAgICZiTufIHfBi8C9P8TBgYGWLFiBV577TW0t7cTeSehUPhc85Hd3d1Yt24dHB0doaWlhbq6Onz99dekLYnH42HBggXEMM+fP59VqZwzZw5po7O2tkZvb++Mskz/KyQSCVJTU7Ft2zb09/fjzp07jIDozp07SEpKYpD9ODo6EnKWpqYm0sLl6uqKGzduoLW1lTggV69eRWZmJnHq3dzcUFZWNi3j/LM4deoUAgMD8dlnnzFkiKytrVmssz+HZ1nfOzs7Wa1N6enpKCoqIhX5t99++7lm9WjEx8fj9u3bePDgAczNzTEyMoKKigpyvb29HZs2bYKWlhaGhobg6emJkydPEgNTXl6O999/H1evXkVMTAwCAgJw/fp1vP7661i7di0oikJlZSVxgAcGBsicI42YmBikp6eTzCp9gG/YsGHGe6H1NJ8lEKOxefNmknnt7e3F3r17kZycDFNTU1y8eBGJiYmMedjIyEhSXcvKysL169dJ2ywwta9oSTqlUona2lrs2bOHXL9y5QquXbuG2NhYqFQqHDx4EGZmZiwW4plAz5HV1NTAyckJurq6rGSIjY0N3nnnHbzxxhvo6OiAVColQeKqVavw0ksvwd3dfVpZkn/+858oKCjA8PAwFAoFKIrCv//9b0ZQweVy4eTkhMzMTPT19cHFxWXGOcr/FTTBY29vLzo7O+Hm5sYgmezr60NSUhJyc3Mxd+5cfPfddzh06BDjOZuamkIgEKCzsxOGhoasEQwul4uRkRESoCuVSsYc2+joKObPnw8ej0cI+erq6gjj/ujoKPz8/KCrqws9PT20t7fj22+/JYEfRVGwtbUl62xubv5ckjjPwsnJCbm5udi0aRNsbGwYyRgOh0Nk7bKzs+Hh4cHofDA2NoahoSG6u7tZrcgODg6kokRXjnk8HtmzdLJCLpfjwIEDrPZamqnf0tISHR0dDCZoR0dH0mk0PDyMw4cP48KFC5g3bx5KSkqwf/9+RjWay+WiqKiIkMR1d3eTZ1FcXMwaNaKvtbW1wcrKCtra2sjLy0N1dTU5S4OCgshMpoGBAcRiMfz8/DAwMIBXX32V5SBHRkbC1NQUCxcuRH19PWHfNjY2RmlpKbKyskjimMvlknVqaWmBvb09ORfo5+Lk5ISnT5+Sz6fHH2gNcmDq7PLx8YGPjw/eeOMN5Ofnkzl4WuccmKp8LViwAPv27YOuri78/Pzw5MkTrF27ltEdo1arkZqaiqKiIvB4PISHh5MZVPp6VFQUqquroa+vDz6fj9zcXBKEz5o1C7du3cKSJUsgFApx69YtWFlZITw8HL6+vkTaSCwWw8zMDHw+H11dXdDX14eJiQmxoxRFQaFQkMBT0z6VlJSgtbWVaKdXVVURDejnRUtLC5RK5YwJ7NjYWLz77rv4y1/+Ai0tLezcuZMx7jRnzhxs374dOTk5JOkWGRnJIhf7OaSnp6OyshLR0dHTqjEsWrQIMpmMMTuvifr6emzevBnm5ubkXdq/fz+Z16VJvzIzMyEQCLBx40aGtvfo6Cjs7Owwf/583Lt3D76+vgwyLWAqIMvOzkZcXBxeffVVnD9/HitXriRnaXJyMjo7O7F69WryrhkbG0NHR4d0r61cuRKFhYUYGxuDp6cnecZ0hXkmmVWBQIC4uDjs2bMHjx49Qn9/P2Hv10RLSws2bNiAl19+GQqFAnw+n0GI19nZiX379kFfXx8GBgYICgoiXA7AlL1rb2/H9u3bER4ejoaGBnI+UBSFyclJVFZWkkBVpVKhoKCA4WPdv38fYrGY0Yaem5tL3pmQkBCcPHkSwcHBcHR0hEQiIYHwunXr8PTpU3C5XEI8Nz4+jnPnzjGqui4uLiguLp52rYApX1RzHjwjIwOjo6MkGF+0aBErGUKTHo6NjUEmk6GhoQGenp6gKApNTU24e/cu4/dPnz5Nfp6YmGCR+6nVajx69IhFzlpTU4PExERMTk7iyJEjWLx4MVnj+Ph4uLi4ICkpCcHBwTA2NiZnP72WAwMDUCgUsLCwgFgshpeXFw4dOkRm4TXx2muvoaGhAa6urtPGAnShZXJyElwu91eNF17g18GLAP3/xJYtW0jLnOZ8mWYF6ueQl5eHmJgY4ix+//33yMrKwocffoijR49ieHgY+fn5kMlkMDMzQ1lZGYtMzNraGvr6+ujp6UFwcDCRHvq10NHRgVOnTiE6OhotLS3w8fHBhx9+yAjQLS0tSeZTrVbj0qVLCA0NJeQsv//97/Hxxx/Dz88P3d3dKC0tZTBrLlu2DPn5+XBwcMDExATKysqmJTCbDu7u7pg9ezZDGghgzwX9EiIiIrBt2zaMjo5CqVSioaGBkQ2urKxEXV0dLC0t8fbbb+Py5cv/tWbk999/j4sXL2Lfvn04deoUwsPDMTExQbKpx44dQ3p6Ogk04+LiUFNTQ1hLTUxMMDAwABsbG1y5coU14/nDDz+goKCABOj6+vqMrgBgihnVycmJ9Y7QQcXFixexbNkyMjOVnp6O0NBQmJqazkh4pqk53djYiKCgIBLgxMXFMea/6TlZTe1STecXmJqDj4iIgEwmg46ODsRiMSOwrKqqIoYJAHbv3o0bN248d4BOM5F/8sknSExMxNDQEGvk4pVXXsHjx4+hUChgaGiIwMBA9PT04PHjx6ioqCDVVh8fH/L8IiMjIRQKSfCjra1NHKSVK1cySFwoioK/vz/8/f3h7OyMoqIi0iHza6G5uRmhoaGwsrIi3yMyMpI4RR0dHVi6dCl51gEBAfj6668ZnyESiWBoaIjJyUm4u7szCJeAqVa51atXY968eejt7cWSJUsYa7l8+XJ0dXUhLCwMXl5eGB8fZxBu0aRitFNVW1uL9PR0Io3E4/Hw008/ITAwEA4ODoTx//Dhw1i0aBGjxXImvPzyyzAwMCBJiOjoaMbeffr0KdasWQNfX1/Mnj0bYWFheP/990lrJYfDgVQqxerVq8Hn88HhcLBw4UKkpaWBy+VCW1ubyBY+i7/97W84e/YsRkdHGdWM3NxcLFmyhCQbpFIptm3bBn9/f/I+/e53vyNr2dXVhVdeeYU4u97e3oyWemBKJeKvf/0r4uPjYWZmhk8//ZTscx0dHZYkEY2zZ89CLBajvr4ely5dgkKhQFRUFNLS0hiVngcPHkCpVKK6unrGtZbL5aRNNSQkhOxtWrN9pnU6efIkUlJS4OrqipCQEAQEBECtVuPq1asIDg7G3bt3Cb8HLcFGg66y8Xg8zJ49m6VkQuP48eP4/PPPIZPJGOoajY2N6OrqInOpaWlpkMlkyMjIwNjYGPbu3Yu5c+eSoK+qqgpGRkaor68Hh8NBdXU1UlJSGKz6M8010+9dWloabt68SZJ2UVFRjMpnQ0MDtm/fjsePH8PS0hIPHjxARUUF6SJ69OgRo9pI24T/BhMTE3BycoKjoyO4XC4EAgEjODUyMkJubi5GRkagra3NqvqJRCIWo/VMqhUzQSgUMuaB6XGKjIwMpKenQ61W4/Tp0xAKheQMy8/PJ+v4zTff4LPPPmPpq9MwMDBAamoqtm7dCh0dHbz33nuM1mKaJd7W1haFhYXo7u4mM9ia60RRFO7cuYPk5GS0tLSgr6+P2CS5XI733nuPUaDQRFdXF/z9/bFmzRq89NJL2Lx5M44cOcLwoWj+CpqH6E9/+hOj2+fs2bOQSCRQqVTIy8vD1q1b8c0335D9nZqaiuzsbJLISEhIQGVlJfFLvb29sWHDBmzatAmDg4P44osvEBMTg8uXLyMwMBCzZs1CZmYmeDweTpw4gebmZtLt9fDhQ2zZsgWtra2kA4vH47Hk6D744AMcOXIECxcuZPgXo6OjZMySPq9bW1thY2NDEp5jY2Po7u7G7du3ybp0dHSwSFRLS0sRHx8PhUIBlUqFBQsWkL3W19eHmpoa4qeo1WoUFBQw/IuSkhKIRCKyj4qKivD06VN4eXkReUW5XI6ioiIAU0mxmZIn9N/88ccfGf+mVqvh5uYGOzs78s5WVVVh0aJFDAUDTdAxA4fDmTFR/8MPP6Curg47duz4Rd4EmUyGiIgIQpJHKwXQuHDhAjIyMuDq6govLy+8+eabrG6FF/ht8R9ijfukuOBMdwAAAABJRU5ErkJggg==;" vertex="1" parent="1">
          <mxGeometry x="190" y="-10" width="740.26" height="228" as="geometry" />
        </mxCell>
        <mxCell id="odwM9VJJkQJ1zX9S7Ubx-4" value="某个类别出现的概率大 为long&amp;nbsp;" style="rounded=0;whiteSpace=wrap;html=1;" vertex="1" parent="1">
          <mxGeometry x="240" y="240" width="120" height="60" as="geometry" />
        </mxCell>
        <mxCell id="odwM9VJJkQJ1zX9S7Ubx-5" value="某个类别出现的概率小 为tail&lt;br&gt;" style="rounded=0;whiteSpace=wrap;html=1;" vertex="1" parent="1">
          <mxGeometry x="460" y="240" width="120" height="60" as="geometry" />
        </mxCell>
        <mxCell id="odwM9VJJkQJ1zX9S7Ubx-6" value="对应为non-iid 中类别不平衡IF 分数 和当前的 狄利克雷分布的alpha值&lt;br&gt;" style="rounded=0;whiteSpace=wrap;html=1;" vertex="1" parent="1">
          <mxGeometry x="707" y="240" width="120" height="60" as="geometry" />
        </mxCell>
        <mxCell id="odwM9VJJkQJ1zX9S7Ubx-7" value="" style="rounded=0;whiteSpace=wrap;html=1;" vertex="1" parent="1">
          <mxGeometry x="150" y="420" width="350" height="320" as="geometry" />
        </mxCell>
        <mxCell id="odwM9VJJkQJ1zX9S7Ubx-8" value="Client&lt;br&gt;" style="rounded=0;whiteSpace=wrap;html=1;" vertex="1" parent="1">
          <mxGeometry x="150" y="360" width="120" height="60" as="geometry" />
        </mxCell>
        <mxCell id="odwM9VJJkQJ1zX9S7Ubx-14" value="" style="rounded=1;whiteSpace=wrap;html=1;" vertex="1" parent="1">
          <mxGeometry x="160" y="425" width="330" height="65" as="geometry" />
        </mxCell>
        <mxCell id="odwM9VJJkQJ1zX9S7Ubx-10" value="单独用类别数据训练分类器&lt;br&gt;" style="rounded=1;whiteSpace=wrap;html=1;" vertex="1" parent="1">
          <mxGeometry x="300" y="430" width="190" height="60" as="geometry" />
        </mxCell>
        <mxCell id="odwM9VJJkQJ1zX9S7Ubx-11" value="" style="image;aspect=fixed;perimeter=ellipsePerimeter;html=1;align=center;shadow=0;dashed=0;spacingTop=3;image=img/lib/active_directory/cell_phone.svg;imageBorder=#FF96DC;strokeWidth=5;" vertex="1" parent="1">
          <mxGeometry x="180" y="435" width="21" height="50" as="geometry" />
        </mxCell>
        <mxCell id="odwM9VJJkQJ1zX9S7Ubx-12" value="" style="image;aspect=fixed;perimeter=ellipsePerimeter;html=1;align=center;shadow=0;dashed=0;spacingTop=3;image=img/lib/active_directory/cell_phone.svg;imageBorder=#F6FFA6;strokeWidth=5;" vertex="1" parent="1">
          <mxGeometry x="219" y="435" width="21" height="50" as="geometry" />
        </mxCell>
        <mxCell id="odwM9VJJkQJ1zX9S7Ubx-13" value="" style="image;aspect=fixed;perimeter=ellipsePerimeter;html=1;align=center;shadow=0;dashed=0;spacingTop=3;image=img/lib/active_directory/cell_phone.svg;imageBorder=#5465FF;strokeWidth=5;" vertex="1" parent="1">
          <mxGeometry x="260" y="435" width="21" height="50" as="geometry" />
        </mxCell>
        <mxCell id="odwM9VJJkQJ1zX9S7Ubx-15" value="" style="rounded=1;whiteSpace=wrap;html=1;" vertex="1" parent="1">
          <mxGeometry x="160" y="510" width="330" height="65" as="geometry" />
        </mxCell>
        <mxCell id="odwM9VJJkQJ1zX9S7Ubx-16" value="单独用类别数据训练分类器&lt;br&gt;" style="rounded=1;whiteSpace=wrap;html=1;" vertex="1" parent="1">
          <mxGeometry x="300" y="515" width="190" height="60" as="geometry" />
        </mxCell>
        <mxCell id="odwM9VJJkQJ1zX9S7Ubx-19" value="" style="image;aspect=fixed;perimeter=ellipsePerimeter;html=1;align=center;shadow=0;dashed=0;spacingTop=3;image=img/lib/active_directory/cell_phone.svg;imageBorder=#33FF99;strokeWidth=5;" vertex="1" parent="1">
          <mxGeometry x="260" y="520" width="21" height="50" as="geometry" />
        </mxCell>
        <mxCell id="odwM9VJJkQJ1zX9S7Ubx-20" value="" style="rounded=1;whiteSpace=wrap;html=1;" vertex="1" parent="1">
          <mxGeometry x="160" y="585" width="330" height="65" as="geometry" />
        </mxCell>
        <mxCell id="odwM9VJJkQJ1zX9S7Ubx-21" value="单独用类别数据训练分类器&lt;br&gt;" style="rounded=1;whiteSpace=wrap;html=1;" vertex="1" parent="1">
          <mxGeometry x="300" y="590" width="190" height="60" as="geometry" />
        </mxCell>
        <mxCell id="odwM9VJJkQJ1zX9S7Ubx-24" value="" style="image;aspect=fixed;perimeter=ellipsePerimeter;html=1;align=center;shadow=0;dashed=0;spacingTop=3;image=img/lib/active_directory/cell_phone.svg;" vertex="1" parent="1">
          <mxGeometry x="260" y="595" width="21" height="50" as="geometry" />
        </mxCell>
        <mxCell id="odwM9VJJkQJ1zX9S7Ubx-25" value="" style="rounded=1;whiteSpace=wrap;html=1;" vertex="1" parent="1">
          <mxGeometry x="160" y="660" width="330" height="65" as="geometry" />
        </mxCell>
        <mxCell id="odwM9VJJkQJ1zX9S7Ubx-26" value="单独用类别数据训练分类器&lt;br&gt;" style="rounded=1;whiteSpace=wrap;html=1;" vertex="1" parent="1">
          <mxGeometry x="300" y="665" width="190" height="60" as="geometry" />
        </mxCell>
        <mxCell id="odwM9VJJkQJ1zX9S7Ubx-49" value="" style="rounded=1;whiteSpace=wrap;html=1;" vertex="1" parent="1">
          <mxGeometry x="530" y="410" width="340" height="340" as="geometry" />
        </mxCell>
        <mxCell id="odwM9VJJkQJ1zX9S7Ubx-29" value="" style="image;aspect=fixed;perimeter=ellipsePerimeter;html=1;align=center;shadow=0;dashed=0;spacingTop=3;image=img/lib/active_directory/cell_phone.svg;" vertex="1" parent="1">
          <mxGeometry x="260" y="670" width="21" height="50" as="geometry" />
        </mxCell>
        <mxCell id="odwM9VJJkQJ1zX9S7Ubx-54" style="edgeStyle=orthogonalEdgeStyle;rounded=0;orthogonalLoop=1;jettySize=auto;html=1;" edge="1" parent="1" source="odwM9VJJkQJ1zX9S7Ubx-50" target="odwM9VJJkQJ1zX9S7Ubx-46">
          <mxGeometry relative="1" as="geometry" />
        </mxCell>
        <mxCell id="odwM9VJJkQJ1zX9S7Ubx-35" value="Feature Dyn" style="shape=cylinder3;whiteSpace=wrap;html=1;boundedLbl=1;backgroundOutline=1;size=15;" vertex="1" parent="1">
          <mxGeometry x="540" y="590" width="60" height="80" as="geometry" />
        </mxCell>
        <mxCell id="odwM9VJJkQJ1zX9S7Ubx-36" value="" style="image;aspect=fixed;perimeter=ellipsePerimeter;html=1;align=center;shadow=0;dashed=0;spacingTop=3;image=img/lib/active_directory/cell_phone.svg;imageBorder=#FF96DC;strokeWidth=5;" vertex="1" parent="1">
          <mxGeometry x="180" y="520" width="21" height="50" as="geometry" />
        </mxCell>
        <mxCell id="odwM9VJJkQJ1zX9S7Ubx-37" value="" style="image;aspect=fixed;perimeter=ellipsePerimeter;html=1;align=center;shadow=0;dashed=0;spacingTop=3;image=img/lib/active_directory/cell_phone.svg;imageBorder=#FF96DC;strokeWidth=5;" vertex="1" parent="1">
          <mxGeometry x="180" y="600" width="21" height="50" as="geometry" />
        </mxCell>
        <mxCell id="odwM9VJJkQJ1zX9S7Ubx-38" value="" style="image;aspect=fixed;perimeter=ellipsePerimeter;html=1;align=center;shadow=0;dashed=0;spacingTop=3;image=img/lib/active_directory/cell_phone.svg;imageBorder=#F6FFA6;strokeWidth=5;" vertex="1" parent="1">
          <mxGeometry x="219" y="520" width="21" height="50" as="geometry" />
        </mxCell>
        <mxCell id="odwM9VJJkQJ1zX9S7Ubx-42" value="" style="image;aspect=fixed;perimeter=ellipsePerimeter;html=1;align=center;shadow=0;dashed=0;spacingTop=3;image=img/lib/active_directory/cell_phone.svg;imageBorder=#FF96DC;strokeWidth=5;" vertex="1" parent="1">
          <mxGeometry x="180" y="665" width="21" height="50" as="geometry" />
        </mxCell>
        <mxCell id="odwM9VJJkQJ1zX9S7Ubx-44" value="" style="image;aspect=fixed;perimeter=ellipsePerimeter;html=1;align=center;shadow=0;dashed=0;spacingTop=3;image=img/lib/active_directory/cell_phone.svg;imageBorder=#F6FFA6;strokeWidth=5;" vertex="1" parent="1">
          <mxGeometry x="219" y="595" width="21" height="50" as="geometry" />
        </mxCell>
        <mxCell id="odwM9VJJkQJ1zX9S7Ubx-59" style="edgeStyle=orthogonalEdgeStyle;rounded=0;orthogonalLoop=1;jettySize=auto;html=1;entryX=0.75;entryY=1;entryDx=0;entryDy=0;" edge="1" parent="1" source="odwM9VJJkQJ1zX9S7Ubx-45" target="odwM9VJJkQJ1zX9S7Ubx-58">
          <mxGeometry relative="1" as="geometry">
            <Array as="points">
              <mxPoint x="229" y="810" />
              <mxPoint x="693" y="810" />
            </Array>
          </mxGeometry>
        </mxCell>
        <mxCell id="odwM9VJJkQJ1zX9S7Ubx-45" value="" style="image;aspect=fixed;perimeter=ellipsePerimeter;html=1;align=center;shadow=0;dashed=0;spacingTop=3;image=img/lib/active_directory/cell_phone.svg;imageBorder=#F6FFA6;strokeWidth=5;" vertex="1" parent="1">
          <mxGeometry x="219" y="667.5" width="21" height="50" as="geometry" />
        </mxCell>
        <mxCell id="odwM9VJJkQJ1zX9S7Ubx-46" value="" style="image;aspect=fixed;perimeter=ellipsePerimeter;html=1;align=center;shadow=0;dashed=0;spacingTop=3;image=img/lib/active_directory/cell_phone.svg;" vertex="1" parent="1">
          <mxGeometry x="554.25" y="410" width="31.5" height="75" as="geometry" />
        </mxCell>
        <mxCell id="odwM9VJJkQJ1zX9S7Ubx-48" value="Server&lt;br&gt;" style="rounded=1;whiteSpace=wrap;html=1;" vertex="1" parent="1">
          <mxGeometry x="560" y="340" width="120" height="60" as="geometry" />
        </mxCell>
        <mxCell id="odwM9VJJkQJ1zX9S7Ubx-55" value="" style="edgeStyle=orthogonalEdgeStyle;rounded=0;orthogonalLoop=1;jettySize=auto;html=1;" edge="1" parent="1" source="odwM9VJJkQJ1zX9S7Ubx-35" target="odwM9VJJkQJ1zX9S7Ubx-50">
          <mxGeometry relative="1" as="geometry">
            <mxPoint x="570" y="590" as="sourcePoint" />
            <mxPoint x="570" y="485" as="targetPoint" />
          </mxGeometry>
        </mxCell>
        <mxCell id="odwM9VJJkQJ1zX9S7Ubx-50" value="上一轮的分类器&lt;br&gt;" style="rounded=0;whiteSpace=wrap;html=1;" vertex="1" parent="1">
          <mxGeometry x="542" y="483" width="56" height="32" as="geometry" />
        </mxCell>
        <mxCell id="odwM9VJJkQJ1zX9S7Ubx-61" style="edgeStyle=orthogonalEdgeStyle;rounded=0;orthogonalLoop=1;jettySize=auto;html=1;" edge="1" parent="1" source="odwM9VJJkQJ1zX9S7Ubx-56" target="odwM9VJJkQJ1zX9S7Ubx-58">
          <mxGeometry relative="1" as="geometry" />
        </mxCell>
        <mxCell id="odwM9VJJkQJ1zX9S7Ubx-56" value="" style="image;aspect=fixed;perimeter=ellipsePerimeter;html=1;align=center;shadow=0;dashed=0;spacingTop=3;image=img/lib/active_directory/cell_phone.svg;" vertex="1" parent="1">
          <mxGeometry x="648.5" y="408" width="31.5" height="75" as="geometry" />
        </mxCell>
        <mxCell id="odwM9VJJkQJ1zX9S7Ubx-57" value="经过Feature Dyn 本应该更新的分类器&lt;br&gt;" style="rounded=0;whiteSpace=wrap;html=1;" vertex="1" parent="1">
          <mxGeometry x="630" y="485" width="80" height="45" as="geometry" />
        </mxCell>
        <mxCell id="odwM9VJJkQJ1zX9S7Ubx-58" value="" style="image;aspect=fixed;perimeter=ellipsePerimeter;html=1;align=center;shadow=0;dashed=0;spacingTop=3;image=img/lib/active_directory/cell_phone.svg;imageBorder=#FFFF99;strokeWidth=10;" vertex="1" parent="1">
          <mxGeometry x="648.5" y="601.5" width="31.5" height="75" as="geometry" />
        </mxCell>
        <mxCell id="odwM9VJJkQJ1zX9S7Ubx-60" value="客户端上传的分类器特征&lt;br&gt;" style="rounded=0;whiteSpace=wrap;html=1;" vertex="1" parent="1">
          <mxGeometry x="627" y="683" width="80" height="42" as="geometry" />
        </mxCell>
        <mxCell id="odwM9VJJkQJ1zX9S7Ubx-62" value="match_loss" style="ellipse;whiteSpace=wrap;html=1;aspect=fixed;" vertex="1" parent="1">
          <mxGeometry x="665" y="531.5" width="70" height="70" as="geometry" />
        </mxCell>
        <mxCell id="odwM9VJJkQJ1zX9S7Ubx-63" value="" style="endArrow=none;dashed=1;html=1;rounded=0;exitX=0;exitY=0.5;exitDx=0;exitDy=0;" edge="1" parent="1" source="odwM9VJJkQJ1zX9S7Ubx-62" target="odwM9VJJkQJ1zX9S7Ubx-35">
          <mxGeometry width="50" height="50" relative="1" as="geometry">
            <mxPoint x="480" y="640" as="sourcePoint" />
            <mxPoint x="530" y="590" as="targetPoint" />
          </mxGeometry>
        </mxCell>
        <mxCell id="odwM9VJJkQJ1zX9S7Ubx-64" value="" style="shape=flexArrow;endArrow=classic;html=1;rounded=0;" edge="1" parent="1">
          <mxGeometry width="50" height="50" relative="1" as="geometry">
            <mxPoint x="735" y="560" as="sourcePoint" />
            <mxPoint x="785" y="510" as="targetPoint" />
            <Array as="points">
              <mxPoint x="775" y="520" />
            </Array>
          </mxGeometry>
        </mxCell>
        <mxCell id="odwM9VJJkQJ1zX9S7Ubx-65" value="新的Feature Dyn" style="shape=cylinder3;whiteSpace=wrap;html=1;boundedLbl=1;backgroundOutline=1;size=15;" vertex="1" parent="1">
          <mxGeometry x="790" y="452" width="60" height="80" as="geometry" />
        </mxCell>
      </root>
    </mxGraphModel>
  </diagram>
</mxfile>
